<svg version="1.1" id="Layer_1" xmlns="http://www.w3.org/2000/svg" xmlns:xlink="http://www.w3.org/1999/xlink" x="0px" y="0px"
	 width="100%" viewBox="0 0 896 864" enable-background="new 0 0 896 864" xml:space="preserve">
<path fill="#000000" opacity="1.000000" stroke="none"
	d="
M334.404144,100.415283
	C316.372620,115.525986 299.854584,131.669525 283.849152,148.435226
	C267.530548,165.528946 248.212708,178.746704 227.138199,189.584290
	C212.751083,196.982895 197.328049,202.063202 183.228714,210.007416
	C154.004852,226.473465 135.156937,251.365250 125.991837,283.225342
	C121.292053,299.562897 122.545509,316.514313 126.052422,333.182648
	C129.680832,350.428467 133.911331,367.698639 133.847610,385.373047
	C133.790497,401.215332 130.397537,416.622498 124.552246,431.580231
	C119.130241,445.454773 111.912193,458.369965 105.386948,471.661438
	C96.384781,489.998291 90.503815,509.301178 91.352600,529.798035
	C92.397682,555.035034 99.309265,578.596008 114.662766,599.304810
	C123.845703,611.690735 135.869629,620.621887 148.135803,629.515198
	C163.537613,640.681824 180.656326,649.068115 196.197174,660.014771
	C214.749252,673.082397 229.370636,689.572327 241.452011,708.641052
	C251.240265,724.090576 259.639282,740.434387 271.685181,754.453430
	C281.758698,766.176941 294.022736,774.790344 307.486237,781.961121
	C331.011780,794.490784 356.905762,798.393066 382.711395,802.667725
	C386.501129,803.295532 391.410309,802.413330 392.528076,808.171021
	C392.598999,808.536194 393.981934,808.799500 394.767548,808.837158
	C395.921600,808.892456 397.125183,808.477051 398.239960,808.664612
	C400.222412,808.998230 403.348511,808.476318 403.179504,811.483337
	C403.043243,813.907410 400.223083,813.859558 398.283478,813.770752
	C390.766388,813.426575 383.679840,816.196106 376.108032,816.236938
	C355.460815,816.348145 335.877106,812.135498 316.711884,804.716431
	C301.995422,799.019653 288.017303,792.067810 275.921539,781.971863
	C264.525208,772.459778 254.794769,761.381836 246.540192,748.866821
	C237.904251,735.773621 231.375336,721.496460 222.685471,708.468933
	C208.597824,687.349243 188.847443,672.879150 166.894882,661.082458
	C152.182098,653.176147 138.080353,644.336853 125.313087,633.600403
	C110.142525,620.842896 97.794617,605.653320 89.149307,587.719116
	C88.086411,585.514221 84.582535,582.393860 89.084290,579.645386
	C89.371826,579.469910 88.872391,577.826233 88.580948,576.916260
	C87.824379,574.554016 86.979553,572.220032 86.111671,569.705994
	C84.777504,570.989929 87.006111,572.838989 84.945602,574.179749
	C82.580711,574.541199 82.155365,572.328247 81.600945,570.549805
	C71.378181,537.757935 71.975647,505.715881 87.566185,474.425476
	C96.677887,456.138153 107.089180,438.467438 113.348297,418.792999
	C119.570091,399.235931 120.219498,379.544373 116.081856,359.676331
	C112.418404,342.085175 107.423309,324.668823 107.088371,306.615540
	C106.847221,293.617401 109.269928,280.739136 113.457085,268.370453
	C119.997917,249.049133 129.823456,231.493958 143.928848,216.696396
	C154.774841,205.318130 168.276932,197.592697 182.793747,191.807373
	C203.544800,183.537567 224.012894,174.763000 242.714798,162.336868
	C261.787018,149.664673 276.723633,132.545609 292.427917,116.257339
	C309.704742,98.338043 327.684509,81.278305 349.680695,69.124390
	C361.746399,62.457497 375.006622,59.175343 388.251984,55.819099
	C415.971558,48.795238 443.000671,53.351154 470.113098,59.760666
	C489.813751,64.417999 508.234894,72.036018 526.547058,80.420784
	C532.996338,83.373810 540.522339,84.318230 547.263306,87.129715
	C547.569946,87.257591 547.899597,87.328995 548.211060,87.446609
	C551.559143,88.710854 555.650757,89.219154 556.643005,93.417252
	C557.075134,95.245590 549.003601,97.900627 545.132019,97.105270
	C532.259827,94.460892 519.527039,91.356087 507.250092,86.506058
	C492.513824,80.684464 477.393250,75.683571 461.861053,72.880768
	C447.883698,70.358543 433.775024,67.122078 419.479401,67.620834
	C408.718536,67.996262 398.105103,70.450851 387.564606,73.028351
	C367.713074,77.882729 350.568176,87.752464 334.404144,100.415283
z"/>
<path fill="#000000" opacity="1.000000" stroke="none"
	d="
M392.707092,737.444702
	C349.368713,726.670654 320.459351,700.540955 305.728699,658.776917
	C302.850464,650.616516 300.391937,642.256104 296.835724,634.396973
	C287.310059,613.345703 270.761841,599.890381 249.301880,592.070740
	C237.579819,587.799438 225.164780,585.605286 213.869186,580.041748
	C196.095123,571.287415 183.160950,557.987976 175.857193,539.510010
	C163.443405,508.104004 170.379593,479.411530 188.847931,452.679108
	C200.093872,436.400848 207.804047,418.986542 207.610153,398.911011
	C207.496109,387.099854 205.007568,375.463196 203.705612,363.734802
	C201.454422,343.455231 205.750778,324.593170 216.998535,307.608368
	C230.045929,287.905914 248.956696,276.115234 271.016968,268.641296
	C285.820770,263.625824 300.809601,259.009430 314.731567,251.688812
	C332.263458,242.470001 346.649414,229.579147 358.832092,214.071030
	C372.371735,196.835495 388.086914,182.232971 408.401154,173.152466
	C441.272339,158.458954 474.609070,156.038071 508.226654,170.043289
	C526.208984,177.534790 539.989258,190.372894 550.995544,206.421799
	C556.830200,214.929642 561.722473,224.029449 568.132507,232.183548
	C582.752991,250.781982 602.149963,261.518158 624.528320,267.762512
	C637.018005,271.247620 649.956299,273.173523 661.954956,278.376923
	C687.034241,289.252899 704.916504,307.111694 714.254456,332.988220
	C724.011536,360.026276 721.175354,386.649231 711.214355,413.025879
	C707.033142,424.097809 702.581360,435.029907 697.452515,445.698212
	C695.628662,449.492065 693.082764,451.829041 688.166077,452.011749
	C687.645935,447.152039 690.441406,443.380157 691.965149,439.425964
	C700.375305,417.601074 708.250244,395.382660 708.214539,371.869385
	C708.155090,332.726959 689.803162,297.615845 644.662415,285.205566
	C628.943054,280.883911 613.096924,277.043549 598.214844,270.035614
	C579.182739,261.073395 563.833435,248.083313 552.365479,230.415405
	C544.128845,217.725662 536.462769,204.682098 524.846191,194.431656
	C512.140503,183.220184 497.435242,176.814270 480.982178,174.340179
	C459.484161,171.107452 438.514587,173.470245 418.356262,181.883865
	C401.358948,188.978134 387.399841,200.235306 376.102661,214.517715
	C354.641632,241.649841 329.130981,262.902649 295.558014,273.442810
	C285.091858,276.728668 274.585510,280.212494 264.648285,284.798920
	C228.508652,301.478760 210.830154,331.564270 217.473648,372.225525
	C220.379410,390.010162 221.478668,407.973694 215.915573,425.560638
	C212.070770,437.715454 205.999985,448.810974 198.710831,459.248138
	C187.732239,474.968201 181.173080,492.142151 182.103271,511.592346
	C183.413177,538.982361 196.272079,558.877380 221.204086,570.663330
	C228.915024,574.308350 237.218597,576.247009 245.376266,578.584656
	C276.621796,587.538391 299.087128,606.197205 310.884369,637.072266
	C315.040558,647.949524 318.265717,659.152771 323.305481,669.735596
	C337.199158,698.910461 360.461823,716.991211 390.903992,725.407471
	C423.639282,734.457764 454.782471,729.706909 483.401733,710.632935
	C486.720062,708.421387 490.831604,707.400146 495.729309,705.342102
	C494.147552,711.045105 490.819275,714.268738 487.389801,716.945740
	C466.099548,733.565063 441.916962,741.545837 414.843109,740.457031
	C407.510315,740.162048 400.212524,739.594910 392.707092,737.444702
z"/>
<path fill="#000000" opacity="1.000000" stroke="none"
	d="
M724.505188,700.411377
	C705.223022,739.054993 674.077087,760.911377 632.215698,768.140198
	C617.930237,770.607117 603.642517,768.531616 589.354431,768.285522
	C565.920166,767.881958 542.887329,769.959351 520.390015,777.342529
	C509.300598,780.981873 498.628967,785.342468 488.277557,790.602295
	C484.055328,792.747742 479.584137,793.913818 474.984833,794.788452
	C472.539886,795.253418 470.550201,795.162598 470.772278,791.558105
	C468.091705,792.866272 465.908936,794.063416 463.619446,794.999573
	C462.234131,795.566040 460.530426,795.902405 459.776367,794.011108
	C459.128662,792.386536 460.465546,791.694824 461.608887,790.936340
	C472.464996,783.734375 484.160614,778.433655 496.394714,773.880371
	C510.994080,768.446838 525.385071,762.499207 540.477234,758.493164
	C548.559387,756.347839 556.837280,755.582703 565.122253,754.838318
	C580.541504,753.452881 595.983337,755.238953 611.447205,754.141541
	C656.470764,750.946594 690.429443,730.931580 710.280823,689.680786
	C717.450378,674.782593 720.240234,658.335510 723.966125,642.289551
	C727.717163,626.135315 735.705261,611.915833 744.586670,598.183105
	C753.377686,584.590088 764.764221,572.988647 774.484924,560.099976
	C790.369019,539.039246 800.519104,515.701599 802.855347,489.185883
	C804.311768,472.656555 800.981873,456.737244 796.966309,440.934479
	C793.406250,426.924164 788.008606,413.398407 785.851257,399.009186
	C783.302368,382.008179 783.123779,364.867523 782.795715,347.735016
	C782.601685,337.602905 782.422424,327.450928 782.374023,317.340485
	C782.327637,307.648956 781.338806,298.023285 779.443909,288.825378
	C773.716797,261.026184 758.329346,239.933151 733.267761,225.595718
	C712.703674,213.831284 690.512756,205.352768 670.205627,193.196365
	C657.320862,185.483246 645.248596,176.810944 635.064209,165.463547
	C629.729675,159.519806 624.555359,153.455124 619.411682,147.358444
	C618.031616,145.722672 616.952271,143.803116 615.926331,141.910065
	C615.315735,140.783463 614.636902,139.433868 615.701660,138.174179
	C616.807922,136.865341 618.026733,137.745300 619.331726,137.973495
	C625.662720,139.080536 630.136230,143.337646 634.115662,147.607056
	C648.979370,163.553726 666.684509,175.503586 685.863647,185.405869
	C703.914978,194.725906 722.851379,202.289047 740.385925,212.646164
	C748.896179,217.672897 756.501221,223.621704 764.038391,230.261612
	C788.429993,251.749344 797.372253,279.653442 801.315674,310.188812
	C803.677429,328.476746 801.181030,346.732666 800.338562,364.997131
	C799.754211,377.665436 800.836426,390.264404 802.582092,402.806671
	C803.177490,407.084412 804.063721,411.326019 804.540833,415.614868
	C805.439453,423.693359 809.103455,430.849884 811.862793,438.302307
	C815.634583,448.489288 818.269348,458.953796 819.993225,469.662903
	C820.046082,469.991669 820.144714,470.330719 820.110840,470.653290
	C818.747742,483.646759 821.671997,496.732819 818.343567,509.781281
	C815.014221,522.833496 810.554443,535.375244 803.496094,546.714050
	C794.877197,560.559814 784.390686,573.117737 774.030640,585.714539
	C763.748840,598.216187 754.178650,611.204163 746.837952,625.702820
	C740.435486,638.348206 737.942932,652.123535 735.285583,665.853027
	C733.003052,677.646057 730.275940,689.308533 724.505188,700.411377
z"/>
<path fill="#000000" opacity="1.000000" stroke="none"
	d="
M371.755035,460.948486
	C369.292267,439.920715 375.238708,421.616791 387.601166,405.402069
	C406.908661,380.078186 435.390167,370.541412 465.633179,378.764282
	C487.585388,384.732941 505.632294,405.408417 506.362335,427.956818
	C507.313599,457.337341 480.799652,476.174805 457.707275,470.099945
	C447.743042,467.478607 440.037598,461.682281 436.071899,451.778564
	C432.523712,442.917572 438.178497,432.059143 447.219208,431.590576
	C445.653992,435.924164 444.958527,439.924652 446.959778,444.429382
	C451.549774,454.761475 462.892731,459.360870 473.101837,454.302399
	C486.162384,447.830963 491.882172,431.674713 485.604095,416.904633
	C479.063904,401.517853 466.242493,394.230560 450.186249,393.441864
	C422.933990,392.103149 399.078094,409.984924 392.067078,436.012787
	C384.845825,462.821075 396.572510,490.327972 420.891602,503.625458
	C450.912506,520.040649 487.244049,514.819031 511.588806,490.618378
	C513.166260,489.050262 514.497559,487.006744 516.991272,486.706757
	C518.859863,489.408508 517.148621,491.192078 515.868713,492.757751
	C499.795166,512.419373 479.127808,524.417603 453.812378,525.968689
	C414.595032,528.371643 379.642029,503.518860 372.448486,464.306976
	C372.268372,463.325256 372.018951,462.356293 371.755035,460.948486
z"/>
<path fill="#000000" opacity="1.000000" stroke="none"
	d="
M379.055542,381.064514
	C355.279297,392.854614 336.079071,410.114838 316.989471,427.553253
	C309.370544,434.513153 301.895874,441.655731 293.639008,447.889191
	C292.576111,448.691589 291.483765,449.459167 290.369202,450.188049
	C288.524902,451.394226 286.606323,451.602448 284.792053,450.195557
	C282.753113,448.614441 283.285889,446.554504 284.307556,444.786407
	C286.882263,440.330780 289.182007,435.600464 292.423218,431.664795
	C311.610718,408.365967 333.706482,388.304718 359.390045,372.274689
	C382.110443,358.094086 406.835968,349.611755 433.367004,346.936920
	C461.414520,344.109192 488.451630,348.942352 514.361267,359.990387
	C540.362366,371.077332 562.219482,388.108826 582.213257,407.726807
	C592.283020,417.607239 601.811768,427.988953 609.641663,439.799225
	C610.650574,441.321045 611.533875,442.933502 612.381470,444.553040
	C613.320007,446.346497 614.326965,448.273041 612.440369,450.030792
	C610.366516,451.963043 608.320618,450.886322 606.630310,449.426941
	C600.330933,443.988251 593.419067,439.345612 587.153564,433.831329
	C569.785767,418.545837 552.985596,402.544220 533.353699,390.016663
	C505.054688,371.958527 474.403809,362.369354 440.608765,364.228119
	C419.038971,365.414490 398.635590,371.078735 379.055542,381.064514
z"/>
<path fill="#000000" opacity="1.000000" stroke="none"
	d="
M551.765015,520.790161
	C506.066467,554.362610 455.864380,564.181335 401.493378,550.028320
	C372.971985,542.604126 348.266968,527.538513 327.057465,506.973236
	C317.235992,497.450073 308.046234,487.364105 300.347900,476.001373
	C299.694733,475.037262 298.958344,474.116547 298.416077,473.093292
	C297.508972,471.381622 295.898071,469.516357 297.936859,467.710571
	C300.198425,465.707489 302.005249,467.539520 303.529053,469.021545
	C315.126740,480.300812 327.382019,490.823822 340.419189,500.381592
	C365.274384,518.603394 392.036407,532.931641 422.989410,537.330505
	C462.814697,542.990234 500.121063,535.245300 534.775024,514.748291
	C555.685547,502.380188 574.130432,486.864594 591.863342,470.413849
	C593.485107,468.909302 594.810791,466.669708 597.669128,467.195404
	C599.337708,469.784668 597.665344,471.672119 596.375000,473.523041
	C583.920410,491.388397 569.512085,507.421326 551.765015,520.790161
z"/>
<path fill="#000000" opacity="1.000000" stroke="none"
	d="
M532.718994,676.749634
	C524.084656,682.509827 516.359436,688.784058 509.461212,696.077820
	C507.066650,698.609680 504.458038,700.957031 501.800049,703.215454
	C500.071838,704.683838 498.099030,706.633789 495.748199,704.248047
	C493.241089,701.703674 495.231720,699.585571 496.892822,697.774841
	C500.259094,694.105225 503.595764,690.427856 506.834381,686.633118
	C527.457947,662.467896 554.252014,651.154236 585.504578,648.673889
	C619.072693,646.009705 644.744263,629.485596 663.939941,602.294678
	C674.842102,586.851440 679.762634,569.580811 680.149109,550.736328
	C680.243103,546.150696 679.490173,540.715820 684.010681,536.799683
	C687.725342,539.726929 687.927795,543.722595 688.229309,547.353516
	C691.054993,581.383179 678.258606,609.049316 653.414734,631.679138
	C633.419434,649.892395 609.760864,658.812500 582.845886,660.465576
	C565.030640,661.559631 548.206177,666.777771 532.718994,676.749634
z"/>
<path fill="#000000" opacity="1.000000" stroke="none"
	d="
M431.816406,797.636169
	C436.003052,797.459106 439.794098,797.217102 443.588776,797.065796
	C444.958801,797.011169 446.321167,797.325745 446.792694,798.853455
	C447.299286,800.494690 445.925262,801.005920 444.936798,801.910889
	C441.466156,805.088196 437.944672,807.867310 433.424744,809.751770
	C426.892365,812.475342 420.737579,810.814941 414.470184,809.694763
	C411.358734,809.138550 411.253479,807.143066 413.429199,805.119324
	C418.490631,800.411621 424.782166,798.574036 431.816406,797.636169
z"/>
<path fill="#000000" opacity="1.000000" stroke="none"
	d="
M584.020630,117.201614
	C581.156738,115.127235 578.707703,113.124725 577.159668,110.300621
	C576.454468,109.014030 575.693237,107.532715 576.822815,106.117683
	C577.776978,104.922348 579.113708,105.246109 580.485596,105.402161
	C585.753601,106.001404 589.743164,108.854057 593.216492,112.529190
	C594.853394,114.261253 596.116272,116.456024 594.264648,118.757721
	C592.631226,120.788185 590.453003,120.341301 588.366882,119.345032
	C587.021240,118.702370 585.684509,118.041138 584.020630,117.201614
z"/>
<path fill="#000000" opacity="1.000000" stroke="none"
	d="
M688.730713,458.974976
	C689.454285,469.097198 684.778198,477.689819 683.994019,486.906555
	C680.706543,486.867065 680.219788,485.154663 680.252014,483.816620
	C680.451111,475.540649 680.679016,467.209717 684.807312,459.703583
	C685.470154,458.498383 686.440918,455.324249 688.730713,458.974976
z"/>
<path fill="#000000" opacity="1.000000" stroke="none"
	d="
M684.166748,507.070129
	C685.299744,512.271606 687.435974,517.024658 685.438477,522.042358
	C684.681274,523.944336 683.774780,526.015564 681.162537,523.856323
	C676.751038,520.209900 677.056946,505.774261 681.671082,502.117859
	C683.969116,502.853729 682.980042,505.300690 684.166748,507.070129
z"/>
<path fill="#000000" opacity="1.000000" stroke="none"
	d="
M287.381592,203.556549
	C286.784576,207.442978 284.565674,209.105881 281.167419,209.226730
	C278.839111,209.309540 277.498474,207.900070 276.922852,205.749939
	C276.117889,202.743103 277.399261,200.555191 279.840210,198.962891
	C283.245941,196.741211 286.555817,198.610977 287.381592,203.556549
z"/>
<path fill="#000000" opacity="1.000000" stroke="none"
	d="
M593.624268,160.443024
	C595.734924,163.771973 594.752502,166.220642 591.946899,167.821732
	C589.493469,169.221893 587.099670,168.421143 585.269653,166.353851
	C583.378113,164.217010 583.931824,162.020905 585.642456,160.122253
	C588.164917,157.322662 590.814697,157.734314 593.624268,160.443024
z"/>
<path fill="#000000" opacity="1.000000" stroke="none"
	d="
M260.489258,226.819107
	C257.656860,224.697754 257.107056,222.382568 259.056274,219.825455
	C260.626709,217.765244 262.787231,217.211182 265.198090,218.229309
	C267.292938,219.113968 268.304657,220.883438 267.659607,223.000793
	C266.670654,226.246979 264.351959,227.756973 260.489258,226.819107
z"/>
<path fill="#000000" opacity="1.000000" stroke="none"
	d="
M291.883514,718.867859
	C289.747162,717.054443 288.332916,715.208130 289.539093,712.655701
	C290.372742,710.891663 292.027313,709.959045 293.969788,710.016235
	C295.965515,710.074951 297.318085,711.361267 298.122253,713.093750
	C299.821136,716.753723 297.341522,719.221313 291.883514,718.867859
z"/>
<path fill="#000000" opacity="1.000000" stroke="none"
	d="
M301.383087,737.917908
	C298.902313,736.735168 297.567322,735.199219 298.332825,732.697327
	C298.892822,730.867126 300.137512,729.488892 302.110291,729.262146
	C303.847076,729.062561 305.312164,729.928406 306.316284,731.335876
	C308.451569,734.328857 306.539856,737.109436 301.383087,737.917908
z"/>
<path fill="#000000" opacity="1.000000" stroke="none"
	d="
M156.914001,554.304810
	C158.986252,557.201477 158.797806,559.582092 156.072205,561.375122
	C153.821579,562.855713 151.977127,561.849792 150.509628,559.955322
	C149.405151,558.529480 149.003967,556.855042 150.186066,555.386597
	C151.884735,553.276428 153.994400,552.167664 156.914001,554.304810
z"/>
</svg>