<?xml version="1.0" encoding="UTF-8" standalone="no"?>
<!DOCTYPE svg PUBLIC "-//W3C//DTD SVG 1.1//EN" "http://www.w3.org/Graphics/SVG/1.1/DTD/svg11.dtd">
<svg width="100%" height="100%" viewBox="0 0 717 555" version="1.1" xmlns="http://www.w3.org/2000/svg" xmlns:xlink="http://www.w3.org/1999/xlink" xml:space="preserve" xmlns:serif="http://www.serif.com/" style="fill-rule:evenodd;clip-rule:evenodd;stroke-linejoin:round;stroke-miterlimit:2;">
    <g id="Artboard1" transform="matrix(1,0,0,1,-160,-479)">
        <rect x="160" y="479" width="717" height="555" style="fill:none;"/>
        <g transform="matrix(1,0,0,1,508.6875,612.75)">
            <path d="M0,0C1.057,-0.004 1.057,-0.004 2.136,-0.007C15.52,-0.024 28.545,1.215 41.818,2.969C44.664,3.29 47.451,3.369 50.312,3.25L50.312,5.25C50.898,5.276 51.483,5.302 52.086,5.328C99.38,8.453 149.744,33.857 189.035,58.815C191.573,60.414 194.13,61.978 196.691,63.539C213.498,73.801 213.498,73.801 221.156,79.762C223.455,81.348 225.69,82.313 228.312,83.25L228.312,85.25C229.099,85.612 229.099,85.612 229.902,85.98C233.037,87.632 235.941,89.586 238.875,91.562C239.845,92.213 239.845,92.213 240.835,92.877C250.525,99.388 260.196,105.937 269.742,112.656C282.05,121.3 294.857,129.162 307.688,137C308.427,137.453 309.167,137.906 309.928,138.373C313.351,140.465 316.784,142.533 320.258,144.539C320.862,144.894 321.466,145.249 322.088,145.614C323.689,146.552 325.297,147.476 326.906,148.398C329.622,150.488 330.374,151.999 331.312,155.25C325.586,160.541 319.414,164.344 312.688,168.25C301.917,174.608 291.498,181.348 281.141,188.352C275.75,191.97 270.311,195.514 264.875,199.062C264.033,199.612 264.033,199.612 263.174,200.174C255.985,204.869 248.784,209.544 241.551,214.172C239.209,215.674 236.874,217.184 234.543,218.703C152.973,271.833 68.878,308.639 -61.875,295.938C-115.552,284.599 -163.537,261.093 -209.518,231.632C-212.308,229.855 -215.119,228.111 -217.931,226.369C-224.32,222.409 -230.609,218.331 -236.844,214.134C-242.588,210.282 -248.432,206.599 -254.288,202.922C-260.124,199.253 -265.915,195.519 -271.688,191.75C-286.397,182.161 -301.247,172.834 -316.3,163.793C-317.234,163.23 -318.167,162.666 -319.129,162.086C-319.961,161.586 -320.793,161.087 -321.651,160.572C-323.688,159.25 -323.688,159.25 -325.688,157.25C-325.875,154.5 -325.875,154.5 -324.688,151.25C-322.926,149.813 -322.926,149.813 -320.688,148.391C-319.872,147.87 -319.057,147.348 -318.218,146.812C-314.336,144.416 -310.429,142.068 -306.5,139.75C-283.906,126.285 -262.11,111.688 -240.671,96.461C-234.374,92 -227.967,87.717 -221.526,83.468C-219.672,82.24 -217.825,81 -215.98,79.758C-207.65,74.152 -199.203,68.766 -190.664,63.482C-188.767,62.299 -186.882,61.099 -185,59.891C-162.147,45.271 -138.012,32.076 -112.688,22.25C-111.944,21.955 -111.2,21.661 -110.433,21.357C-84.525,11.105 -57.567,3.599 -29.688,1.25C-28.698,1.166 -27.708,1.082 -26.688,0.996C-17.79,0.294 -8.924,0.014 0,0ZM-125.56,41.276C-127.613,42.216 -129.676,43.13 -131.742,44.039C-156.272,55 -179.547,70.101 -201.688,85.25C-203.101,86.211 -204.516,87.172 -205.93,88.133C-214.286,93.821 -222.599,99.57 -230.875,105.375C-250.879,119.399 -271.065,132.969 -291.998,145.581C-296.634,148.375 -301.22,151.194 -305.688,154.25C-302.446,157.9 -298.754,160.048 -294.5,162.312C-286.346,166.776 -278.587,171.73 -270.829,176.843C-267.295,179.165 -263.74,181.456 -260.188,183.75C-258.764,184.67 -257.341,185.591 -255.918,186.512C-255.216,186.966 -254.514,187.42 -253.791,187.888C-251.73,189.222 -249.672,190.558 -247.613,191.895C-236.984,198.792 -226.314,205.622 -215.608,212.4C-213.65,213.641 -211.692,214.883 -209.735,216.127C-150.666,253.664 -88.466,282.076 -17.625,285.875C-16.883,285.915 -16.141,285.955 -15.376,285.997C-1.242,286.644 12.729,286.231 26.812,285C27.59,284.933 28.368,284.867 29.169,284.798C69.102,281.34 108.889,271.958 145.069,254.334C147.379,253.218 149.705,252.144 152.039,251.078C170.19,242.74 187.402,232.853 204.312,222.25C205.063,221.78 205.814,221.31 206.587,220.825C211.343,217.842 216.085,214.84 220.823,211.83C223.341,210.232 225.862,208.639 228.383,207.047C240.33,199.488 252.179,191.787 263.976,183.998C275.803,176.201 287.871,168.857 300.125,161.75C301.754,160.803 301.754,160.803 303.416,159.836C306.047,158.306 308.679,156.777 311.312,155.25C308.85,152.65 306.601,150.639 303.441,148.953C302.71,148.556 301.978,148.16 301.224,147.751C300.449,147.338 299.674,146.925 298.875,146.5C297.235,145.605 295.595,144.708 293.957,143.809C293.157,143.37 292.358,142.932 291.534,142.48C280.462,136.349 270.124,129.096 259.703,121.938C254.18,118.147 248.601,114.45 242.992,110.789C239.786,108.633 236.718,106.311 233.637,103.98C227.627,99.448 221.484,95.154 215.25,90.938C214.158,90.198 213.066,89.459 211.94,88.697C202.522,82.34 193.023,76.151 183.312,70.25C182.245,69.6 181.178,68.951 180.079,68.281C124.466,34.538 63.942,12.965 -1.625,13.062C-2.85,13.064 -2.85,13.064 -4.099,13.065C-47.072,13.172 -86.623,23.337 -125.56,41.276Z" style="fill:rgb(5,6,4);fill-rule:nonzero;"/>
        </g>
        <g transform="matrix(1,0,0,1,559.708984,695.458008)">
            <path d="M0,0C13.678,12.207 24.099,27.897 26.291,46.542C26.884,58.29 27.44,70.377 23.291,81.542C22.939,82.529 22.587,83.517 22.225,84.534C15.497,101.985 3.361,116.474 -13.709,124.542C-35.357,132.787 -58.212,132.551 -79.709,123.542C-83.001,121.773 -86.172,119.913 -89.318,117.897C-91.686,116.295 -91.686,116.295 -94.709,116.542C-95.723,114.884 -96.72,113.215 -97.709,111.542C-98.823,110.676 -98.823,110.676 -99.959,109.792C-103.865,106.596 -106.903,102.731 -109.709,98.542L-109.709,96.542L-111.709,96.542C-112.841,93.878 -113.965,91.211 -115.084,88.542C-115.401,87.798 -115.718,87.054 -116.045,86.288C-123.677,68.003 -123.703,46.988 -116.893,28.378C-109.581,10.86 -96.336,-2.42 -79.021,-10.021C-53.092,-20.567 -21.934,-18.713 0,0ZM-94.041,16.12C-103.181,27.197 -107.078,40.199 -106.959,54.354C-106.967,55.295 -106.974,56.235 -106.982,57.204C-106.98,58.106 -106.977,59.008 -106.975,59.937C-106.972,60.75 -106.97,61.563 -106.968,62.401C-106.836,64.839 -106.836,64.839 -104.709,67.542C-104.664,66.989 -104.619,66.435 -104.573,65.865C-103.227,49.755 -101.563,35.151 -90.334,22.542C-87.38,19.83 -87.38,19.83 -87.709,16.542C-87.142,16.444 -86.575,16.346 -85.99,16.245C-83.223,15.392 -81.505,14.052 -79.209,12.292C-67.431,3.857 -54.96,1.146 -40.709,1.479C-38.855,1.514 -37.001,1.544 -35.146,1.569C-33.938,1.596 -33.938,1.596 -32.705,1.624C-30.634,1.676 -30.634,1.676 -28.709,0.542L-28.709,2.542C-27.719,3.037 -27.719,3.037 -26.709,3.542C-26.874,4.284 -27.039,5.027 -27.209,5.792C-28.401,14.73 -28.837,22.556 -23.572,30.19C-20.139,34.63 -16.908,37.035 -11.459,38.292C-10.551,38.374 -9.644,38.457 -8.709,38.542C-8.379,38.212 -8.049,37.882 -7.709,37.542L-7.709,38.542C-1.73,39.289 1.615,36.865 6.291,33.542C7.825,39.881 8.854,46.034 9.291,52.542C9.345,53.225 9.399,53.908 9.455,54.612C10.121,70.522 4.816,85.557 -5.584,97.542C-11.612,103.762 -18.18,108.022 -25.982,111.683C-27.98,112.631 -27.98,112.631 -30.709,114.542C-20.893,113.688 -13.224,109.753 -5.709,103.542C-4.698,102.799 -3.688,102.057 -2.646,101.292C6.207,93.686 12.37,80.945 14.291,69.542C15.886,47.968 13.449,30.222 -0.959,13.417C-2.869,11.208 -2.869,11.208 -4.709,9.542L-6.709,9.542L-6.709,7.542C-32.205,-13.115 -72.447,-7.81 -94.041,16.12Z" style="fill:rgb(2,2,2);fill-rule:nonzero;"/>
        </g>
        <g transform="matrix(1,0,0,1,240,816)">
            <path d="M0,0C0.33,0.66 0.66,1.32 1,2C2.996,2.678 4.997,3.343 7,4C8.837,5.007 10.642,6.076 12.414,7.195C13.417,7.825 14.42,8.455 15.453,9.104C16.5,9.771 17.546,10.438 18.625,11.125C19.702,11.805 20.778,12.485 21.887,13.186C30.655,18.74 39.322,24.403 47.812,30.375C61.341,39.877 75.306,48.648 89.354,57.358C91.493,58.685 93.628,60.016 95.762,61.352C98.827,63.259 101.907,65.138 105,67C106.024,67.618 106.024,67.618 107.069,68.248C118.071,74.849 129.236,80.73 140.914,86.045C142.743,86.883 144.562,87.744 146.379,88.609C171.379,100.487 198.452,109.496 226,113C227.221,113.165 228.441,113.33 229.699,113.5C240.781,114.917 251.836,115.642 263,116C264.279,116.043 265.558,116.085 266.875,116.129C342.451,117.33 410.343,87.261 471.759,45.522C474.829,43.437 477.912,41.372 481,39.312C481.56,38.938 482.121,38.564 482.698,38.178C490.878,32.729 499.116,27.367 507.342,21.988C515.045,16.948 522.723,11.873 530.348,6.715C532.526,5.306 534.65,4.088 537,3C537.33,3.66 537.66,4.32 538,5C529.807,14.957 519.991,22.924 510,31C508.769,32.011 507.538,33.023 506.309,34.035C497.687,41.118 488.915,47.945 479.935,54.568C478.07,55.948 476.216,57.341 474.363,58.738C457.686,71.25 440.17,81.856 421.724,91.551C419.333,92.823 416.969,94.129 414.613,95.465C402.308,102.376 389.246,107.201 376,112C375.168,112.306 374.336,112.611 373.479,112.926C352.521,120.573 330.799,124.752 308.727,127.642C306.552,127.928 304.381,128.24 302.211,128.562C231.6,137.155 159.699,116.465 99.673,79.999C97.464,78.68 95.207,77.461 92.938,76.25C90.246,74.777 87.826,73.176 85.402,71.297C81.493,68.329 77.465,65.58 73.388,62.85C62.853,55.796 52.722,48.378 42.824,40.458C41.275,39.22 39.717,37.993 38.156,36.77C28.146,28.888 18.529,20.49 9.129,11.895C7.284,10.253 5.398,8.747 3.438,7.25C0.774,4.791 0.204,3.568 0,0Z" style="fill:rgb(5,7,5);fill-rule:nonzero;"/>
        </g>
        <g transform="matrix(1,0,0,1,649.807617,621.853027)">
            <path d="M0,0C2.49,1.303 5,2.563 7.513,3.823C27.518,13.935 46.075,25.985 64.192,39.147C64.843,39.617 65.493,40.088 66.164,40.572C74.4,46.533 82.53,52.624 90.552,58.87C91.669,59.74 92.787,60.608 93.907,61.475C101.542,67.389 109.017,73.454 116.353,79.737C119.138,82.166 119.138,82.166 122.063,84.213C122.766,84.851 123.469,85.49 124.192,86.147L124.192,90.147C120.723,89.501 118.323,88.131 115.38,86.209C113.92,85.258 113.92,85.258 112.431,84.288C111.362,83.581 110.293,82.875 109.192,82.147C108.04,81.392 106.888,80.637 105.735,79.881C99.937,76.063 94.2,72.176 88.556,68.133C6.732,9.572 -80.621,-29.735 -189.308,-16.228C-211.11,-12.614 -232.451,-6.423 -252.808,2.147C-253.558,2.456 -254.309,2.764 -255.083,3.083C-267.399,8.17 -279.008,14.426 -290.62,20.945C-292.048,21.73 -293.498,22.477 -294.968,23.181C-296.98,24.121 -296.98,24.121 -298.808,26.147C-300.252,26.906 -301.718,27.624 -303.194,28.319C-309.256,31.291 -314.918,34.793 -320.62,38.397C-321.676,39.061 -322.732,39.725 -323.82,40.409C-331.293,45.131 -338.62,49.999 -345.808,55.147C-352.161,59.64 -358.581,64.013 -365.067,68.312C-369.205,71.061 -373.298,73.864 -377.37,76.709C-384.067,81.374 -390.917,85.777 -397.808,90.147C-398.468,88.827 -399.128,87.507 -399.808,86.147C-379.979,69.804 -379.979,69.804 -371.808,63.147C-371.063,62.531 -370.317,61.915 -369.55,61.28C-362.001,55.113 -354.075,49.473 -346.144,43.814C-344.629,42.733 -343.116,41.651 -341.604,40.566C-331.206,33.104 -320.654,25.944 -309.808,19.147C-309.062,18.678 -308.317,18.21 -307.549,17.727C-275.504,-2.306 -241.38,-18.281 -204.308,-26.291C-203.549,-26.455 -202.789,-26.619 -202.007,-26.788C-197.523,-27.69 -193.38,-28.003 -188.808,-27.853C-188.478,-28.513 -188.148,-29.173 -187.808,-29.853C-185.21,-30.232 -185.21,-30.232 -181.745,-30.416C-177.903,-30.62 -174.065,-30.835 -170.227,-31.106C-111.665,-35.227 -52.464,-27.767 0,0Z" style="fill:rgb(6,8,6);fill-rule:nonzero;"/>
        </g>
        <g transform="matrix(1,0,0,1,692,707)">
            <path d="M0,0C2.876,3.046 5.527,6.047 6.527,10.18C6.683,10.78 6.839,11.381 7,12C7.66,12.33 8.32,12.66 9,13C9.643,23.284 6.634,31.083 0,39C-5.224,43.882 -10.984,48.004 -16.812,52.125C-25.481,58.423 -29.767,64.332 -32,75C-32.377,78.56 -32.51,82.125 -32.647,85.7C-33.086,96.113 -35.031,106.153 -42.715,113.68C-50.164,119.804 -58.793,121.949 -68.148,123.477C-68.929,123.605 -69.709,123.733 -70.513,123.866C-78.732,125.178 -86.984,126.097 -95.264,126.935C-97.791,127.192 -100.317,127.458 -102.844,127.725C-104.474,127.894 -106.104,128.062 -107.734,128.23C-108.478,128.309 -109.222,128.387 -109.988,128.467C-114.01,128.87 -117.959,129.078 -122,129C-122.33,129.66 -122.66,130.32 -123,131C-124.85,131.315 -124.85,131.315 -127.289,131.449C-133.486,131.955 -139.348,133.328 -145.375,134.812C-146.422,135.061 -147.468,135.309 -148.547,135.564C-170.252,140.83 -192.517,149.224 -208.852,164.957C-211,167 -211,167 -213.668,169.121C-216.066,170.895 -216.066,170.895 -217.688,173.25C-218.121,173.827 -218.554,174.405 -219,175L-221,175C-221.309,175.928 -221.309,175.928 -221.625,176.875C-223.548,179.847 -225.666,180.13 -229,181C-229.66,179.68 -230.32,178.36 -231,177C-224.693,166.385 -216.35,158.595 -206.25,151.594C-203.94,150.052 -203.94,150.052 -202,148C-168.093,126.618 -125.423,120.848 -86.294,116.97C-64.964,115.374 -64.964,115.374 -47,105C-43.895,99.137 -43.408,93.808 -43,87.25C-41.809,72.092 -38.894,59.92 -27.488,49.09C-14.471,38.157 -14.471,38.157 -8,36C-6.991,34.234 -6.991,34.234 -6,32C-5.319,31.113 -4.639,30.226 -3.938,29.312C-1.164,24.57 -0.394,20.25 -1.406,14.82C-3.021,9.727 -5.514,7.019 -10,4C-25.32,-3.526 -42.839,-0.332 -58.418,4.796C-66.204,7.463 -73.833,10.361 -81.25,13.938C-85.448,15.942 -88.382,16.513 -93,16C-92.645,13.447 -92.332,12.285 -90.348,10.578C-65.699,-3.748 -25.585,-20.643 0,0Z" style="fill:rgb(8,10,8);fill-rule:nonzero;"/>
        </g>
        <g transform="matrix(1,0,0,1,564,635)">
            <path d="M0,0C0.66,1.32 1.32,2.64 2,4C1.201,4.255 1.201,4.255 0.386,4.516C-11.255,8.283 -21.624,12.432 -32,19C-53.201,32.345 -72.138,40.463 -97.305,42.418C-117.971,43.779 -117.971,43.779 -136.266,52.73C-138,54 -138,54 -141,55C-142.184,57.376 -142.184,57.376 -143,60C-143.33,60.99 -143.66,61.98 -144,63C-144.532,69.444 -144.074,75.357 -142.5,81.625C-140.085,91.438 -139.985,98.166 -144.996,107.234C-151.556,116.288 -163.409,119.944 -174,122C-186.754,123.975 -199.62,125.329 -212.469,126.516C-232.728,128.414 -253.574,133.597 -269.117,147.434C-271,149 -271,149 -274,150C-274.33,150.99 -274.66,151.98 -275,153L-277,153C-277.377,153.86 -277.377,153.86 -277.762,154.738C-279.164,157.3 -280.769,159.105 -282.812,161.188C-283.479,161.882 -284.145,162.577 -284.832,163.293C-287.261,165.205 -288.963,165.645 -292,166C-293.399,160.725 -293.399,160.725 -291.629,157.508C-290.947,156.721 -290.265,155.935 -289.562,155.125C-288.439,153.829 -288.439,153.829 -287.293,152.508C-286.536,151.68 -285.78,150.853 -285,150C-284.398,149.317 -283.796,148.634 -283.176,147.93C-263.228,126.554 -235.741,119.729 -207.594,117.582C-178.643,116.201 -178.643,116.201 -154,103C-150.896,98.061 -151.355,91.382 -152.418,85.809C-152.675,84.759 -152.675,84.759 -152.938,83.688C-155.49,73.219 -156.162,63.433 -150.777,53.816C-143.824,43.57 -132.299,39.047 -120.625,36.438C-111.844,34.784 -102.964,33.946 -94.075,33.09C-70.436,30.77 -51.01,21.479 -31,9.125C-21.055,2.995 -11.733,-0.235 0,0Z" style="fill:rgb(8,10,8);fill-rule:nonzero;"/>
        </g>
        <g transform="matrix(1,0,0,1,503,633)">
            <path d="M0,0C0.66,0.33 1.32,0.66 2,1C2.36,4.257 2.207,5.685 0.383,8.465C-6.911,16.452 -14.637,21.811 -25,25C-25.999,25.324 -26.999,25.648 -28.028,25.982C-32.514,27.256 -36.997,27.583 -41.633,27.93C-43.51,28.087 -45.388,28.244 -47.266,28.402C-50.187,28.64 -53.109,28.874 -56.032,29.099C-77.261,30.757 -93.886,34.221 -108.5,50.844C-111.172,54.12 -113.502,57.589 -115.812,61.125C-116.461,62.106 -116.461,62.106 -117.123,63.106C-119.142,66.161 -121.146,69.225 -123.145,72.293C-135.601,91.284 -149.953,107.826 -173,113C-183.017,114.58 -193.045,113.854 -203.117,113.254C-220.481,112.282 -237.224,116.1 -250.688,127.688C-252.33,129.262 -253.891,130.883 -255.441,132.547C-256.574,133.751 -257.782,134.883 -259,136L-263,136C-262.878,130.134 -261.161,127.273 -257.148,123.047C-244.729,111.215 -231.96,105.603 -215.062,103.75C-213.8,103.611 -213.8,103.611 -212.512,103.47C-206.384,102.872 -206.384,102.872 -203,104C-198.796,104.236 -194.585,104.185 -190.375,104.188C-188.648,104.206 -188.648,104.206 -186.887,104.225C-177.067,104.241 -169.363,103.047 -160.625,98.562C-160.023,98.263 -159.421,97.963 -158.801,97.654C-155.726,96.083 -153.367,94.496 -151,92L-149,92C-148.505,90.515 -148.505,90.515 -148,89C-146.562,87.312 -146.562,87.312 -145,86L-143,86C-142.625,85.182 -142.625,85.182 -142.242,84.348C-140.751,81.529 -138.975,79.037 -137.125,76.438C-133.75,71.661 -130.6,66.784 -127.535,61.803C-122.6,53.796 -117.697,46.655 -111,40C-110.175,39.093 -109.35,38.185 -108.5,37.25C-93.127,23.414 -73.315,21.922 -53.626,20.398C-34.736,18.917 -18.194,16.605 -3.961,2.855C-2,1 -2,1 0,0Z" style="fill:rgb(8,10,8);fill-rule:nonzero;"/>
        </g>
        <g transform="matrix(1,0,0,1,750,726)">
            <path d="M0,0C-3.569,10.973 -17.091,16.582 -26.562,21.75C-30.461,23.892 -34.132,25.948 -37.512,28.859C-40,31 -40,31 -42,31C-42.34,31.804 -42.34,31.804 -42.688,32.625C-44,35 -44,35 -46.312,37.438C-54.114,46.891 -55.058,59.296 -56.481,71.003C-58.184,84.394 -62.214,96.523 -71,107L-73,107L-73,109C-87.166,120.604 -103.357,123.16 -121.135,123.406C-159.503,124.001 -191.017,131.343 -219.32,158.496C-222,161 -222,161 -225,163C-227.688,162.625 -227.688,162.625 -230,162C-229.67,160.02 -229.34,158.04 -229,156L-227,156C-226.729,155.406 -226.459,154.811 -226.18,154.199C-217.118,137.307 -191.421,126.515 -174,121C-172.804,120.609 -171.607,120.219 -170.375,119.816C-157.238,116.142 -143.6,115.949 -130.051,115.297C-106.662,114.225 -106.662,114.225 -84.918,106.051C-83,105 -83,105 -80,104L-80,102C-79.299,101.381 -78.597,100.763 -77.875,100.125C-68.251,90.747 -66.787,76.399 -64.933,63.803C-62.496,47.437 -57.887,33.704 -44.262,23.238C-39.193,19.76 -33.924,16.68 -28.586,13.637C-22.882,10.384 -17.303,6.933 -11.713,3.491C-10.635,2.828 -10.635,2.828 -9.535,2.152C-8.9,1.76 -8.264,1.368 -7.61,0.965C-4.538,-0.876 -3.432,-1.03 0,0Z" style="fill:rgb(8,10,8);fill-rule:nonzero;"/>
        </g>
        <g transform="matrix(1,0,0,1,430,746)">
            <path d="M0,0C2,3 2,3 1.938,5.312C-0.278,11.665 -3.874,14.198 -9.75,17.062C-20.123,21.528 -30.927,24.328 -41.918,26.822C-59.229,30.761 -77.661,36.319 -89,51C-92.732,57.332 -96.12,63.533 -96.133,71.004C-96.134,71.744 -96.135,72.485 -96.137,73.248C-96.133,74.012 -96.129,74.776 -96.125,75.562C-96.129,76.33 -96.133,77.098 -96.137,77.889C-96.131,81.179 -96.047,83.858 -95,87C-94.96,89.333 -94.956,91.667 -95,94C-97.75,94.375 -97.75,94.375 -101,94C-106.357,88.197 -107.455,80.124 -107.254,72.453C-105.779,58.207 -99.517,46.304 -88.613,36.953C-75.391,27.329 -60.773,23.14 -45.141,19.309C-43.923,19.009 -42.706,18.71 -41.451,18.402C-39.049,17.816 -36.644,17.24 -34.236,16.674C-21.143,13.513 -9.404,9.958 0,0Z" style="fill:rgb(8,9,7);fill-rule:nonzero;"/>
        </g>
        <g transform="matrix(1,0,0,1,630.8125,741.6875)">
            <path d="M0,0C5.123,4.748 8.814,11.502 9.496,18.465C9.891,30.047 6.985,37.846 -0.312,47.062C-13.738,61.125 -35.97,66.587 -54.812,67.312C-57.029,67.024 -57.029,67.024 -58.812,66.312C-59.142,65.323 -59.472,64.332 -59.812,63.312C-54.445,61.185 -49.263,59.63 -43.625,58.438C-28.792,55.071 -13.536,49.695 -4.812,36.312C-1.259,30.086 -0.963,23.331 -1.812,16.312C-3.431,10.953 -6.027,7.317 -10.812,4.312C-16.673,1.276 -21.702,0.79 -28.25,0.625C-29.172,0.591 -30.095,0.557 -31.045,0.521C-33.301,0.44 -35.556,0.37 -37.812,0.312C-37.483,-1.008 -37.153,-2.328 -36.812,-3.688L-34.812,-3.688C-34.4,-4.162 -33.987,-4.636 -33.562,-5.125C-25.301,-12.502 -7.566,-5.87 0,0Z" style="fill:rgb(8,10,8);fill-rule:nonzero;"/>
        </g>
        <g transform="matrix(1,0,0,1,779,746)">
            <path d="M0,0C-0.117,2.242 -0.117,2.242 -1,5C-3.048,6.65 -4.854,7.858 -7.125,9.125C-7.774,9.503 -8.422,9.88 -9.091,10.269C-15.147,13.707 -21.443,16.62 -27.75,19.562C-44.404,27.354 -56.506,36.117 -63.07,53.898C-64.078,56.923 -65.05,59.956 -66,63C-72.628,84.231 -72.628,84.231 -81,91L-85,91C-85.236,87.153 -84.729,85.008 -82.812,81.688C-80.538,77.376 -78.951,73.034 -77.562,68.375C-71.731,48.996 -65.297,30.881 -47,20C-40.295,16.485 -33.426,13.311 -26.566,10.113C-20.13,7.105 -13.953,3.776 -7.82,0.195C-4.651,-1.148 -3.224,-1.059 0,0Z" style="fill:rgb(8,10,7);fill-rule:nonzero;"/>
        </g>
        <g transform="matrix(1,0,0,1,434,777)">
            <path d="M0,0C0.495,0.99 0.495,0.99 1,2C-0.753,4.51 -2.325,5.816 -5.293,6.625C-8.189,7.122 -11.088,7.541 -14,7.938C-28.549,10.216 -41.744,14.328 -51.562,26.062C-55.209,33.515 -56.13,40.592 -53.938,48.562C-51.614,54.929 -46.762,58.634 -41.562,62.688C-40.717,63.451 -39.871,64.214 -39,65L-39,69C-42,71 -42,71 -44.188,71C-52.141,68.172 -58.697,61.283 -63.102,54.238C-66.393,47.148 -66.221,37.747 -64.309,30.312C-63.371,28.053 -62.301,26.07 -61,24C-60.416,22.991 -60.416,22.991 -59.82,21.961C-51.441,9.12 -35.686,4.363 -21.5,1.188C-14.258,-0.165 -7.354,-0.306 0,0Z" style="fill:rgb(8,10,8);fill-rule:nonzero;"/>
        </g>
        <g transform="matrix(1,0,0,1,516,504)">
            <path d="M0,0C2.751,5.573 2.306,11.61 2.301,17.68C2.305,18.806 2.309,19.933 2.314,21.094C2.319,23.473 2.32,25.851 2.316,28.23C2.313,31.855 2.336,35.48 2.361,39.105C2.364,41.422 2.364,43.738 2.363,46.055C2.372,47.132 2.382,48.209 2.391,49.319C2.353,55.537 1.899,60.435 -1,66C-3.459,66.929 -4.585,67.122 -7.125,66.375C-9.708,64.481 -10.063,63.083 -11,60C-11.326,56.941 -11.372,53.891 -11.414,50.816C-11.433,49.924 -11.453,49.032 -11.473,48.114C-11.532,45.263 -11.579,42.413 -11.625,39.562C-11.663,37.68 -11.702,35.798 -11.742,33.916C-11.835,29.42 -11.902,24.924 -11.96,20.428C-11.997,18.187 -12.058,15.947 -12.128,13.707C-12.155,12.472 -12.183,11.237 -12.211,9.965C-12.242,8.918 -12.274,7.871 -12.306,6.793C-11.942,3.47 -11.022,1.644 -9,-1C-5.136,-2.288 -3.625,-1.774 0,0Z" style="fill:rgb(7,8,6);fill-rule:nonzero;"/>
        </g>
        <g transform="matrix(1,0,0,1,509,954)">
            <path d="M0,0C3.75,0.188 3.75,0.188 7,1C8.761,8.304 9.295,15.205 9.266,22.703C9.268,23.785 9.269,24.866 9.271,25.98C9.273,28.249 9.269,30.518 9.261,32.787C9.25,36.254 9.261,39.721 9.273,43.188C9.272,45.401 9.27,47.615 9.266,49.828C9.27,50.859 9.274,51.891 9.278,52.953C9.245,58.032 9.03,62.248 7,67C5.54,66.718 4.082,66.424 2.625,66.125C1.813,65.963 1.001,65.8 0.164,65.633C-2,65 -2,65 -4,63C-5.22,57.413 -5.164,51.506 -5.125,45.812C-5.12,45.034 -5.115,44.256 -5.11,43.455C-5.084,40.636 -5.041,37.818 -5,35C-4.987,33.771 -4.975,32.542 -4.962,31.276C-4.925,27.902 -4.865,24.529 -4.79,21.156C-4.751,19.152 -4.729,17.148 -4.708,15.144C-4.675,13.903 -4.643,12.662 -4.609,11.383C-4.588,10.273 -4.567,9.163 -4.546,8.02C-3.876,4.315 -2.715,2.583 0,0Z" style="fill:rgb(6,8,6);fill-rule:nonzero;"/>
        </g>
        <g transform="matrix(1,0,0,1,675,678)">
            <path d="M0,0C0.99,1.485 0.99,1.485 2,3C1,5 1,5 -0.875,5.688C-3,6 -3,6 -6,5C-30.449,2.471 -49.54,8.824 -71.436,19.089C-81.759,23.897 -91.5,27.481 -103,28C-103.688,26.188 -103.688,26.188 -104,24C-101.733,20.225 -97.082,19.468 -93.125,18.188C-87.841,16.403 -82.729,14.531 -77.688,12.125C-22.46,-14.079 -22.46,-14.079 0,0Z" style="fill:rgb(9,11,8);fill-rule:nonzero;"/>
        </g>
        <g transform="matrix(1,0,0,1,474,820)">
            <path d="M0,0L0,3C-4.104,6.249 -8.832,7.13 -13.812,8.312C-38.226,14.483 -56.23,25.764 -71.992,45.493C-76.096,50.525 -76.096,50.525 -80,51C-81.75,49.562 -81.75,49.562 -83,48C-81.643,42.574 -79.24,39.625 -75.438,35.75C-71.807,32.181 -71.807,32.181 -69,28L-67,28C-66.67,27.01 -66.34,26.02 -66,25C-48.692,9.386 -23.443,-1.256 0,0Z" style="fill:rgb(9,11,8);fill-rule:nonzero;"/>
        </g>
        <g transform="matrix(1,0,0,1,505,831)">
            <path d="M0,0C-0.287,1.876 -0.287,1.876 -1,4C-6.026,6.937 -11.35,8.985 -16.765,11.094C-30.183,16.338 -42.256,22.256 -53,32L-55,32L-55,34C-56.617,35.342 -58.236,36.682 -59.863,38.012C-63.275,41.186 -65.982,44.901 -68.789,48.609C-71.131,51.142 -72.684,52.137 -76,53C-78.312,52.125 -78.312,52.125 -80,51C-73.161,31.68 -51.165,18.15 -33.625,9.625C-23.579,4.9 -11.341,-0.665 0,0Z" style="fill:rgb(9,11,9);fill-rule:nonzero;"/>
        </g>
        <g transform="matrix(1,0,0,1,288,584)">
            <path d="M0,0C2.219,1.992 2.219,1.992 4.5,4.875C4.917,5.397 5.335,5.92 5.764,6.458C11.26,13.434 16.405,20.693 21.534,27.941C22.499,29.297 23.475,30.645 24.462,31.985C27.179,35.685 29,38.295 29,43C28,44.938 28,44.938 26,46C21.91,45.847 19.703,45.638 16.629,42.848C15.947,41.929 15.265,41.009 14.562,40.062C13.798,39.061 13.034,38.059 12.246,37.027C11.505,36.028 10.764,35.029 10,34C8.716,32.369 7.425,30.744 6.125,29.125C5.484,28.321 4.844,27.516 4.184,26.688C1.104,22.897 -2.058,19.177 -5.232,15.465C-7.584,12.708 -9.868,9.932 -12,7L-10,7C-9.918,6.402 -9.835,5.804 -9.75,5.188C-8.145,0.505 -4.642,-0.673 0,0Z" style="fill:rgb(6,8,6);fill-rule:nonzero;"/>
        </g>
        <g transform="matrix(1,0,0,1,739.1875,583.9375)">
            <path d="M0,0C1.887,0.031 1.887,0.031 3.812,0.062C5.168,7.333 5.168,7.333 3.645,10.461C1.532,13.461 -0.779,16.238 -3.188,19C-8.225,24.859 -13.033,30.871 -17.777,36.969C-18.573,37.99 -19.368,39.011 -20.188,40.062C-20.885,40.994 -21.582,41.926 -22.301,42.887C-24.66,45.607 -26.744,46.202 -30.188,47.062C-32.25,45.375 -32.25,45.375 -34.188,43.062C-33.427,33.984 -25.466,25.964 -20.037,19.067C-16.12,14.068 -12.592,8.849 -9.098,3.547C-6.427,0.073 -4.143,-0.068 0,0Z" style="fill:rgb(7,8,6);fill-rule:nonzero;"/>
        </g>
        <g transform="matrix(1,0,0,1,381,537)">
            <path d="M0,0C4.815,5.55 7.533,13.185 10.5,19.812C10.96,20.829 11.42,21.845 11.895,22.893C12.813,24.922 13.728,26.954 14.638,28.987C15.558,31.022 16.493,33.049 17.444,35.07C18.125,36.524 18.125,36.524 18.82,38.008C19.23,38.872 19.64,39.735 20.063,40.625C21.399,44.011 21.458,46.409 21,50C20.67,50.66 20.34,51.32 20,52C17.25,52.312 17.25,52.312 14,52C10.162,48.02 7.782,43.174 5.25,38.312C4.839,37.541 4.428,36.769 4.004,35.975C1,30.261 1,30.261 1,28C0.34,27.67 -0.32,27.34 -1,27C-2.788,24.079 -4.203,20.959 -5.688,17.875C-6.116,17.032 -6.545,16.189 -6.986,15.32C-9.549,10.004 -10.537,6.757 -9,1C-5.531,-0.156 -3.622,-0.652 0,0Z" style="fill:rgb(6,8,6);fill-rule:nonzero;"/>
        </g>
        <g transform="matrix(1,0,0,1,648.75,537)">
            <path d="M0,0C2.25,2 2.25,2 3.191,4.453C3.282,9.914 0.869,13.947 -1.562,18.75C-2.31,20.264 -2.31,20.264 -3.073,21.808C-6.332,28.346 -9.697,34.832 -13.188,41.25C-13.588,41.993 -13.988,42.737 -14.4,43.503C-18.077,50.087 -18.077,50.087 -21.75,52C-24.438,51.438 -24.438,51.438 -26.75,50C-27.889,47.414 -27.789,46.141 -27.035,43.398C-23.165,33.829 -19.053,24.383 -14.75,15C-14.432,14.295 -14.114,13.589 -13.787,12.863C-12.897,10.899 -11.984,8.949 -11.062,7C-10.543,5.886 -10.024,4.772 -9.488,3.625C-6.91,-0.269 -4.471,-1.626 0,0Z" style="fill:rgb(7,9,7);fill-rule:nonzero;"/>
        </g>
        <g transform="matrix(1,0,0,1,802.5625,642.5)">
            <path d="M0,0C3.259,0.668 4.414,1.899 6.438,4.5C7.438,6.375 7.438,6.375 7.438,8.5C4.935,13.744 0.974,16.656 -3.57,20.148C-7.692,23.387 -11.626,26.83 -15.564,30.288C-21.247,35.224 -25.798,38.879 -33.562,39.5C-35.562,36.5 -35.562,36.5 -35.379,34.055C-33.278,27.48 -26.881,22.766 -21.754,18.441C-18.204,15.296 -14.952,11.857 -11.664,8.441C-9.562,6.5 -9.562,6.5 -7.562,6.5L-7.562,4.5C-5.109,2.117 -3.39,0.662 0,0Z" style="fill:rgb(6,8,5);fill-rule:nonzero;"/>
        </g>
        <g transform="matrix(1,0,0,1,740,882)">
            <path d="M0,0C2.472,1.79 4.529,3.922 6.641,6.117C7.249,6.73 7.857,7.343 8.484,7.975C10.418,9.93 12.334,11.902 14.25,13.875C15.554,15.195 16.858,16.514 18.164,17.832C27.604,27.407 27.604,27.407 30,31C29.812,34.062 29.812,34.062 29,37C25.43,39.38 24.207,39.677 20,39C17.455,37.187 15.419,34.984 13.312,32.688C12.461,31.795 12.461,31.795 11.592,30.885C10.534,29.775 9.482,28.658 8.439,27.534C6.99,25.989 5.498,24.496 4,23C2.26,21.062 0.554,19.096 -1.152,17.129C-2.345,15.755 -3.545,14.387 -4.754,13.027C-5.289,12.42 -5.824,11.813 -6.375,11.188C-6.857,10.645 -7.339,10.102 -7.836,9.543C-9,8 -9,8 -10,5C-9.188,2.375 -9.188,2.375 -8,0C-4.939,-1.531 -3.27,-0.939 0,0Z" style="fill:rgb(8,10,7);fill-rule:nonzero;"/>
        </g>
        <g transform="matrix(1,0,0,1,656,927)">
            <path d="M0,0C2.508,3.663 4.526,7.632 6.643,11.532C8.215,14.391 9.832,17.224 11.449,20.059C12.655,22.205 13.859,24.352 15.062,26.5C15.659,27.538 16.256,28.577 16.871,29.647C17.42,30.64 17.969,31.633 18.535,32.656C19.034,33.541 19.533,34.426 20.047,35.338C21.242,38.677 21.017,40.626 20,44C17,46 17,46 13.551,45.984C10,45 10,45 7.918,42.578C7.347,41.48 6.776,40.382 6.188,39.25C5.868,38.65 5.549,38.051 5.22,37.433C0.833,29.043 -3.126,20.413 -7.095,11.819C-7.866,10.028 -7.866,10.028 -9,9C-9.263,4.968 -9.294,3.441 -7,0C-4.021,-1.153 -3.134,-1.045 0,0Z" style="fill:rgb(7,9,6);fill-rule:nonzero;"/>
        </g>
        <g transform="matrix(1,0,0,1,289,880)">
            <path d="M0,0C1.562,1.625 1.562,1.625 3,4C2.404,14.245 -7.716,21.895 -14.641,28.637C-17.42,31.42 -19.945,34.36 -22.43,37.406C-24.172,39.175 -25.7,40.085 -28,41C-30.467,40.776 -31.738,40.187 -33.75,38.75C-35.485,36.321 -35.344,34.945 -35,32C-33.453,29.781 -33.453,29.781 -31.25,27.5C-30.43,26.636 -29.61,25.773 -28.766,24.883C-27.397,23.456 -27.397,23.456 -26,22C-25.012,20.917 -24.028,19.831 -23.047,18.742C-6.968,0.921 -6.968,0.921 0,0Z" style="fill:rgb(7,8,6);fill-rule:nonzero;"/>
        </g>
        <g transform="matrix(1,0,0,1,223.011719,644.238281)">
            <path d="M0,0C3.429,1.314 5.516,3.944 7.969,6.598C9.805,8.565 11.681,10.282 13.738,12.012C17.404,15.181 20.903,18.497 24.363,21.887C24.888,22.39 25.412,22.893 25.952,23.411C28.87,26.302 30.942,28.748 31.988,32.762C31.113,35.074 31.113,35.074 29.988,36.762C26.909,37.314 24.755,37.224 22.043,35.59C19.625,33.716 17.304,31.761 14.988,29.762C13.915,28.848 12.841,27.935 11.766,27.023C10.066,25.582 8.367,24.14 6.67,22.695C0.51,16.713 0.51,16.713 -7.012,13.762C-8.472,11.114 -9.012,9.867 -9.012,6.762C-9.672,6.432 -10.332,6.102 -11.012,5.762C-5.861,-0.934 -5.861,-0.934 0,0Z" style="fill:rgb(6,8,6);fill-rule:nonzero;"/>
        </g>
        <g transform="matrix(1,0,0,1,376,928)">
            <path d="M0,0C1.55,4.403 0.781,7.074 -1.062,11.16C-2.025,13.136 -3.005,15.103 -4,17.062C-4.505,18.084 -5.011,19.106 -5.531,20.159C-7.002,23.116 -8.496,26.06 -10,29C-10.576,30.134 -10.576,30.134 -11.164,31.291C-17.013,42.735 -17.013,42.735 -20,45C-23.562,44.875 -23.562,44.875 -27,44C-29,41 -29,41 -28.84,37.707C-27.947,33.767 -26.653,31.132 -24.562,27.688C-23.838,26.478 -23.115,25.267 -22.395,24.055C-22.009,23.41 -21.623,22.765 -21.225,22.101C-19.897,19.823 -18.637,17.516 -17.387,15.195C-16.948,14.385 -16.51,13.574 -16.058,12.74C-15.2,11.148 -14.348,9.552 -13.502,7.954C-9.989,1.496 -7.852,-1.963 0,0Z" style="fill:rgb(6,8,6);fill-rule:nonzero;"/>
        </g>
        <g transform="matrix(1,0,0,1,636,657)">
            <path d="M0,0L0,3C-2.504,4.252 -4.85,4.307 -7.608,4.543C-31.733,6.687 -54.205,15.608 -75.172,27.504C-79.463,29.774 -79.463,29.774 -82,30C-82.99,29.34 -83.98,28.68 -85,28C-81.154,18.468 -66.073,14.021 -57.27,10.211C-16.176,-7.189 -16.176,-7.189 0,0Z" style="fill:rgb(10,13,10);fill-rule:nonzero;"/>
        </g>
        <g transform="matrix(1,0,0,1,452,543)">
            <path d="M0,0C2.151,1.306 2.815,2.424 3.578,4.801C4.022,6.985 4.212,8.779 4,11C1.609,14.478 0.119,15.744 -4,16.688C-7.43,15.901 -9.062,14.626 -11.152,11.789C-12.651,8.625 -11.978,6.241 -11,3C-8.019,-1.065 -4.649,-1.395 0,0Z" style="fill:rgb(9,12,8);fill-rule:nonzero;"/>
        </g>
        <g transform="matrix(1,0,0,1,579,544)">
            <path d="M0,0C2.864,2.864 2.865,5.01 3,9C1.5,11.875 1.5,11.875 -1,14C-4.5,15.062 -4.5,15.062 -8,15C-11.313,12.908 -11.906,11.323 -13,7.562C-13,4 -13,4 -11.25,1.125C-7.2,-2.7 -4.882,-1.973 0,0Z" style="fill:rgb(9,12,8);fill-rule:nonzero;"/>
        </g>
        <g transform="matrix(1,0,0,1,439.625,964)">
            <path d="M0,0C3.013,1.268 4.471,2.32 6.375,5C6.938,8.94 6.979,11.058 4.812,14.438C1.433,16.604 -0.685,16.563 -4.625,16C-7.062,14.5 -7.062,14.5 -8.625,12C-9.292,9.168 -9.391,6.818 -8.625,4C-5.745,1.254 -4.023,0 0,0Z" style="fill:rgb(9,11,8);fill-rule:nonzero;"/>
        </g>
        <g transform="matrix(1,0,0,1,587,965)">
            <path d="M0,0C1.938,1.125 1.938,1.125 3,3C3.562,6.375 3.562,6.375 3,10C0.375,13 0.375,13 -3,15C-6.334,15 -8.116,14.64 -10.812,12.688C-12.224,10.682 -12.784,9.453 -13,7C-12.222,4.101 -11.32,2.355 -9.312,0.125C-5.899,-1.536 -3.612,-0.92 0,0Z" style="fill:rgb(9,11,8);fill-rule:nonzero;"/>
        </g>
        <g transform="matrix(1,0,0,1,351,583)">
            <path d="M0,0C0.99,0.33 1.98,0.66 3,1C4.349,7.253 4.349,7.253 2.688,10.812C-0.492,14.934 -0.492,14.934 -3.875,15.375C-7,15 -7,15 -9.312,13.312C-11.227,10.689 -11.921,9.248 -12,6C-9.055,-0.17 -6.595,-0.231 0,0Z" style="fill:rgb(8,10,7);fill-rule:nonzero;"/>
        </g>
        <g transform="matrix(1,0,0,1,322,918)">
            <path d="M0,0C2.438,1.625 2.438,1.625 4,4C4.562,6.938 4.562,6.938 4,10C1.938,12.938 1.938,12.938 -1,15C-4.544,15 -6.866,14.659 -9.938,12.875C-11.671,9.815 -11.421,7.432 -11,4C-8.112,-0.505 -5.118,-0.731 0,0Z" style="fill:rgb(8,10,7);fill-rule:nonzero;"/>
        </g>
        <g transform="matrix(1,0,0,1,709,918)">
            <path d="M0,0C2.51,2.834 3.013,4.335 2.938,8.125C2,11 2,11 0.375,12.938C-3.113,14.498 -5.364,13.992 -9,13C-11,11.375 -11,11.375 -12,9C-12,5.438 -12,5.438 -11,2C-7.392,-1.298 -4.574,-1.591 0,0Z" style="fill:rgb(11,13,10);fill-rule:nonzero;"/>
        </g>
        <g transform="matrix(1,0,0,1,754.5625,635.25)">
            <path d="M0,0C3.438,0.75 3.438,0.75 6,3.375C7.438,6.75 7.438,6.75 7,9.938C5.181,13.212 3.895,14.35 0.438,15.75C-2.907,15.547 -5.136,14.003 -7.562,11.75L-7.562,8.75L-9.562,8.75C-7.163,3.951 -5.257,1.107 0,0Z" style="fill:rgb(10,13,9);fill-rule:nonzero;"/>
        </g>
        <g transform="matrix(1,0,0,1,671,582)">
            <path d="M0,0C2.373,1.796 3.646,3.269 4.938,5.938C5.03,8.977 3.758,10.591 2,13C-1.05,14.525 -3.642,14.236 -7,14C-9.422,12.466 -9.887,11.306 -10.875,8.625C-11.038,5.209 -10.025,3.7 -8,1C-5.159,-0.42 -3.145,-0.315 0,0Z" style="fill:rgb(6,8,6);fill-rule:nonzero;"/>
        </g>
        <g transform="matrix(1,0,0,1,826.125,696.0625)">
            <path d="M0,0C4.302,1.403 4.302,1.403 5.875,3.938C6.375,6.812 6.375,6.812 5.875,9.938C3.75,12.875 3.75,12.875 0.875,14.938C-2.359,14.938 -4.239,14.469 -7,12.812C-8.848,9.732 -8.616,7.433 -8.125,3.938C-5.45,0.791 -4.156,-0.083 0,0Z" style="fill:rgb(11,13,10);fill-rule:nonzero;"/>
        </g>
        <g transform="matrix(1,0,0,1,275.6875,641.5)">
            <path d="M0,0C3.312,1.5 3.312,1.5 4.812,3.312C5.46,6.146 5.275,7.75 4.312,10.5C2.688,12.812 2.688,12.812 0.312,14.5C-3.438,14.75 -3.438,14.75 -6.688,14.5C-9.025,10.847 -9.221,7.764 -8.688,3.5C-5.785,-0.106 -4.621,-0.627 0,0Z" style="fill:rgb(9,11,8);fill-rule:nonzero;"/>
        </g>
        <g transform="matrix(1,0,0,1,794.0625,849.375)">
            <path d="M0,0C2.938,0.625 2.938,0.625 5.438,2.688C6.938,5.625 6.938,5.625 6.375,9.312C4.938,12.625 4.938,12.625 1.938,14.625C-4.515,14.172 -4.515,14.172 -7.062,11.625C-8,8.812 -8,8.812 -8.062,5.625C-5.625,2.227 -4.123,0.841 0,0Z" style="fill:rgb(10,13,9);fill-rule:nonzero;"/>
        </g>
        <g transform="matrix(1,0,0,1,229.5625,850.6875)">
            <path d="M0,0C2.438,1.312 2.438,1.312 3.812,3.062C4.66,6.114 4.231,8.272 3.438,11.312C1.007,13.743 -0.161,14.075 -3.562,14.312C-6.312,13.312 -6.312,13.312 -8.562,11.312C-9.625,7.875 -9.625,7.875 -9.562,4.312C-6.954,0.773 -4.491,-1.205 0,0Z" style="fill:rgb(10,13,9);fill-rule:nonzero;"/>
        </g>
        <g transform="matrix(1,0,0,1,199,698)">
            <path d="M0,0C2.12,1.413 2.781,2.577 3.938,4.812C4.044,8.544 2.443,10.312 0,13C-3.543,13.559 -5.757,13.682 -8.938,11.938C-10.614,8.88 -10.365,6.409 -10,3C-7.778,-1.052 -4.201,-0.45 0,0Z" style="fill:rgb(11,14,10);fill-rule:nonzero;"/>
        </g>
        <g transform="matrix(1,0,0,1,359,829)">
            <path d="M0,0C2.313,3.469 2.425,4.922 2,9C0.875,10.875 0.875,10.875 -1,12C-4.095,12.253 -6.201,12.399 -9,11C-9.773,7.584 -10.317,5.005 -9.25,1.625C-6.676,-1.722 -3.644,-1.121 0,0Z" style="fill:rgb(10,12,9);fill-rule:nonzero;"/>
        </g>
        <g transform="matrix(1,0,0,1,265,770)">
            <path d="M0,0C1.938,1.625 1.938,1.625 3,4C2.759,7.017 2.354,9.293 1,12C-5.625,12.25 -5.625,12.25 -9,10C-9.979,7.139 -10.221,5.613 -9.188,2.75C-6.843,-0.706 -3.897,-0.398 0,0Z" style="fill:rgb(8,10,8);fill-rule:nonzero;"/>
        </g>
        <g transform="matrix(1,0,0,1,304.5,794.375)">
            <path d="M0,0C2.5,0.625 2.5,0.625 4.938,2.75C6.5,5.625 6.5,5.625 6.062,8.812C4.5,11.625 4.5,11.625 2.188,13.188C-0.5,13.625 -0.5,13.625 -3.25,12.562C-5.5,10.625 -5.5,10.625 -6.562,8.25C-6.5,5.625 -6.5,5.625 -4.875,2.812C-2.5,0.625 -2.5,0.625 0,0Z" style="fill:rgb(10,12,9);fill-rule:nonzero;"/>
        </g>
        <g transform="matrix(1,0,0,1,602,765)">
            <path d="M0,0C4.75,1.875 4.75,1.875 7,3C7.327,6.6 7.404,8.416 5.312,11.438C3,13 3,13 0.438,12.875C-2,12 -2,12 -5,10C-5.5,7.125 -5.5,7.125 -5,4C-2.5,1.625 -2.5,1.625 0,0Z" style="fill:rgb(10,12,10);fill-rule:nonzero;"/>
        </g>
        <g transform="matrix(1,0,0,1,330.625,710.125)">
            <path d="M0,0C2.375,0.875 2.375,0.875 4.375,3.875C4.812,6.875 4.812,6.875 4.375,9.875C2.188,11.875 2.188,11.875 -0.625,12.875C-4.478,11.979 -5.393,11.223 -7.625,7.875C-7.468,4.73 -7.035,3.314 -4.875,1C-2.625,-0.125 -2.625,-0.125 0,0Z" style="fill:rgb(9,11,8);fill-rule:nonzero;"/>
        </g>
        <g transform="matrix(1,0,0,1,659.5625,723.0625)">
            <path d="M0,0C2.97,1.142 3.987,2.117 5.438,4.938C5.286,7.442 4.639,8.656 3.188,10.688C0.777,12.409 -0.663,12.372 -3.562,11.938C-5.375,10.812 -5.375,10.812 -6.562,8.938C-7,5.938 -7,5.938 -6.562,2.938C-4.388,0.441 -3.315,-0.081 0,0Z" style="fill:rgb(11,14,11);fill-rule:nonzero;"/>
        </g>
        <g transform="matrix(1,0,0,1,556,657)">
            <path d="M0,0C1.938,1.688 1.938,1.688 3,4C2.923,7.175 2.399,8.542 0.312,10.938C-2,12 -2,12 -5.25,11.188C-6.611,10.6 -6.611,10.6 -8,10C-9.329,3.599 -9.329,3.599 -7.938,1.062C-5.101,-0.493 -3.177,-0.463 0,0Z" style="fill:rgb(11,14,11);fill-rule:nonzero;"/>
        </g>
        <g transform="matrix(1,0,0,1,389.625,724.125)">
            <path d="M0,0C2.375,0.875 2.375,0.875 4.375,2.875C4.708,6.005 4.852,8.054 3.25,10.812C0.419,12.417 -1.561,11.657 -4.625,10.875C-5.285,10.545 -5.945,10.215 -6.625,9.875C-6.952,6.275 -7.029,4.459 -4.938,1.438C-2.625,-0.125 -2.625,-0.125 0,0Z" style="fill:rgb(11,13,10);fill-rule:nonzero;"/>
        </g>
        <g transform="matrix(1,0,0,1,415.5625,805.25)">
            <path d="M0,0C2.438,0.75 2.438,0.75 4.438,2.75C4.812,5.688 4.812,5.688 4.438,8.75C2.75,10.688 2.75,10.688 0.438,11.75C-2.188,11.625 -2.188,11.625 -4.562,10.75C-6.562,7.75 -6.562,7.75 -6.375,4.688C-5.321,0.877 -4.041,-0.394 0,0Z" style="fill:rgb(11,14,11);fill-rule:nonzero;"/>
        </g>
        <g transform="matrix(1,0,0,1,609,861)">
            <path d="M0,0C0.66,0.66 1.32,1.32 2,2C1.75,5.562 1.75,5.562 1,9C-1.789,10.394 -3.921,10.257 -7,10C-9.148,6.779 -9.561,5.74 -9,2C-6.076,-1.249 -4.05,-1.386 0,0Z" style="fill:rgb(9,11,8);fill-rule:nonzero;"/>
        </g>
        <g transform="matrix(1,0,0,1,362.5625,675.125)">
            <path d="M0,0C2.438,0.875 2.438,0.875 4.438,3.875C4.25,6.938 4.25,6.938 3.438,9.875C0.438,11.875 0.438,11.875 -2.188,11.562C-4.562,10.875 -4.562,10.875 -5.562,9.875C-6.024,3.651 -6.024,3.651 -4.375,0.875C-2.562,-0.125 -2.562,-0.125 0,0Z" style="fill:rgb(11,13,10);fill-rule:nonzero;"/>
        </g>
        <g transform="matrix(1,0,0,1,736,793)">
            <path d="M0,0C2.375,0.312 2.375,0.312 5,1C7,4 7,4 6.875,7.062C6,10 6,10 4.188,11.5C2,12 2,12 -0.125,11.438C-2.526,9.597 -3.102,7.844 -4,5C-2.68,3.35 -1.36,1.7 0,0Z" style="fill:rgb(12,14,11);fill-rule:nonzero;"/>
        </g>
        <g transform="matrix(1,0,0,1,765,777)">
            <path d="M0,0C1,3 1,3 0.438,5.625C-1,8 -1,8 -4.125,8.812C-5.548,8.905 -5.548,8.905 -7,9C-10.077,4.692 -10.077,4.692 -9.688,1.188C-9.461,0.466 -9.234,-0.256 -9,-1C-5.199,-2.267 -3.615,-1.572 0,0Z" style="fill:rgb(12,16,12);fill-rule:nonzero;"/>
        </g>
        <g transform="matrix(1,0,0,1,467,636)">
            <path d="M0,0C2,3 2,3 1.75,5.062C1,7 1,7 -1,9C-4,9.312 -4,9.312 -7,9C-9,6 -9,6 -8.875,3.438C-8,1 -8,1 -6.188,-0.375C-3.621,-1.108 -2.441,-1.058 0,0Z" style="fill:rgb(13,16,12);fill-rule:nonzero;"/>
        </g>
        <g transform="matrix(1,0,0,1,430.625,849.875)">
            <path d="M0,0C0.784,0.041 1.567,0.083 2.375,0.125C4.5,4.75 4.5,4.75 3.375,8.125C0.5,8.75 0.5,8.75 -2.625,9.125C-4.625,7.125 -4.625,7.125 -4.875,4.625C-4.516,1.04 -3.595,0.171 0,0Z" style="fill:rgb(15,19,14);fill-rule:nonzero;"/>
        </g>
        <g transform="matrix(1,0,0,1,577,648)">
            <path d="M0,0C3.875,0.875 3.875,0.875 5,2C5.25,4.375 5.25,4.375 5,7C3.5,8.812 3.5,8.812 2,10C0.68,9.34 -0.64,8.68 -2,8L-2,6C-2.66,5.67 -3.32,5.34 -4,5C-2.68,3.35 -1.36,1.7 0,0Z" style="fill:rgb(14,18,14);fill-rule:nonzero;"/>
        </g>
        <g transform="matrix(1,0,0,1,575,869)">
            <path d="M0,0C1.675,0.286 3.344,0.618 5,1C4.67,2.98 4.34,4.96 4,7C3.01,7.33 2.02,7.66 1,8C0.01,7.34 -0.98,6.68 -2,6C-1.125,1.125 -1.125,1.125 0,0Z" style="fill:rgb(15,19,14);fill-rule:nonzero;"/>
        </g>
        <g transform="matrix(1,0,0,1,346,697)">
            <path d="M0,0C2.062,0.438 2.062,0.438 4,1C4.382,2.656 4.714,4.325 5,6C4,7 4,7 0.938,7.062C-0.517,7.032 -0.517,7.032 -2,7C-1.125,1.125 -1.125,1.125 0,0Z" style="fill:rgb(18,21,17);fill-rule:nonzero;"/>
        </g>
        <g transform="matrix(1,0,0,1,414,840)">
            <path d="M0,0C0.66,0.33 1.32,0.66 2,1C-2.62,5.62 -7.24,10.24 -12,15C-12.66,14.67 -13.32,14.34 -14,14C-12.384,11.959 -10.714,9.959 -9,8L-7,8C-6.67,7.01 -6.34,6.02 -6,5C-4.124,3.155 -2.073,1.632 0,0Z" style="fill:rgb(22,25,20);fill-rule:nonzero;"/>
        </g>
        <g transform="matrix(1,0,0,1,783,768)">
            <path d="M0,0C1.32,0.66 2.64,1.32 4,2C3.34,3.65 2.68,5.3 2,7C0.35,6.67 -1.3,6.34 -3,6C-1.125,1.125 -1.125,1.125 0,0Z" style="fill:rgb(24,30,21);fill-rule:nonzero;"/>
        </g>
        <g transform="matrix(1,0,0,1,438,802)">
            <path d="M0,0C1.65,0.33 3.3,0.66 5,1C4.688,2.938 4.688,2.938 4,5C3.01,5.33 2.02,5.66 1,6C0.01,5.34 -0.98,4.68 -2,4C-1.34,2.68 -0.68,1.36 0,0Z" style="fill:rgb(22,27,21);fill-rule:nonzero;"/>
        </g>
        <g transform="matrix(1,0,0,1,344,781)">
            <path d="M0,0C0.66,0.33 1.32,0.66 2,1C-2.29,5.29 -6.58,9.58 -11,14C-11,9.408 -8.093,7.187 -5,4C-3.372,2.62 -1.72,1.264 0,0Z" style="fill:rgb(19,24,19);fill-rule:nonzero;"/>
        </g>
        <g transform="matrix(1,0,0,1,398,667)">
            <path d="M0,0C0.66,0.33 1.32,0.66 2,1C-2.29,5.29 -6.58,9.58 -11,14C-11,10.096 -9.782,9.275 -7.188,6.438C-6.48,5.652 -5.772,4.867 -5.043,4.059C-3,2 -3,2 0,0Z" style="fill:rgb(19,23,18);fill-rule:nonzero;"/>
        </g>
        <g transform="matrix(1,0,0,1,455,749)">
            <path d="M0,0L1,0L1,19L-1,19C-1.33,16.36 -1.66,13.72 -2,11L-1,11C-0.67,7.37 -0.34,3.74 0,0Z" style="fill:rgb(30,35,30);fill-rule:nonzero;"/>
        </g>
        <g transform="matrix(1,0,0,1,478,708)">
            <path d="M0,0C0.66,0.33 1.32,0.66 2,1C-1.96,4.96 -5.92,8.92 -10,13C-10,10 -10,10 -8.562,8.5C-8.047,8.005 -7.531,7.51 -7,7C-6.67,6.01 -6.34,5.02 -6,4C-3.5,2.375 -3.5,2.375 -1,1C-0.67,0.67 -0.34,0.34 0,0Z" style="fill:rgb(19,22,18);fill-rule:nonzero;"/>
        </g>
        <g transform="matrix(1,0,0,1,257,702)">
            <path d="M0,0C0.66,0.33 1.32,0.66 2,1C0.68,2.32 -0.64,3.64 -2,5C-1.34,5.66 -0.68,6.32 0,7C-1.98,7.99 -3.96,8.98 -6,10C-6.33,8.68 -6.66,7.36 -7,6C-4.69,4.02 -2.38,2.04 0,0Z" style="fill:rgb(24,29,21);fill-rule:nonzero;"/>
        </g>
        <g transform="matrix(1,0,0,1,706,749)">
            <path d="M0,0C0.66,0.33 1.32,0.66 2,1C-1.96,4.96 -5.92,8.92 -10,13C-10,10 -10,10 -7.812,7.625C-6.884,6.759 -5.956,5.893 -5,5C-4.072,4.072 -1.105,1.105 0,0Z" style="fill:rgb(21,24,19);fill-rule:nonzero;"/>
        </g>
        <g transform="matrix(1,0,0,1,383,790)">
            <path d="M0,0C0.66,0.33 1.32,0.66 2,1C-1.3,4.3 -4.6,7.6 -8,11C-8,6.678 -5.851,5.116 -3,2C-2.01,1.34 -1.02,0.68 0,0Z" style="fill:rgb(21,25,20);fill-rule:nonzero;"/>
        </g>
        <g transform="matrix(1,0,0,1,726,770)">
            <path d="M0,0C0.66,0.33 1.32,0.66 2,1C-1.3,4.3 -4.6,7.6 -8,11C-8.66,10.67 -9.32,10.34 -10,10C-7.029,6.001 -3.871,3.079 0,0Z" style="fill:rgb(18,22,17);fill-rule:nonzero;"/>
        </g>
        <g transform="matrix(1,0,0,1,421,681)">
            <path d="M0,0C0.66,0.33 1.32,0.66 2,1C-0.97,3.97 -3.94,6.94 -7,10C-7,5.69 -4.833,4.103 -2,1C-1.34,0.67 -0.68,0.34 0,0Z" style="fill:rgb(19,23,19);fill-rule:nonzero;"/>
        </g>
        <g transform="matrix(1,0,0,1,572,804)">
            <path d="M0,0C0.562,0.317 1.124,0.634 1.703,0.961C4.152,2.069 6.084,2.39 8.75,2.625C9.549,2.7 10.348,2.775 11.172,2.852C11.775,2.901 12.378,2.95 13,3L13,4C11.232,4.249 9.46,4.474 7.688,4.688C6.701,4.815 5.715,4.943 4.699,5.074C2,5 2,5 0.145,3.52C-0.422,2.767 -0.422,2.767 -1,2C-0.67,1.34 -0.34,0.68 0,0Z" style="fill:rgb(29,35,28);fill-rule:nonzero;"/>
        </g>
        <g transform="matrix(1,0,0,1,601,718)">
            <path d="M0,0C2.463,1.231 3.425,2.781 5,5L-2,5C-1.125,1.125 -1.125,1.125 0,0Z" style="fill:rgb(19,25,19);fill-rule:nonzero;"/>
        </g>
        <g transform="matrix(1,0,0,1,572,700)">
            <path d="M0,0C0.66,0.33 1.32,0.66 2,1C1.67,1.99 1.34,2.98 1,4L10,4L10,5C6.7,5.33 3.4,5.66 0,6C-1,2 -1,2 0,0Z" style="fill:rgb(26,31,25);fill-rule:nonzero;"/>
        </g>
        <g transform="matrix(1,0,0,1,557,678)">
            <path d="M0,0C0.66,0.33 1.32,0.66 2,1C-1.613,5.688 -1.613,5.688 -3,7L-6,7C-4.607,3.633 -3.021,2.014 0,0Z" style="fill:rgb(24,29,23);fill-rule:nonzero;"/>
        </g>
        <g transform="matrix(1,0,0,1,223,644)">
            <path d="M0,0C-0.557,0.227 -1.114,0.454 -1.688,0.688C-4.632,2.359 -6.682,4.553 -9,7C-9.66,6.67 -10.32,6.34 -11,6C-7.348,1.252 -6.011,-0.158 0,0Z" style="fill:rgb(32,40,28);fill-rule:nonzero;"/>
        </g>
        <g transform="matrix(1,0,0,1,351,583)">
            <path d="M0,0L0,1C-1.073,1.289 -2.145,1.577 -3.25,1.875C-6.094,2.728 -8.435,3.564 -11,5C-8.455,-0.635 -5.972,-0.111 0,0Z" style="fill:rgb(21,27,19);fill-rule:nonzero;"/>
        </g>
        <g transform="matrix(1,0,0,1,604,860)">
            <path d="M0,0C0.99,0.33 1.98,0.66 3,1C2.216,1.598 1.433,2.196 0.625,2.812C-2.146,4.911 -2.146,4.911 -4,8C-4.25,5.688 -4.25,5.688 -4,3C-2.188,1.125 -2.188,1.125 0,0Z" style="fill:rgb(31,37,30);fill-rule:nonzero;"/>
        </g>
        <g transform="matrix(1,0,0,1,663,583)">
            <path d="M0,0L2,0C1.691,0.536 1.381,1.073 1.062,1.625C-0.178,4.398 -0.591,7 -1,10C-1.66,9.01 -2.32,8.02 -3,7C-1.595,1.595 -1.595,1.595 0,0Z" style="fill:rgb(25,31,22);fill-rule:nonzero;"/>
        </g>
        <g transform="matrix(1,0,0,1,593,658)">
            <path d="M0,0C0.66,0.66 1.32,1.32 2,2C1.01,1.67 0.02,1.34 -1,1C-0.67,0.67 -0.34,0.34 0,0Z" style="fill:rgb(27,34,24);fill-rule:nonzero;"/>
        </g>
        <g transform="matrix(1,0,0,1,534,640)">
            <path d="M0,0C0.99,0.33 1.98,0.66 3,1L0,1L0,0Z" style="fill:rgb(27,35,26);fill-rule:nonzero;"/>
        </g>
        <g transform="matrix(1,0,0,1,329,890)">
            <path d="M0,0C0.66,0.66 1.32,1.32 2,2L0,2L0,0Z" style="fill:rgb(27,34,26);fill-rule:nonzero;"/>
        </g>
        <g transform="matrix(1,0,0,1,478,819)">
            <path d="M0,0L2,0C1.67,0.66 1.34,1.32 1,2C0.67,1.34 0.34,0.68 0,0Z" style="fill:rgb(25,31,24);fill-rule:nonzero;"/>
        </g>
        <g transform="matrix(1,0,0,1,776,656)">
            <path d="M0,0L2,0C1.67,0.66 1.34,1.32 1,2C0.67,1.34 0.34,0.68 0,0Z" style="fill:rgb(36,44,32);fill-rule:nonzero;"/>
        </g>
        <g transform="matrix(1,0,0,1,428,973)">
            <path d="M0,0L2,1L0,0Z" style="fill:rgb(44,56,38);fill-rule:nonzero;"/>
        </g>
        <g transform="matrix(1,0,0,1,528,928)">
            <path d="M0,0L2,1L0,0Z" style="fill:rgb(24,29,23);fill-rule:nonzero;"/>
        </g>
        <g transform="matrix(1,0,0,1,509,915)">
            <path d="M0,0L2,1L0,0Z" style="fill:rgb(23,28,21);fill-rule:nonzero;"/>
        </g>
        <g transform="matrix(1,0,0,1,590,835)">
            <path d="M0,0L2,1L0,0Z" style="fill:rgb(26,32,24);fill-rule:nonzero;"/>
        </g>
        <g transform="matrix(1,0,0,1,587,835)">
            <path d="M0,0L2,1L0,0Z" style="fill:rgb(26,32,25);fill-rule:nonzero;"/>
        </g>
        <g transform="matrix(1,0,0,1,709,834)">
            <path d="M0,0L2,1L0,0Z" style="fill:rgb(26,33,23);fill-rule:nonzero;"/>
        </g>
        <g transform="matrix(1,0,0,1,596,834)">
            <path d="M0,0L2,1L0,0Z" style="fill:rgb(25,31,24);fill-rule:nonzero;"/>
        </g>
        <g transform="matrix(1,0,0,1,396,761)">
            <path d="M0,0L2,1L0,0Z" style="fill:rgb(26,31,25);fill-rule:nonzero;"/>
        </g>
        <g transform="matrix(1,0,0,1,306,736)">
            <path d="M0,0L2,1L0,0Z" style="fill:rgb(26,30,21);fill-rule:nonzero;"/>
        </g>
        <g transform="matrix(1,0,0,1,280,736)">
            <path d="M0,0L2,1L0,0Z" style="fill:rgb(28,31,24);fill-rule:nonzero;"/>
        </g>
        <g transform="matrix(1,0,0,1,641,699)">
            <path d="M0,0L2,1L0,0Z" style="fill:rgb(31,38,30);fill-rule:nonzero;"/>
        </g>
        <g transform="matrix(1,0,0,1,279,680)">
            <path d="M0,0L2,1L0,0Z" style="fill:rgb(29,33,26);fill-rule:nonzero;"/>
        </g>
        <g transform="matrix(1,0,0,1,272,680)">
            <path d="M0,0L2,1L0,0Z" style="fill:rgb(29,37,27);fill-rule:nonzero;"/>
        </g>
        <g transform="matrix(1,0,0,1,474,677)">
            <path d="M0,0L2,1L0,0Z" style="fill:rgb(25,29,25);fill-rule:nonzero;"/>
        </g>
        <g transform="matrix(1,0,0,1,217,659)">
            <path d="M0,0L2,1L0,0Z" style="fill:rgb(42,53,36);fill-rule:nonzero;"/>
        </g>
        <g transform="matrix(1,0,0,1,638,656)">
            <path d="M0,0L2,1L0,0Z" style="fill:rgb(29,34,27);fill-rule:nonzero;"/>
        </g>
        <g transform="matrix(1,0,0,1,790,648)">
            <path d="M0,0L2,1L0,0Z" style="fill:rgb(41,52,36);fill-rule:nonzero;"/>
        </g>
        <g transform="matrix(1,0,0,1,352,648)">
            <path d="M0,0L2,1L0,0Z" style="fill:rgb(27,34,25);fill-rule:nonzero;"/>
        </g>
        <g transform="matrix(1,0,0,1,270,640)">
            <path d="M0,0L2,1L0,0Z" style="fill:rgb(37,46,33);fill-rule:nonzero;"/>
        </g>
        <g transform="matrix(1,0,0,1,461,634)">
            <path d="M0,0L2,1L0,0Z" style="fill:rgb(26,33,25);fill-rule:nonzero;"/>
        </g>
        <g transform="matrix(1,0,0,1,510,627)">
            <path d="M0,0L2,1L0,0Z" style="fill:rgb(28,34,25);fill-rule:nonzero;"/>
        </g>
        <g transform="matrix(1,0,0,1,422,624)">
            <path d="M0,0L2,1L0,0Z" style="fill:rgb(26,30,24);fill-rule:nonzero;"/>
        </g>
        <g transform="matrix(1,0,0,1,456,592)">
            <path d="M0,0L2,1L0,0Z" style="fill:rgb(29,33,28);fill-rule:nonzero;"/>
        </g>
        <g transform="matrix(1,0,0,1,505,588)">
            <path d="M0,0L2,1L0,0Z" style="fill:rgb(27,34,24);fill-rule:nonzero;"/>
        </g>
        <g transform="matrix(1,0,0,1,504,568)">
            <path d="M0,0L2,1L0,0Z" style="fill:rgb(32,40,29);fill-rule:nonzero;"/>
        </g>
        <g transform="matrix(1,0,0,1,645,561)">
            <path d="M0,0L2,1L0,0Z" style="fill:rgb(39,46,33);fill-rule:nonzero;"/>
        </g>
        <g transform="matrix(1,0,0,1,576,559)">
            <path d="M0,0L2,1L0,0Z" style="fill:rgb(35,45,31);fill-rule:nonzero;"/>
        </g>
    </g>
</svg>
