<?xml version="1.0" encoding="UTF-8" standalone="no"?>
<!DOCTYPE svg PUBLIC "-//W3C//DTD SVG 1.1//EN" "http://www.w3.org/Graphics/SVG/1.1/DTD/svg11.dtd">
<svg width="100%" height="100%" viewBox="0 0 654 674" version="1.1" xmlns="http://www.w3.org/2000/svg" xmlns:xlink="http://www.w3.org/1999/xlink" xml:space="preserve" xmlns:serif="http://www.serif.com/" style="fill-rule:evenodd;clip-rule:evenodd;stroke-linejoin:round;stroke-miterlimit:2;">
    <g id="Artboard1" transform="matrix(1,0,0,1,-185,-174)">
        <rect x="185" y="174" width="654" height="674" style="fill:none;"/>
        <path d="M699.614,552.541C701.353,544.13 702.588,535.92 702.065,527.894C701.566,520.236 698.853,512.718 697.058,505.151C693.993,492.229 690.483,479.425 687.048,466.597C684.772,458.096 683.806,449.249 683.688,440.405C683.49,425.62 679.845,411.831 672.566,398.941C669.374,393.29 666.591,387.408 663.583,381.651C656.48,368.051 645.537,358.514 632.037,351.571C624.394,347.64 616.014,345.238 608.879,340.27C606.641,338.711 603.691,338.003 602.419,334.712C606.99,332.151 610.792,335.326 613.207,337.317C618.571,341.74 625.001,343.053 631.064,345.322C637.475,347.72 643.864,349.999 649.725,353.614C659.95,359.923 667.289,368.572 672.301,379.524C676.308,388.279 681.56,396.414 685.653,405.179C690.13,414.765 691.887,424.74 692.35,435.136C692.964,448.911 693.513,462.737 696.371,476.25C697.549,481.819 698.554,487.293 698.525,492.96C698.513,495.26 699.594,497.043 700.863,498.867C703.759,503.029 705.841,507.505 705.443,512.795C705.371,513.754 705.338,514.947 705.82,515.682C712.379,525.682 711.998,536.883 710.782,547.912C709.069,563.454 702.007,577.126 694.024,590.304C692.67,592.538 691.323,594.938 688.439,595.739C687.876,595.895 687.207,596.511 687.022,597.061C681.785,612.64 670.776,625.072 663.845,639.781C657.127,654.039 653.138,669.106 648.45,683.986C644.756,695.708 639.477,706.349 631.268,715.737C620.793,727.716 607.377,734.716 592.949,740.106C573.102,747.519 553.117,746.833 533.452,739.33C523.734,735.622 513.833,732.88 503.547,731.693C489.412,730.063 477.012,724.365 465.527,716.301C461.028,713.142 456.502,710.02 452.02,706.838C442.84,700.32 432.391,697.237 421.465,695.34C411.101,693.541 402.188,689.067 393.955,682.279C385.333,675.17 378.854,666.978 375.014,656.562C372.288,649.166 371.037,641.474 370.309,633.692C368.156,610.674 359.895,589.93 347.957,570.285C343.72,563.314 338.217,557.362 334.157,550.271C327.772,539.117 325.62,527.368 327.081,514.837C328.601,501.796 334.277,489.618 335.268,476.449C335.404,474.63 336.145,472.587 335.57,471.03C333.054,464.214 334.792,457.268 334.432,450.401C334.1,444.044 335.514,438.207 338.69,432.738C339.185,431.887 339.689,430.989 339.921,430.047C346.009,405.293 361.383,387.724 382.872,375.102C399.345,365.427 414.622,354.509 427.042,339.68C434.284,331.034 440.863,321.832 448.831,313.756C457.604,304.865 467.177,297.873 480.094,296.679C482.032,296.5 483.883,295.464 485.798,294.907C486.897,294.587 488.534,293.842 489.09,294.302C492.659,297.255 495.515,297.125 498.899,293.72C500.711,291.898 502.038,295.471 504.321,295.775C506.024,292.543 509.117,291.976 512.016,292.063C514.597,292.858 511.721,296.316 515.403,296.232C515.877,293.211 517.52,291.828 521.209,292.44C533.622,294.499 534.684,294.842 535.602,299.403C541.845,296.413 542.494,296.626 544.649,302.763C549.733,299.739 553.629,302.91 557.665,305.417C569.509,312.775 581.687,319.537 594.113,325.856C594.558,326.083 595.031,326.272 595.438,326.554C596.745,327.46 598.867,328.063 597.99,330.197C597.205,332.104 595.291,331.875 593.628,331.392C584.694,328.798 575.517,326.791 567.506,321.767C560.044,317.086 552.76,312.188 544.519,308.823C531.5,303.509 518.568,299.359 504.096,302.693C496.079,304.54 487.63,304.245 479.571,306.517C474.278,308.01 469.16,309.415 464.62,312.88C457.175,318.562 450.206,324.558 444.575,332.164C431.726,349.518 418.361,366.452 398.893,377.07C389.067,382.43 379.524,388.219 371.233,395.76C363.302,402.975 357.441,411.606 352.889,421.49C349.93,427.914 348.386,435.077 343.867,440.792C342.818,442.119 343.111,443.982 342.653,445.391C341.192,449.896 344.395,455.019 340.641,459.121C340.302,459.492 340.321,460.48 340.543,461.034C344.94,472.008 340.177,482.401 338.72,493.042C336.985,505.723 331.603,518.086 335.173,531.282C336.646,536.724 337.247,542.515 339.486,547.602C341.367,551.874 344.856,555.518 347.968,559.154C358.218,571.126 365.683,584.65 371.179,599.364C375.806,611.75 378.038,624.587 379.382,637.685C380.79,651.401 385.511,663.983 395.377,673.857C402.113,680.599 410.942,684.261 420.304,685.6C435.564,687.782 449.785,692.221 462.353,701.457C467.979,705.592 473.798,709.509 479.784,713.1C489.849,719.14 501.172,721.272 512.636,722.354C521.421,723.184 529.38,726.605 537.564,729.305C551.421,733.876 565.331,735.57 579.763,732.24C598.083,728.014 614.249,720.308 626.18,705.209C632.052,697.778 636.437,689.387 638.211,680.242C644.085,649.971 658.363,623.667 675.424,598.585C681.137,590.185 686.497,581.579 691.718,572.868C695.456,566.632 697.624,559.861 699.614,552.541Z" style="fill-rule:nonzero;"/>
        <path d="M733.241,334.707C722.181,318.605 708.601,305.509 691.167,297.587C674.194,289.875 660.45,278.763 648.461,264.774C639.048,253.79 628.933,243.395 616.168,236.09C615.734,235.842 615.202,235.654 614.914,235.284C612.092,231.657 609.957,228.006 603.817,228.554C601.375,228.772 598.286,223.708 595.195,220.894C603.592,220.496 610.772,224.123 618.03,227.389C620.411,228.46 622.565,229.84 621.206,233.988C624.498,230.247 626.921,232.284 629.728,233.948C642.544,241.547 652.175,252.696 662.377,263.155C670.839,271.828 679.946,279.43 691.212,284.105C710.691,292.189 725.609,305.48 738.221,322.325C750.609,338.87 759.807,356.652 764.887,376.566C768.454,390.55 769.137,404.849 767.881,419.191C766.503,434.914 765.565,450.582 765.701,466.432C765.825,480.879 769.876,494.155 772.741,507.924C776.827,527.557 783.057,546.769 785.026,566.819C786.953,586.432 780.218,603.441 768.609,618.859C763.907,625.105 758.447,630.841 752.512,635.665C746.659,640.422 740.812,644.543 737.792,651.856C736.723,654.444 733.839,656.23 732.385,658.914C731.598,660.367 730.254,661.844 728.338,660.88C726.194,659.8 724.532,661.466 722.824,661.642C721.275,660.273 721.805,658.925 722.55,657.858C727.47,650.814 731.741,643.281 738.404,637.56C740.814,635.491 741.945,635.831 742.573,639.311C744.561,636.235 748.457,634.707 746.571,630.195C746.272,629.481 748.077,627.795 749.032,626.662C756.212,618.143 763.685,609.854 769.137,600.023C775.891,587.847 777.028,574.745 775.519,561.246C774.218,549.612 769.693,538.786 766.76,527.56C759.971,501.567 750.489,476.089 751.728,448.565C752.244,437.093 754.255,425.777 755.237,414.34C756.905,394.9 753.246,376.588 746.035,358.803C742.659,350.477 738.689,342.385 733.241,334.707Z" style="fill-rule:nonzero;"/>
        <path d="M342.982,275.073C348.293,268.11 354.223,262.28 361.363,257.839C365.136,255.493 368.02,252.21 370.805,249.001C384.248,233.511 400.701,222.128 418.863,213.044C430.176,207.385 442.298,204.497 454.913,203.981C464.731,203.579 474.514,202.929 484.3,202.024C490.539,201.446 496.734,202.572 502.985,203.386C509.613,204.248 516.768,203.45 523.669,203.951C529.78,204.395 535.864,205.253 541.947,206.024C543.402,206.208 544.98,206.551 545.212,208.484C545.068,208.807 544.951,209.353 544.802,209.362C538.152,209.779 532.228,213.361 525.67,213.904C519.645,214.402 514.07,211.546 508.166,210.652C498.126,209.13 488.392,209.05 478.46,211.242C473.64,212.306 468.53,212.268 463.545,212.337C447.21,212.563 432.22,217.109 417.91,224.958C404.361,232.389 391.912,240.994 381.318,252.351C374.753,259.387 367.015,265.221 359.781,271.556C351.878,278.478 346.211,287.729 343.49,298.055C338.849,315.668 329.12,330.039 316.662,342.855C308.537,351.214 300.586,359.727 294.032,369.402C286.389,380.686 283.288,393.352 284.182,406.814C284.812,416.304 283.189,425.698 280.403,434.26C277.242,443.97 275.537,454.126 271.399,463.569C267.639,472.151 265.749,481.381 265.713,490.76C265.696,495.315 266.644,500.013 267.963,504.403C270.526,512.94 270.183,521.457 268.938,530.063C268.853,530.645 268.313,531.161 267.642,532.277C263.891,529.681 261.89,526.13 262.37,522.204C263.326,514.383 262.229,506.954 259.45,499.784C255.68,490.06 257.075,480.536 259.722,470.948C262.64,460.38 266.666,450.196 270.315,439.876C274.165,428.988 275.471,417.695 275.474,406.097C275.479,390.672 278.716,375.881 288.396,363.374C295.758,353.861 303.539,344.654 311.458,335.595C321.953,323.588 329.3,309.985 333.398,294.617C335.276,287.571 339.384,281.656 342.982,275.073Z" style="fill-rule:nonzero;"/>
        <path d="M532.969,790.966C532.787,792.739 532.006,794.131 530.402,794.998C513.629,804.063 496.213,811.11 476.763,811.175C467.143,811.208 458.069,808.339 449.216,804.86C440.873,801.581 432.745,797.773 424.185,795.024C412.822,791.376 403.004,785.043 395.244,776.096C382.67,761.6 368.248,749.066 354.396,735.901C342.062,724.18 334.102,709.65 329.474,693.297C325.856,680.511 324.212,667.188 318.747,654.9C313.069,642.133 307.415,629.417 297.487,619.15C285.098,606.34 276.542,591.176 272.055,574.007C269.8,565.377 269.124,556.332 267.8,547.465C267.605,546.166 267.638,544.761 269.383,543.801C273.017,545.066 273.506,548.678 272.868,551.367C271.772,555.991 272.772,561.581 274.732,563.756C280.875,570.573 280.466,579.872 285.548,586.962C290.681,594.123 295.395,601.561 301.042,608.381C307.153,615.76 312.99,623.414 318.829,630.971C329.716,645.06 333.4,661.251 337.344,677.588C342.39,698.49 350.07,717.909 366.24,732.841C369.75,736.082 373.569,739.063 377.258,742.147C384.757,748.416 392.301,754.653 400.695,759.746C401.965,760.517 403.425,761.359 403.38,763.094C403.192,770.361 408.773,774.064 413.139,778.191C422.712,787.238 435.347,790.78 447.161,795.603C452.006,797.582 455.774,801.294 461.44,802.165C471.348,803.688 481.001,804.401 491.071,803.36C503.105,802.115 513.617,797.06 524.479,792.686C526.988,791.676 529.459,790.802 532.6,791.014C532.999,790.998 532.969,790.966 532.969,790.966Z" style="fill-rule:nonzero;"/>
        <path d="M587.217,802.22C604.435,796.44 621.804,792.246 636.832,781.973C642.557,778.059 647.551,773.499 652.1,768.479C658.46,761.461 665.027,754.583 670.27,746.599C673.947,740.998 679.985,737.209 682.194,730.343C683.028,727.749 685.635,725.635 688.718,728.792C690.66,726.759 692.308,725.411 691.61,721.915C690.991,718.821 693.081,715.307 697.298,715.56C699.899,715.715 700.394,714.524 699.844,712.713C699.288,710.888 699.443,709.387 700.623,708.071C705.063,703.123 706.584,696.716 709.082,690.852C712.4,683.064 714.225,674.687 717.851,666.992C719.705,663.06 723.674,662.095 726.988,664.622C728.164,665.518 727.933,666.63 727.532,667.772C726.762,669.972 726.439,672.509 725.113,674.302C719.667,681.666 720.802,691.035 717.212,698.98C715.073,703.713 712.85,708.428 709.719,712.432C697.394,728.189 687.274,745.427 675.874,761.783C662.615,780.805 646.941,797.661 624.059,805.443C614.034,808.852 604.016,812.138 593.011,811.852C587.952,811.721 582.757,814.417 577.725,816.13C566.233,820.04 555.086,819.557 543.678,815.249C539.936,813.835 535.791,812.267 531.431,812.454C529.921,812.518 527.967,812.773 527.286,810.577C528.205,808.562 530.05,808.737 531.577,809.084C537.53,810.439 543.665,809.78 549.676,810.385C556.774,811.099 564.356,808.614 571.503,806.683C576.615,805.302 581.582,803.32 587.217,802.22Z" style="fill-rule:nonzero;"/>
        <path d="M558.599,238.907C575.333,241.57 592.214,240.27 608.116,245.832C610.31,246.599 612.663,247.228 614.548,248.503C622.646,253.986 630.98,259.185 637.938,266.181C638.753,267.001 639.65,267.828 639.155,269.539C636.79,271.271 634.814,269.511 633.283,268.042C627.453,262.446 619.838,259.606 613.472,254.851C606.165,249.392 597.256,249.027 588.799,248.399C571.687,247.126 554.715,248.964 537.788,252.017C516.719,255.818 495.797,260.874 474.116,260.435C460.269,260.155 446.698,262.773 434.148,268.462C422.253,273.854 412.054,281.602 404.808,293.175C399.787,301.194 397.453,310.164 393.35,318.409C387.348,330.47 380.005,341.591 369.678,350.769C359.795,359.551 348.062,365.863 338.504,374.859C327.585,385.136 317.418,396.248 314.303,411.755C313.455,415.981 309.634,417.318 307.477,420.064C305.434,419.509 305.295,418.116 305.364,416.794C306.3,398.911 313.172,384 328.621,374.323C345.049,364.033 360.973,353.201 374.505,339.211C378.202,335.389 379.814,330.175 382.582,325.714C388.572,316.063 391.034,304.724 396.779,295.024C400.991,287.914 404.339,279.83 412.422,275.678C413.503,275.123 414.326,273.807 414.95,272.669C416.63,269.603 418.168,266.852 422.618,268.286C424.32,268.834 426.471,267.398 427.351,265.975C429.188,263.005 432.031,262.814 434.877,262.075C443.715,259.778 452.382,256.453 461.351,255.124C471.546,253.614 481.632,251.592 491.779,249.884C510.137,246.793 528.486,243.635 546.794,240.265C550.589,239.566 554.42,239.668 558.599,238.907Z" style="fill-rule:nonzero;"/>
        <path d="M620.049,519.948C620.738,521.117 621.263,521.969 621.76,522.836C622.569,524.247 622.893,525.706 621.506,526.914C620.048,528.184 618.74,527.42 617.528,526.355C612.035,521.526 606.553,516.685 601.038,511.882C584.227,497.241 566.482,484.156 544.57,478.01C519.965,471.108 496.551,473.934 474.133,486.211C458.085,494.999 444.025,506.402 430.383,518.42C428.391,520.175 426.252,521.776 424.085,523.312C422.822,524.207 421.308,524.657 419.926,523.497C418.337,522.163 418.79,520.553 419.513,518.946C421.943,513.549 425.847,509.133 429.847,505.005C441.006,493.488 453.152,483.08 467.274,475.268C497.145,458.745 527.843,457.133 559.498,469.974C580.54,478.511 597.359,492.581 612.356,509.136C615.227,512.305 617.384,516.12 620.049,519.948Z" style="fill-rule:nonzero;"/>
        <path d="M500.891,562.324C481.447,552.9 474.793,533.501 477.313,518.042C480.669,497.455 495.612,482.729 515.66,480.103C530.952,478.1 551.191,488.198 553.996,507.557C555.404,517.277 551.705,525.446 543.806,531.063C535.806,536.751 527.057,538.217 518.071,532.714C510.311,527.963 508.273,520.2 513.533,514.774C515.513,515.637 516.218,517.649 517.103,519.303C519.728,524.215 523.703,527.066 529.198,526.436C534.961,525.776 539.479,522.735 541.717,517.032C546.17,505.69 537.302,492.661 524.134,491.229C511.702,489.877 501.564,494.618 494.708,504.576C487.558,514.959 485.823,526.429 491.281,538.665C497.755,553.18 515.442,559.205 528.666,558.483C538.539,557.944 547.182,554.708 554.096,547.402C554.842,546.614 555.692,545.558 557.062,546.471C551.321,560.007 523.412,572.973 500.891,562.324Z" style="fill-rule:nonzero;"/>
        <path d="M607.06,533.729C610.515,534.433 609.361,536.128 608.113,537.614C600.816,546.306 593.026,554.489 583.825,561.24C567.525,573.201 549.322,580.692 529.374,583.441C493.458,588.39 462.616,578.14 437.696,551.407C434.186,547.641 431.103,543.468 427.939,539.393C426.646,537.728 424.826,535.663 427.231,533.76C429.401,532.044 430.858,534.25 432.229,535.597C443.468,546.639 455.826,556.244 469.922,563.297C489.243,572.965 509.685,575.631 531.103,572.521C550.84,569.655 568.226,561.689 584.829,550.947C592.729,545.836 599.203,539.197 607.06,533.729Z" style="fill-rule:nonzero;"/>
        <path d="M712.92,378.093C710.014,372.489 708.595,366.535 704.103,362.176C702.957,361.064 701.766,358.788 704.067,357.457C705.98,356.35 707.087,358.273 708.084,359.489C721.383,375.722 728.978,394.233 731.498,415.142C733.482,431.601 733.255,447.967 732.298,464.425C731.584,476.724 732.667,488.872 734.624,501.111C736.116,510.442 739.697,519.228 740.529,528.645C741.088,534.965 740.175,541.196 739.793,547.459C739.738,548.361 739.283,549.435 737.941,549.571C735.985,549.003 736.311,547.414 736.435,545.945C737.609,532.02 734.147,518.936 729.477,506.003C722.764,487.41 720.594,468.121 722.112,448.509C723.106,435.66 722.593,422.912 721.292,410.167C720.172,399.201 717.17,388.664 712.92,378.093Z" style="fill-rule:nonzero;"/>
        <path d="M532.542,340.659C522.749,336.799 513.314,336.361 503.178,338.023C490.955,340.029 479.789,343.706 469.803,351.007C466.53,353.399 464.283,356.682 461.702,359.693C459.721,362.004 458.254,365.028 453.436,365.809C458.954,351.434 468.807,341.881 481.189,335.685C501.683,325.43 533.975,327.498 544.058,339.035C539.971,339.077 536.851,341.773 532.542,340.659Z" style="fill-rule:nonzero;"/>
        <path d="M656.827,457.186C661.204,463.278 665.869,468.792 669.406,474.952C677.554,489.141 682.209,504.125 680.703,521.014C679.764,531.539 676.859,541.281 672.201,550.305C668.426,557.618 664.836,565.09 660.625,572.216C658.285,576.176 656.825,580.658 654.993,584.915C654.156,586.859 653.77,589.126 651.286,589.87C649.072,588.603 649.706,586.782 650.36,585.066C653.856,575.893 658.209,567.108 662.914,558.516C670.431,544.791 676.428,530.525 676.306,514.635C676.185,498.746 670.873,484.336 661.7,471.337C657.774,465.774 654.044,460.072 650.261,454.409C649.343,453.035 648.043,451.297 650.009,450.077C651.988,448.848 652.874,450.799 653.736,452.234C654.676,453.799 655.646,455.347 656.827,457.186Z" style="fill-rule:nonzero;"/>
        <path d="M450.895,752.225C440.615,746.818 430.782,741.394 419.078,740.926C416.094,740.806 413.023,739.462 411.237,736.288C413.701,733.625 416.024,735.122 418.276,735.821C420.795,736.603 423.268,737.955 425.331,734.797C426.187,733.487 427.773,734.205 429.05,734.488C437.198,736.293 445.221,738.671 452.322,743.065C458.969,747.178 466.567,749.587 472.64,754.649C473.941,755.733 476.431,756.508 475.22,758.774C474.101,760.867 471.94,759.898 470.306,759.177C464.109,756.441 457.061,756.124 450.895,752.225Z" style="fill-rule:nonzero;"/>
        <path d="M381.188,439.204C373.001,450.848 371.55,464.395 368.215,477.31C365.827,486.557 363.416,495.799 361.437,505.308C358.684,502.198 359.289,498.508 359.885,495.279C362.441,481.448 365.707,467.762 368.872,454.053C371.582,442.313 378.678,433.492 386.293,424.828C387.717,423.208 389.045,421.492 390.295,419.733C393.565,415.132 394.244,415.041 399.257,418.835C391.332,423.771 387.565,432.411 381.188,439.204Z" style="fill-rule:nonzero;"/>
        <path d="M345.693,629.723C348.195,628.767 348.901,630.448 349.512,631.974C352.953,640.584 356.529,649.081 357.223,658.579C358.41,674.813 365.473,688.845 374.642,701.963C375.712,703.494 377.701,704.72 376.648,707.363C373.984,707.761 373.004,705.603 371.738,704.029C361.417,691.187 354.884,676.727 352.628,660.307C351.211,649.994 348.328,639.979 345.693,629.723Z" style="fill-rule:nonzero;"/>
        <path d="M425.481,397.628C435.792,392.018 442.328,383.322 448.079,373.896C448.681,372.91 449.002,371.754 449.588,370.756C450.278,369.582 451.166,368.374 452.748,369.294C454.317,370.207 454.458,371.691 453.608,373.184C447.549,383.828 442.078,394.905 430.18,400.686C427.184,402.141 424.372,403.702 421.05,404.427C414.535,405.849 409.508,410.67 403.182,412.633C401.525,413.147 400.306,415.005 398.219,414.288C398.621,409.393 408.232,403.515 425.481,397.628Z" style="fill-rule:nonzero;"/>
        <path d="M622.972,642.976C623.718,644.61 623.62,646.224 622.762,647.771C618.423,655.596 615.477,664.821 609.392,670.905C599.726,680.568 591.901,692.904 577.852,697.52C576.068,698.106 574.287,699.677 572.164,696.73C577.03,694.175 581.524,691.268 585.851,688.104C600.264,677.562 611.066,664.234 617.752,647.615C618.59,645.532 619.188,642.984 622.643,643.018C623.003,643.004 622.972,642.976 622.972,642.976Z" style="fill-rule:nonzero;"/>
        <path d="M580.254,682.248C574.609,687.162 569.367,692.018 563.771,696.423C559.823,699.532 555.094,699.697 549.886,698.726C550.784,695.91 552.772,695.971 554.422,695.696C558.84,694.961 562.468,692.999 565.603,689.723C575.165,679.732 586.565,671.833 596.825,662.629C597.701,661.843 598.645,661.163 601.107,662.353C594.613,669.688 587.901,676.172 580.254,682.248Z" style="fill-rule:nonzero;"/>
        <path d="M583.643,764.395C594.699,759.546 606.574,758.767 617.352,754.291C618.614,753.767 620.146,753.654 620.792,755.225C621.442,756.806 620.151,757.687 618.997,758.339C615.487,760.324 611.579,761.208 607.719,762.186C597.552,764.759 587.905,768.883 577.953,772.093C576.217,772.653 574.234,774.16 572.3,770.792C575.978,768.71 579.639,766.638 583.643,764.395Z" style="fill-rule:nonzero;"/>
        <path d="M333.985,754.785C331.882,751.74 330.13,748.369 333.195,746.041C336.173,743.778 339.336,746.707 340.637,749.013C343.874,754.75 347.999,759.53 352.985,763.705C353.47,764.111 353.501,764.909 352.835,765.703C350.688,766.49 349.154,764.582 347.894,763.504C343.749,759.956 337.804,759.439 333.985,754.785Z" style="fill-rule:nonzero;"/>
        <path d="M711.32,604.426C713.943,600.926 715.982,597.327 720.481,595.192C720.485,605.755 715.137,612.803 708.662,619.278C707.916,620.024 706.866,620.263 705.968,619.463C704.986,618.588 705.056,617.472 705.346,616.253C706.37,611.95 709.216,608.579 711.32,604.426Z" style="fill-rule:nonzero;"/>
        <path d="M445.699,792.255C434.527,787.058 424.326,780.981 414.985,773.664C416.477,771.298 417.556,771.57 418.322,772.167C426.766,778.742 437.129,782.04 445.733,788.307C447.038,789.257 450.694,790.594 445.699,792.255Z" style="fill-rule:nonzero;"/>
        <path d="M680.487,339.575C675.691,334.793 671.584,329.861 666.321,326.068C668.629,323.527 670.493,324.475 671.52,325.414C675.548,329.099 681.027,330.567 684.902,334.338C686.924,336.305 690.556,338.771 688.363,341.652C685.798,345.022 683.234,341.018 680.487,339.575Z" style="fill-rule:nonzero;"/>
        <path d="M403.031,801.939C407.218,804.74 412.387,804.992 416.291,808.696C407.992,810.478 380.088,793.489 377.829,784.795C387.094,790.139 393.316,798.424 403.031,801.939Z" style="fill-rule:nonzero;"/>
        <path d="M695.235,654.97C690.11,659.579 690.217,666.996 685.399,671.839C682.937,669.173 683.666,666.868 684.701,664.619C687.121,659.365 690.328,654.498 692.231,648.975C692.789,647.357 693.774,645.147 696.062,646.03C698.014,646.783 697.262,648.894 696.926,650.437C696.613,651.876 695.924,653.233 695.235,654.97Z" style="fill-rule:nonzero;"/>
        <path d="M294.376,498.574C294.046,501.753 296.426,504.364 294.857,507.21C288.391,503.737 289.163,477.794 296.195,472.877C298.107,477.476 294.309,481.094 294.417,485.185C294.531,489.499 294.392,493.819 294.376,498.574Z" style="fill-rule:nonzero;"/>
        <path d="M298.897,671.713C299.649,674.644 300.338,677.199 300.881,679.785C301.15,681.069 301.391,682.444 301.219,683.719C300.905,686.035 300.191,688.949 297.553,688.845C294.831,688.738 293.475,685.944 293.659,683.327C293.991,678.597 294.795,673.9 295.39,669.278C297.724,668.377 298.083,670.11 298.897,671.713Z" style="fill-rule:nonzero;"/>
        <path d="M597.854,291.393C595.485,288.502 596.293,286.197 598.411,284.111C600.608,281.948 602.966,282.698 605.24,283.965C607.478,285.212 608.729,287.145 608.035,289.718C607.338,292.3 605.281,293.251 602.714,293.256C600.993,293.259 599.474,292.718 597.854,291.393Z" style="fill-rule:nonzero;"/>
        <path d="M642.192,292.319C645.65,294.136 646.142,296.631 644.589,299.553C643.385,301.821 641.417,302.36 639.14,301.138C636.655,299.804 633.715,298.463 634.885,294.894C635.99,291.526 638.837,291.349 642.192,292.319Z" style="fill-rule:nonzero;"/>
        <path d="M438.48,637.857C439.268,636.048 440.789,635.295 441.504,636.836C442.592,639.18 446.112,640.831 444.259,644.163C442.886,646.632 441,648.728 438.606,650.322C436.892,651.464 435.439,651.102 434.324,649.522C433.232,647.973 433.983,646.725 435.268,645.685C435.91,645.165 436.535,644.616 437.217,644.153C439.595,642.54 440.428,640.645 438.48,637.857Z" style="fill-rule:nonzero;"/>
        <path d="M483.887,762.344C481.595,761.149 478.967,761.152 477.862,758.724C480.328,756.669 490.728,756.94 492.519,759.23C494.566,761.846 492.671,763.145 490.402,763.883C488.144,764.618 486.256,763.148 483.887,762.344Z" style="fill-rule:nonzero;"/>
        <path d="M486.388,827.806C479.56,826.526 472.967,826.127 466.99,822.833C477.436,824.1 487.871,825.22 498.257,826.964C494.504,829.408 490.63,828.201 486.388,827.806Z" style="fill-rule:nonzero;"/>
        <path d="M548.92,345.354C547.643,344.849 546.621,344.406 546.595,343.282C546.574,342.344 547.406,342.011 548.294,341.849C552.258,341.123 565.078,347.573 567.86,352.38C560.737,351.18 555.546,346.697 548.92,345.354Z" style="fill-rule:nonzero;"/>
        <path d="M404.448,441.955C405.771,437.898 406.884,434.088 411.998,434.192C413.207,437.312 410.269,437.572 409.051,439.354C411.737,441.638 410.563,443.822 408.455,445.841C407.297,446.951 405.93,447.592 404.426,446.511C402.603,445.201 403.092,443.704 404.448,441.955Z" style="fill-rule:nonzero;"/>
        <path d="M590.69,374.563C587.685,372.957 584.784,371.74 583.735,368.349C586.659,365.771 590.165,368.395 592.737,366.125C594.324,374.67 594.324,374.67 590.69,374.563Z" style="fill-rule:nonzero;"/>
        <path d="M316.721,573.277C317.123,575.236 317.238,577.039 314.82,575.866C311.74,574.372 308.39,564.865 309.515,560.422C314.231,563.536 314.473,568.811 316.721,573.277Z" style="fill-rule:nonzero;"/>
        <path d="M301.886,713.778C301.168,715.493 300.234,716.52 298.696,715.629C296.289,714.235 294.574,712.111 294.227,709.331C294.006,707.561 294.315,705.635 296.722,704.479C299.581,706.736 301.148,709.834 301.886,713.778Z" style="fill-rule:nonzero;"/>
        <path d="M386.967,581.13C387.908,578.709 389.356,578.364 390.876,579.83C392.998,581.878 394.145,584.506 392.995,587.39C392.318,589.086 390.505,588.476 389.048,588.214C386.552,587.763 385.818,586.264 386.391,583.922C386.585,583.126 386.726,582.316 386.967,581.13Z" style="fill-rule:nonzero;"/>
        <path d="M733.941,601.822C734.405,600.408 734.704,599.209 735.413,598.349C736.899,596.543 738.48,593.215 741.163,595.62C743.547,597.756 741.623,600.673 739.769,602.613C737.9,604.569 735.629,605.902 733.941,601.822Z" style="fill-rule:nonzero;"/>
        <path d="M309.022,435.012C308.779,432.716 306.302,431.704 305.834,429.621C305.419,427.768 304.674,425.281 307.066,424.46C309.41,423.655 311.341,425.577 311.806,427.602C312.393,430.152 313.038,433.226 309.349,434.931C308.986,434.99 309.022,435.012 309.022,435.012Z" style="fill-rule:nonzero;"/>
        <path d="M433.882,816.093C429.164,814.473 424.29,814.181 420.251,810.712C424.894,809.537 437.03,813.481 438.944,816.476C437.289,817.738 435.819,816.14 433.882,816.093Z" style="fill-rule:nonzero;"/>
        <path d="M611.156,614.101C609.836,615.145 608.797,616.029 606.757,615.279C606.609,611.124 609.324,608.616 612.321,606.331C613.148,605.701 614.228,605.749 615.061,606.569C615.907,607.401 615.902,608.436 615.257,609.287C614.055,610.872 612.701,612.342 611.156,614.101Z" style="fill-rule:nonzero;"/>
        <path d="M658.176,421.811C658.748,422.472 659.053,422.863 659.311,423.282C660.645,425.442 660.241,427.395 658.46,429.061C657.184,430.255 656.049,429.455 654.96,428.602C653.443,427.413 652.163,425.988 653.033,423.986C653.902,421.988 655.091,419.994 658.176,421.811Z" style="fill-rule:nonzero;"/>
        <path d="M291.913,663.994C290.914,662.031 290.033,660.43 289.279,658.771C288.765,657.641 288.749,656.394 289.874,655.63C291.087,654.805 292.358,655.499 292.844,656.512C294.362,659.675 296.434,662.755 295.821,666.522C293.512,667.085 292.966,665.456 291.913,663.994Z" style="fill-rule:nonzero;"/>
        <path d="M580.619,361.371C582.52,362.401 583.949,363.529 582.476,365.357C581.261,366.865 579.713,365.962 578.559,364.989C577.196,363.84 576.124,362.442 574.286,361.797C573.059,361.367 572.017,360.1 573.381,358.701C574.414,357.642 575.903,357.365 576.804,358.717C577.701,360.062 578.746,360.888 580.619,361.371Z" style="fill-rule:nonzero;"/>
        <path d="M295.751,527.502C296.466,523.734 297.968,523.932 299.235,526.619C300.634,529.587 300.817,532.805 299.525,536.365C295.591,534.427 296.269,530.89 295.751,527.502Z" style="fill-rule:nonzero;"/>
        <path d="M502.097,682.694C500.13,679.44 502.103,677.977 504.442,677.336C506.331,676.818 507.814,678.284 507.395,680.224C506.848,682.756 505.289,684.399 502.097,682.694Z" style="fill-rule:nonzero;"/>
        <path d="M364.961,308.843C363.998,310.925 363.555,312.957 361.525,313.844C359.516,311.357 360.262,306.739 362.884,305.926C365.249,305.192 365.189,306.896 364.961,308.843Z" style="fill-rule:nonzero;"/>
        <path d="M623.018,643.018C622.407,639.105 623.666,636.386 628.022,635.056C629.057,639.461 627.094,641.586 623.326,642.934C622.972,642.976 623.003,643.004 623.018,643.018Z" style="fill-rule:nonzero;"/>
        <path d="M548.292,781.88C549.785,778.268 552.376,777.529 556.16,778.665C554.528,782.533 552.173,783.797 548.292,781.88Z" style="fill-rule:nonzero;"/>
        <path d="M597.561,380.516C596.377,379.147 595.037,378.24 595.57,376.083C600.415,375.344 601.624,378.814 603.315,382.099C600.437,383.989 599.296,381.867 597.561,380.516Z" style="fill-rule:nonzero;"/>
        <path d="M629.355,628.144C630.843,627.021 632.222,626.608 632.791,628.372C633.37,630.167 632.686,631.989 631.381,633.324C630.499,634.226 629.172,634.27 628.314,633.214C626.845,631.409 627.876,629.85 629.355,628.144Z" style="fill-rule:nonzero;"/>
        <path d="M308.968,434.978C311.036,438.394 310.646,441.325 307.199,444.309C305.049,440.534 305.152,437.734 308.694,435.191C309.022,435.012 308.986,434.99 308.968,434.978Z" style="fill-rule:nonzero;"/>
        <path d="M533.014,791.014C533.825,786.526 537.256,786.033 541.733,785.265C540.144,789.834 537.293,790.942 533.357,791.032C532.969,790.966 532.999,790.998 533.014,791.014Z" style="fill-rule:nonzero;"/>
        <path d="M740.522,587.831C741.334,586.571 741.951,585.606 742.71,584.769C742.959,584.494 743.577,584.555 744.398,584.385C744.866,587.876 744.593,590.758 741.341,592.657C739.128,591.325 739.982,589.71 740.522,587.831Z" style="fill-rule:nonzero;"/>
        <path d="M430.431,639.124C431.816,636.448 433.247,634.197 436.426,633.811C435.73,639.194 433.417,641.26 430.431,639.124Z" style="fill-rule:nonzero;"/>
        <path d="M386.025,574.311C384.259,576.102 383.083,575.115 382.304,573.736C381.301,571.961 380.747,570.05 383.168,568.356C385.366,569.598 386.249,571.498 386.025,574.311Z" style="fill-rule:nonzero;"/>
        <path d="M358.663,770.936C362.703,769.32 364.067,771.707 365.556,775.057C361.512,775.835 359.689,774.173 358.663,770.936Z" style="fill-rule:nonzero;"/>
        <path d="M352.657,323.957C354.512,323.321 355.804,323.882 355.515,325.522C355.111,327.815 353.926,329.75 350.952,329.317C349.637,326.971 351.199,325.604 352.657,323.957Z" style="fill-rule:nonzero;"/>
        <path d="M624.118,750.923C625.961,749.612 627.42,748.032 629.781,749.538C629.822,752.723 627.39,753.561 625.063,753.856C623.286,754.081 623.024,752.649 624.118,750.923Z" style="fill-rule:nonzero;"/>
        <path d="M584.753,217.589C587.644,215.84 589.479,216.876 591.279,219.509C588.099,221.562 585.88,221.636 584.753,217.589Z" style="fill-rule:nonzero;"/>
        <path d="M677.35,680.311C678.978,676.979 678.978,676.979 681.732,675.595C682.678,678.458 681.127,680.52 679.383,682.131C677.846,683.552 677.055,682.476 677.35,680.311Z" style="fill-rule:nonzero;"/>
        <path d="M344.295,621.256C346.016,623.288 347.078,625.191 345.707,627.632C341.306,624.997 340.893,623.174 344.295,621.256Z" style="fill-rule:nonzero;"/>
        <path d="M338.373,616.328C337.748,613.893 338.087,612.35 340.57,613.906C342.248,614.959 343.2,616.736 342.671,618.815C340.045,619.759 339.44,617.951 338.373,616.328Z" style="fill-rule:nonzero;"/>
        <path d="M745.994,576.862C746.207,574.807 746.66,572.915 748.822,573.631C750.555,574.206 750.28,576.034 749.502,577.372C748.377,579.307 747.11,579.466 745.994,576.862Z" style="fill-rule:nonzero;"/>
        <path d="M722.31,587.205C723.137,585.909 723.805,584.965 725.471,585.235C726.332,588.213 725.161,590.128 722.692,591.556C720.627,590.253 721.606,588.859 722.31,587.205Z" style="fill-rule:nonzero;"/>
        <path d="M496.769,760.574C498.958,759.57 500.545,759.916 501.803,761.636C501.613,763.823 500.145,764.345 498.385,763.939C496.918,763.601 495.58,762.796 496.769,760.574Z" style="fill-rule:nonzero;"/>
        <path d="M295.53,522.223C294.653,520.182 294.284,518.456 295.638,516.786C298.435,516.74 298.194,518.862 298.209,520.558C298.222,521.961 297.729,523.255 295.53,522.223Z" style="fill-rule:nonzero;"/>
        <path d="M574.832,213.237C576.345,213.845 577.946,214.081 577.46,215.943C577.219,216.863 576.288,217.133 575.433,216.984C574.097,216.75 572.679,216.313 572.48,214.748C572.317,213.471 573.41,213.188 574.832,213.237Z" style="fill-rule:nonzero;"/>
    </g>
</svg>
