<?xml version="1.0" encoding="UTF-8" standalone="no"?>
<!DOCTYPE svg PUBLIC "-//W3C//DTD SVG 1.1//EN" "http://www.w3.org/Graphics/SVG/1.1/DTD/svg11.dtd">
<svg width="100%" height="100%" viewBox="0 0 630 514" version="1.1" xmlns="http://www.w3.org/2000/svg" xmlns:xlink="http://www.w3.org/1999/xlink" xml:space="preserve" xmlns:serif="http://www.serif.com/" style="fill-rule:evenodd;clip-rule:evenodd;stroke-linejoin:round;stroke-miterlimit:2;">
    <g id="Artboard1" transform="matrix(1,0,0,0.900175,-210,-372.672504)">
        <rect x="210" y="414" width="630" height="571" style="fill:none;"/>
        <g transform="matrix(1,0,0,1.110895,470.285156,436.491283)">
            <path d="M0,0C0.821,0.066 1.643,0.132 2.489,0.2C20.866,1.684 39.198,3.56 57.528,5.534C60.205,5.822 62.883,6.108 65.561,6.393C97.549,9.798 129.512,13.423 161.463,17.163C183.587,19.783 183.587,19.783 205.75,22.039C206.59,22.117 207.429,22.195 208.295,22.275C212.787,22.666 217.206,22.822 221.715,22.754L221.715,24.754C227.16,24.259 227.16,24.259 232.715,23.754L232.715,24.754C236.964,25.331 241.214,25.9 245.465,26.463C246.907,26.655 248.349,26.849 249.791,27.045C257.456,28.086 264.958,29.031 272.715,28.754L272.715,30.754C278.655,31.084 284.595,31.414 290.715,31.754C290.385,31.094 290.055,30.434 289.715,29.754C292.715,30.754 292.715,30.754 293.715,32.754C295.441,33.443 297.197,34.057 298.965,34.629C305.47,36.912 309.618,39.404 312.715,45.754C313.776,49.73 313.687,53.167 313.34,57.254C313.242,58.491 313.144,59.729 313.043,61.004C312.837,63.359 312.62,65.714 312.387,68.066C311.061,82.298 313.148,95.052 316.715,108.754C317.274,108.844 317.832,108.933 318.408,109.026C341.222,112.807 341.222,112.807 347.84,121.566C350.317,130.591 345.895,139.481 342.715,147.816C342.21,149.162 341.707,150.507 341.205,151.853C339.948,155.211 338.681,158.564 337.41,161.917C336.414,164.55 335.427,167.187 334.441,169.824C333.011,173.648 331.578,177.471 330.141,181.293C322.153,202.556 314.282,223.856 306.637,245.245C302.491,256.844 298.277,268.413 293.975,279.954C291.644,286.216 289.376,292.493 287.195,298.809C285.442,303.826 283.572,308.795 281.684,313.762C281.411,314.48 281.138,315.199 280.858,315.939C279.472,319.593 278.08,323.243 276.676,326.889C276.16,328.246 275.644,329.604 275.129,330.961C274.664,332.172 274.2,333.384 273.721,334.632C272.51,337.842 272.51,337.842 272.715,341.754L270.715,341.754C270.472,342.604 270.472,342.604 270.223,343.471C268.084,350.787 265.592,357.953 263.027,365.129C262.684,366.093 262.684,366.093 262.333,367.077C260.469,372.305 258.593,377.53 256.715,382.754C256.235,384.091 256.235,384.091 255.745,385.456C253.654,391.275 251.558,397.092 249.454,402.907C248.761,404.824 248.069,406.742 247.379,408.661C231.486,452.781 231.486,452.781 211.965,463.504C191.79,472.766 168.334,469.279 147.034,466.177C145.168,465.906 145.168,465.906 143.266,465.629C142.169,465.461 141.072,465.294 139.943,465.121C136.508,464.73 133.169,464.693 129.715,464.754L129.715,462.754C128.862,462.704 128.009,462.654 127.13,462.603C118.718,462.064 110.464,461.116 102.137,459.828C100.886,459.639 99.636,459.45 98.348,459.256C95.05,458.757 91.752,458.253 88.455,457.746C85.186,457.245 81.915,456.751 78.645,456.256C62.331,453.782 46.023,451.269 29.715,448.754C29.385,449.414 29.055,450.074 28.715,450.754C28.385,450.094 28.055,449.434 27.715,448.754C25.922,448.211 25.922,448.211 23.717,447.94C22.854,447.809 21.992,447.679 21.103,447.545C20.149,447.411 19.194,447.276 18.211,447.137C17.21,446.989 16.21,446.841 15.179,446.688C11.838,446.195 8.495,445.715 5.152,445.234C2.811,444.891 0.47,444.547 -1.87,444.203C-8.077,443.291 -14.286,442.39 -20.495,441.491C-26.679,440.594 -32.861,439.689 -39.043,438.783C-46.218,437.733 -53.392,436.683 -60.567,435.636C-86.506,431.852 -86.506,431.852 -98.029,430.124C-99.432,429.914 -100.836,429.705 -102.24,429.497C-104.107,429.221 -105.973,428.939 -107.84,428.657C-108.855,428.505 -109.871,428.353 -110.917,428.196C-113.285,427.754 -113.285,427.754 -115.285,426.754C-115.31,427.338 -115.335,427.921 -115.361,428.523C-115.479,431.225 -115.601,433.927 -115.723,436.629C-115.762,437.547 -115.801,438.465 -115.842,439.41C-115.969,442.193 -116.12,444.973 -116.285,447.754C-116.336,448.673 -116.386,449.593 -116.438,450.54C-116.502,451.418 -116.567,452.295 -116.633,453.199C-116.686,453.981 -116.739,454.762 -116.793,455.567C-117.402,458.273 -118.411,459.726 -120.285,461.754C-123.223,462.754 -123.223,462.754 -126.285,462.754C-128.473,460.816 -128.473,460.816 -130.285,458.754L-133.285,458.754C-133.574,458.115 -133.863,457.475 -134.16,456.816C-135.113,454.602 -135.113,454.602 -137.285,453.754L-137.285,451.754L-139.285,451.754L-139.285,449.754C-140.605,449.094 -141.925,448.434 -143.285,447.754L-143.285,445.754L-145.285,445.754L-145.285,443.754C-150.731,444.116 -154.168,447.385 -158.285,450.629C-170.27,459.938 -170.27,459.938 -177.285,460.754C-177.646,459.276 -177.999,457.797 -178.348,456.316C-178.545,455.493 -178.742,454.669 -178.945,453.82C-179.057,453.138 -179.17,452.456 -179.285,451.754C-178.955,451.424 -178.625,451.094 -178.285,450.754C-178.056,448.612 -177.89,446.463 -177.75,444.312C-177.663,443.007 -177.576,441.702 -177.486,440.357C-177.398,438.969 -177.31,437.58 -177.223,436.191C-177.131,434.799 -177.039,433.406 -176.947,432.014C-176.722,428.594 -176.502,425.174 -176.285,421.754C-177.139,421.7 -177.992,421.646 -178.872,421.59C-198.722,420.22 -219.009,413.667 -232.492,398.227C-236.856,392.583 -239.794,386.864 -242.277,380.188C-243.155,377.629 -243.155,377.629 -245.285,375.754L-243.285,375.754C-243.615,375.094 -243.945,374.434 -244.285,373.754C-247.703,355.746 -241.045,340.683 -232.973,325.09C-232.037,323.242 -231.104,321.393 -230.172,319.544C-227.73,314.706 -225.262,309.882 -222.787,305.061C-220.307,300.22 -217.849,295.368 -215.391,290.516C-212.549,284.91 -209.707,279.305 -206.854,273.706C-201.206,262.612 -195.69,251.476 -190.412,240.2C-188.165,235.43 -185.711,230.777 -183.223,226.129C-179.265,218.718 -175.607,211.204 -172.039,203.598C-168.849,196.838 -165.421,190.232 -161.897,183.641C-159.182,178.536 -156.644,173.379 -154.223,168.129C-151.279,161.749 -148.13,155.516 -144.781,149.339C-141.192,142.694 -137.848,135.928 -134.485,129.167C-130.798,121.754 -127.101,114.346 -123.404,106.937C-122.411,104.946 -121.419,102.954 -120.427,100.962C-112.578,85.198 -104.499,69.576 -96.16,54.066C-94.145,50.318 -92.175,46.562 -90.328,42.727C-82.057,25.57 -72.419,9.427 -53.723,2.441C-36.351,-2.822 -17.823,-1.463 0,0Z" style="fill:rgb(6,6,5);fill-rule:nonzero;"/>
        </g>
        <g transform="matrix(1,0,0,1.110895,443,445.105058)">
            <path d="M0,0C18.468,-0.482 36.59,0.805 54.933,2.723C58.418,3.085 61.904,3.431 65.391,3.779C75.599,4.803 85.805,5.85 96,7C93.519,8.654 91.43,9.747 88.711,10.883C87.435,11.42 87.435,11.42 86.134,11.968C85.224,12.35 84.313,12.732 83.375,13.125C46.365,27.42 46.365,27.42 20.641,55.516C19.202,61.094 19.877,65.889 22.562,70.938C29.569,76.866 37.922,76.863 46.717,76.246C64.081,74.378 80.972,67.04 96.941,60.367C115.566,52.612 135.03,46.932 155,44C155.671,43.898 156.342,43.797 157.034,43.692C164.546,42.7 172.123,42.757 179.688,42.75C180.779,42.748 180.779,42.748 181.892,42.747C224.333,42.787 224.333,42.787 238,55C241.273,59.398 241.446,63.165 240.684,68.426C236.54,84.028 217.786,93.873 205.392,102.357C175.807,121.244 175.807,121.244 158,150C157.229,156.995 156.613,164.424 161.227,170.189C167.514,176.61 176.041,179.306 184.5,181.562C185.546,181.856 186.592,182.15 187.669,182.453C192.456,183.792 197.256,185.073 202.07,186.309C216.347,190.009 230.77,194.524 238.742,207.93C243.608,217.266 245.349,225.566 246,236L250,236C250.644,222.111 247.317,210.088 238.312,199.25C226.393,186.618 208.323,183.069 192.084,179.127C181.552,176.452 170.263,173.502 164,164C161.571,159.142 162.278,152.401 163.801,147.336C172.517,128.466 192.728,116.354 209.297,105.074C232.065,90.939 232.065,90.939 245.555,69.371C246.364,63.299 246.164,59.273 243,54C233.903,42.422 216.498,40.705 202.824,39.013C162.193,34.529 123.503,44.724 86.02,59.699C74.954,64.107 63.738,68.572 52,70.812C50.237,71.162 50.237,71.162 48.438,71.52C41.342,72.511 35.467,72.09 29,69C26.375,66.812 26.375,66.812 25,64C25,55.9 28.468,51.496 33.875,45.688C49.003,31.047 70.689,22.115 89.688,13.75C90.737,13.272 91.787,12.794 92.868,12.301C94.393,11.649 94.393,11.649 95.949,10.984C96.829,10.6 97.709,10.215 98.616,9.819C108.446,7.439 119.049,9.371 128.961,10.504C130.411,10.665 131.861,10.825 133.311,10.985C137.194,11.414 141.075,11.851 144.957,12.29C149.037,12.75 153.118,13.202 157.198,13.655C166.342,14.672 175.484,15.701 184.626,16.732C187.66,17.074 190.695,17.416 193.729,17.758C205.148,19.043 216.566,20.331 227.984,21.628C241.066,23.114 254.15,24.564 267.243,25.948C278.418,27.132 289.584,28.374 300.729,29.811C302.6,30.051 304.472,30.285 306.344,30.518C324.998,32.998 324.998,32.998 331,39C333.255,43.51 332.518,49.09 331.236,53.82C330.134,56.897 328.935,59.916 327.688,62.938C327.237,64.068 326.786,65.198 326.322,66.363C324.899,69.916 323.452,73.459 322,77C321.114,79.179 320.229,81.359 319.344,83.539C318,86.843 316.653,90.146 315.299,93.447C312.076,101.311 308.941,109.207 305.846,117.123C300.136,131.721 294.252,146.244 288.312,160.75C279.14,183.157 270.096,205.613 261.149,228.111C259.971,231.074 258.792,234.036 257.612,236.999C248.626,259.581 239.689,282.18 231.07,304.906C228.093,312.734 225.023,320.521 221.824,328.262C221.503,329.054 221.181,329.846 220.849,330.661C217.799,337.954 213.84,344.473 206.5,348.062C194.554,351.259 180.673,348.602 168.625,346.938C166.942,346.713 165.259,346.489 163.576,346.265C158.048,345.527 152.524,344.764 147,344C145.035,343.73 143.07,343.459 141.105,343.189C127.498,341.314 113.897,339.399 100.298,337.468C96.928,336.99 93.558,336.513 90.188,336.036C84.573,335.241 78.959,334.444 73.345,333.645C71.226,333.344 69.106,333.043 66.987,332.742C46.013,329.764 46.013,329.764 36,328C37.486,321.231 41.508,317.328 47.121,313.586C56.308,308.536 66.829,306.771 77.027,304.852C99.817,300.554 122.444,294.563 136.5,274.312C141.919,265.948 142.324,256.143 140.535,246.492C137.632,237.731 131.19,232.853 123.375,228.562C115.83,225.069 107.841,223.463 99.691,222.082C87.046,219.929 78.44,218.105 70.546,207.373C67.734,203.057 65.732,198.375 63.625,193.688C58.284,182.211 53.172,171.787 42,165C41.097,164.435 41.097,164.435 40.176,163.859C26.681,156.277 10.021,156.424 -4.641,159.957C-17.107,163.827 -25.575,169.575 -31.738,181.023C-35.61,190.157 -35.365,199.134 -35.479,208.914C-35.797,222.788 -39.539,233.411 -49.703,243.125C-56.121,248.364 -63.318,252.647 -70.289,257.102C-83.929,265.948 -94.262,274.729 -98,291C-98.581,297.144 -97.921,302.915 -97,309C-98.574,308.836 -98.574,308.836 -100.18,308.668C-117.103,306.928 -134.052,305.473 -151,304C-147.927,296.389 -144.619,288.991 -140.875,281.688C-137.707,275.487 -134.636,269.252 -131.656,262.959C-126.176,251.399 -120.511,239.938 -114.781,228.5C-114.161,227.263 -114.161,227.263 -113.529,226C-110.087,219.131 -106.64,212.263 -103.193,205.396C-100.61,200.251 -98.029,195.104 -95.45,189.957C-94.272,187.606 -93.091,185.257 -91.91,182.908C-87.743,174.602 -83.673,166.256 -79.68,157.864C-73.901,145.726 -67.92,133.693 -61.902,121.672C-60.776,119.419 -59.65,117.165 -58.524,114.912C-56.185,110.232 -53.844,105.553 -51.503,100.875C-48.529,94.934 -45.56,88.992 -42.591,83.049C-40.274,78.41 -37.954,73.772 -35.634,69.134C-34.539,66.945 -33.445,64.756 -32.351,62.566C-23.758,45.366 -14.887,28.332 -5.789,11.395C-4.459,8.871 -3.161,6.341 -1.888,3.788C-1.533,3.076 -1.178,2.364 -0.812,1.631C-0.544,1.093 -0.276,0.554 0,0Z" style="fill:rgb(250,251,248);fill-rule:nonzero;"/>
        </g>
        <g transform="matrix(1,0,0,1.110895,789,567.303502)">
            <path d="M0,0C7.231,0.27 13.779,1.035 20,5C22,8 22,8 21.859,9.986C20.581,15.088 19.052,19.963 17.113,24.852C16.51,26.409 15.907,27.965 15.304,29.522C14.982,30.348 14.659,31.174 14.327,32.025C6.731,51.498 -0.479,71.109 -7.625,90.75C-8.129,92.136 -8.634,93.522 -9.138,94.908C-11.108,100.318 -13.077,105.728 -15.045,111.139C-18.669,121.103 -22.324,131.055 -26,141C-34.369,163.655 -42.629,186.351 -50.906,209.04C-54.348,218.477 -57.795,227.913 -61.246,237.348C-61.658,238.475 -62.071,239.603 -62.496,240.765C-64.487,246.21 -66.479,251.655 -68.475,257.099C-71.959,266.615 -75.417,276.138 -78.785,285.695C-79.371,287.351 -79.958,289.006 -80.544,290.661C-81.591,293.614 -82.622,296.571 -83.643,299.532C-89.025,314.888 -95.343,329.379 -110.102,337.645C-130.887,347.365 -154.045,342.559 -175.812,339.306C-179.329,338.784 -182.847,338.278 -186.366,337.771C-194.233,336.632 -202.097,335.469 -209.96,334.302C-213.199,333.822 -216.439,333.346 -219.679,332.869C-237.936,330.183 -237.936,330.183 -246.97,328.828C-258.844,327.049 -270.723,325.319 -282.609,323.629C-301.034,321.008 -319.445,318.301 -337.853,315.571C-340.479,315.181 -343.104,314.792 -345.73,314.403C-375.17,310.041 -404.594,305.586 -434,301C-433.67,295.39 -433.34,289.78 -433,284C-430.695,284.42 -430.695,284.42 -428.344,284.848C-413.142,287.565 -397.911,289.934 -382.625,292.125C-359.38,295.458 -336.177,299.037 -312.976,302.664C-280.615,307.722 -248.208,312.442 -215.777,317.031C-205.331,318.511 -194.889,319.996 -184.465,321.625C-171.828,323.586 -159.323,325.42 -146.5,325.5C-145.58,325.506 -144.661,325.513 -143.713,325.52C-131.394,325.281 -121.106,321.489 -112.438,312.625C-104.054,302.207 -99.484,288.674 -95.045,276.217C-93.851,272.868 -92.635,269.528 -91.422,266.186C-90.807,264.493 -90.193,262.8 -89.581,261.106C-87.041,254.085 -84.416,247.099 -81.75,240.125C-76.896,227.39 -72.097,214.636 -67.312,201.875C-66.927,200.847 -66.541,199.819 -66.144,198.759C-60.346,183.292 -54.575,167.815 -48.821,152.332C-42.515,135.366 -36.168,118.417 -29.805,101.473C-27.572,95.525 -25.342,89.575 -23.113,83.625C-16.502,65.976 -9.87,48.335 -3.172,30.719C-2.797,29.728 -2.422,28.737 -2.036,27.716C-1.386,26.012 -0.726,24.312 -0.052,22.618C2.337,16.552 3.167,11.356 1,5.125C0.67,4.424 0.34,3.723 0,3L0,0Z" style="fill:rgb(249,250,248);fill-rule:nonzero;"/>
        </g>
        <g transform="matrix(1,0,0,1.110895,474.726562,665.552613)">
            <path d="M0,0C6.903,4.733 10.091,11.735 13.398,19.184C17.352,27.996 20.274,34.189 29.301,38.43C35.754,40.88 42.568,41.979 49.367,43.043C56.097,44.115 61.386,45.383 66.148,50.621C68.543,54.745 68.887,58.9 68.273,63.559C63.907,72.474 56.126,77.199 47.089,80.498C38.665,83.32 29.931,84.593 21.194,86.057C-6.416,90.794 -6.416,90.794 -29.727,105.559C-30.298,106.101 -30.869,106.644 -31.457,107.203C-35.727,111.705 -37.688,116.772 -39.727,122.559C-48.626,121.967 -57.408,120.823 -66.223,119.517C-70.071,118.948 -73.92,118.389 -77.77,117.832C-78.532,117.722 -79.295,117.611 -80.081,117.498C-87.971,116.365 -95.877,115.379 -103.794,114.459C-105.139,114.3 -105.139,114.3 -106.512,114.137C-107.284,114.048 -108.056,113.959 -108.852,113.868C-110.727,113.559 -110.727,113.559 -112.727,112.559C-113.374,101.082 -111.796,92.526 -104.457,83.484C-94.777,72.712 -82.27,66.764 -69.477,60.434C-51,51.269 -51,51.269 -39.688,34.484C-38.061,29.532 -36.826,24.463 -35.652,19.385C-33.651,11.126 -29.727,5.392 -22.727,0.559C-14.922,-3.617 -7.992,-3.342 0,0Z" style="fill:rgb(250,251,248);fill-rule:nonzero;"/>
        </g>
        <g transform="matrix(1,0,0,1.110895,772,528.422179)">
            <path d="M0,0L2,0C3.624,9.199 3.497,16.246 -0.492,24.793C-1.235,26.467 -1.975,28.143 -2.714,29.819C-3.286,31.102 -3.286,31.102 -3.869,32.411C-5.689,36.576 -7.35,40.8 -9.008,45.031C-9.34,45.874 -9.672,46.717 -10.014,47.586C-10.699,49.325 -11.383,51.065 -12.067,52.805C-13.918,57.52 -15.778,62.233 -17.637,66.945C-18.009,67.891 -18.382,68.836 -18.766,69.81C-22.131,78.342 -25.526,86.861 -28.938,95.375C-29.215,96.068 -29.493,96.762 -29.779,97.476C-30.93,100.349 -32.081,103.221 -33.232,106.092C-35.57,111.925 -37.905,117.759 -40.238,123.594C-40.604,124.509 -40.971,125.425 -41.348,126.368C-43.249,131.122 -45.15,135.876 -47.051,140.63C-50.477,149.198 -53.904,157.765 -57.342,166.328C-65.914,187.687 -74.414,209.073 -82.812,230.5C-83.239,231.589 -83.666,232.677 -84.106,233.799C-84.933,235.91 -85.76,238.021 -86.586,240.133C-87.363,242.119 -88.142,244.104 -88.922,246.088C-90.497,250.101 -92.058,254.112 -93.505,258.172C-95.598,263.975 -97.133,267.99 -102,272C-103.37,273.405 -104.727,274.823 -106.074,276.25C-107.612,277.834 -109.149,279.417 -110.688,281C-111.44,281.794 -112.192,282.588 -112.967,283.406C-113.724,284.18 -114.481,284.953 -115.262,285.75C-115.932,286.446 -116.602,287.142 -117.292,287.859C-124.862,293.843 -131.703,295.819 -141.258,295.559C-142.335,295.543 -143.412,295.526 -144.521,295.51C-157.419,295.161 -170.118,293.298 -182.857,291.366C-186.318,290.845 -189.782,290.346 -193.245,289.843C-201.129,288.694 -209.007,287.512 -216.885,286.32C-218.975,286.004 -221.065,285.688 -223.155,285.373C-234.679,283.632 -246.203,281.887 -257.72,280.096C-270.578,278.1 -283.446,276.224 -296.339,274.468C-307.091,273 -317.821,271.41 -328.551,269.793C-372.583,263.175 -416.701,256.56 -461,252C-461.92,251.9 -462.839,251.8 -463.786,251.696C-479.339,250.038 -496.815,249.144 -510,259C-515.033,263.624 -518.522,268.83 -519.316,275.758C-519.677,284.848 -517.639,292.048 -511.938,299.188C-502.026,309.648 -488.895,313.957 -475,316C-474.973,318.312 -474.954,320.625 -474.938,322.938C-474.926,324.225 -474.914,325.513 -474.902,326.84C-475,330 -475,330 -476,331C-494.466,331.431 -512.277,324.26 -525.551,311.648C-535.805,300.56 -537.779,288.903 -537.402,274.375C-536.755,262.732 -531.45,254.77 -523,247C-506.736,233.353 -483.79,234.856 -463.902,236.59C-459.346,237.035 -454.798,237.541 -450.25,238.062C-448.215,238.288 -446.181,238.512 -444.146,238.737C-424.061,240.989 -404.046,243.751 -384.037,246.586C-376.037,247.718 -368.033,248.821 -360.027,249.91C-335.475,253.255 -310.945,256.719 -286.438,260.375C-263.187,263.843 -239.916,267.128 -216.625,270.312C-215.099,270.521 -213.573,270.73 -212.047,270.939C-203.43,272.118 -194.811,273.285 -186.19,274.438C-183.359,274.817 -180.529,275.199 -177.7,275.583C-174.186,276.06 -170.672,276.53 -167.158,276.996C-165.246,277.251 -163.335,277.512 -161.424,277.773C-136.811,281.096 -136.811,281.096 -113.756,273.615C-103.335,265.477 -99.446,249.937 -94.812,238C-94.144,236.291 -93.475,234.582 -92.806,232.873C-91.474,229.47 -90.144,226.066 -88.817,222.66C-86.87,217.662 -84.906,212.671 -82.94,207.68C-79.618,199.247 -76.312,190.808 -73.029,182.36C-63.269,157.256 -53.261,132.27 -43.017,107.359C-38.759,96.996 -34.605,86.592 -30.463,76.183C-27.009,67.506 -23.537,58.837 -20.067,50.167C-18.128,45.32 -16.189,40.473 -14.25,35.625C-13.516,33.789 -12.781,31.953 -12.047,30.117C-11.7,29.251 -3.666,9.164 0,0Z" style="fill:rgb(248,249,247);fill-rule:nonzero;"/>
        </g>
        <g transform="matrix(1,0,0,1.110895,486,635.068093)">
            <path d="M0,0C8.341,7.132 12.491,16.263 17,26C20.618,33.686 23.998,40.851 30,47C28.708,49.934 27.484,51.685 24.938,53.625C21.992,55.671 21.992,55.671 21,58C25.205,56.949 27.583,55.519 30.688,52.625C32.789,51.016 32.789,51.016 35,50C37.705,50.452 39.85,51.507 42.344,52.648C48.211,54.817 54.328,55.53 60.5,56.427C71.76,58.179 82.568,61.791 89.672,71.219C93.508,77.856 94.258,84.48 93,92C88.342,104.972 79.308,113.777 67.176,119.924C56.236,124.971 44.601,128.048 32.766,130.109C11.798,133.772 11.798,133.772 -6,145C-7.581,147.243 -7.581,147.243 -8.75,149.625C-9.157,150.401 -9.565,151.177 -9.984,151.977C-10.657,153.317 -11.329,154.658 -12,156C-23.718,154.626 -35.356,152.898 -47,151C-40.81,137.192 -33.37,130.057 -19.562,123.875C-8.919,119.876 2.718,118.361 13.883,116.501C39.148,112.562 39.148,112.562 58.988,97.684C61.867,92.893 62.485,88.525 62,83C60.092,77.174 57.581,72.98 52.104,69.952C45.584,66.918 39.467,65.99 32.373,65.223C23.956,64.171 17.341,61.49 11.848,54.871C9.311,50.93 7.439,46.76 5.5,42.5C1.332,33.356 -2.516,25.422 -12.414,21.621C-21.674,19.397 -30.513,20.71 -38.895,24.961C-47.202,30.065 -50.41,39.31 -52.674,48.326C-53.184,50.487 -53.689,52.648 -54.189,54.811C-56.956,65.762 -62.406,73.039 -72,79C-75.632,81.053 -79.334,82.942 -83.062,84.812C-110.711,98.268 -110.711,98.268 -127.648,122.902C-128.169,126.008 -128.359,129.109 -128.562,132.25C-128.646,133.513 -128.73,134.777 -128.816,136.078C-128.877,137.042 -128.938,138.007 -129,139L-134,139C-137.352,132.081 -137.115,122.669 -135.348,115.27C-134.411,112.998 -133.346,111.055 -132,109C-131.526,108.267 -131.051,107.533 -130.562,106.777C-123.601,97.022 -114.242,91.034 -104.062,85.125C-92.002,78.098 -81.188,70.261 -75.75,56.938C-74.386,51.596 -73.941,46.514 -73.824,41.016C-73.8,39.915 -73.777,38.814 -73.752,37.68C-73.709,35.409 -73.678,33.138 -73.658,30.867C-73.386,19.994 -70.841,9.928 -63,2C-45.664,-12.151 -18.191,-13.207 0,0Z" style="fill:rgb(249,251,248);fill-rule:nonzero;"/>
        </g>
        <g transform="matrix(1,0,0,1.110895,435,445.105058)">
            <path d="M0,0C-1.874,5.062 -4.342,9.817 -6.76,14.634C-7.248,15.61 -7.736,16.586 -8.239,17.592C-9.877,20.868 -11.519,24.143 -13.16,27.417C-14.335,29.765 -15.509,32.113 -16.684,34.46C-19.216,39.522 -21.749,44.583 -24.284,49.643C-27.961,56.984 -31.635,64.327 -35.309,71.67C-41.286,83.616 -47.264,95.562 -53.243,107.507C-53.78,108.58 -53.78,108.58 -54.328,109.674C-57.226,115.463 -60.124,121.253 -63.023,127.042C-65.543,132.077 -68.063,137.111 -70.583,142.146C-70.938,142.855 -71.293,143.563 -71.658,144.293C-77.605,156.172 -83.55,168.053 -89.493,179.933C-93.149,187.241 -96.807,194.548 -100.466,201.854C-102.984,206.882 -105.501,211.911 -108.017,216.94C-109.461,219.828 -110.907,222.714 -112.353,225.601C-119.316,239.493 -126.135,253.444 -132.801,267.481C-135.711,273.593 -138.66,279.687 -141.611,285.779C-142.306,287.215 -143,288.652 -143.693,290.089C-144.723,292.224 -145.756,294.358 -146.789,296.492C-147.255,297.459 -147.255,297.459 -147.729,298.445C-149.886,302.886 -149.886,302.886 -151,304C-153.602,304.47 -156.201,304.901 -158.812,305.312C-165.304,306.387 -171.382,307.876 -177.582,310.133C-179.711,310.896 -181.797,311.497 -184,312C-182.568,308.305 -180.962,304.738 -179.242,301.168C-178.698,300.038 -178.154,298.908 -177.594,297.744C-176.743,295.984 -176.743,295.984 -175.875,294.188C-175.331,293.056 -174.787,291.925 -174.227,290.76C-171.28,284.65 -168.294,278.563 -165.255,272.499C-164.546,271.083 -163.836,269.666 -163.127,268.249C-162.594,267.183 -162.594,267.183 -162.049,266.096C-160.45,262.901 -158.854,259.705 -157.258,256.509C-156.624,255.24 -155.99,253.97 -155.356,252.701C-154.872,251.731 -154.872,251.731 -154.378,250.742C-146.762,235.493 -139.144,220.245 -131.525,204.998C-127.135,196.213 -122.746,187.427 -118.358,178.641C-114.505,170.924 -110.65,163.208 -106.793,155.492C-104.762,151.428 -102.731,147.364 -100.702,143.299C-85.369,112.578 -85.369,112.578 -78.046,98.875C-74.484,92.188 -71.169,85.372 -67.81,78.581C-60.883,64.591 -53.794,50.743 -46.168,37.119C-45.079,35.143 -44.03,33.152 -43,31.145C-36.41,18.362 -28.153,6.643 -14,2C-9.35,0.903 -4.786,0 0,0Z" style="fill:rgb(250,251,248);fill-rule:nonzero;"/>
        </g>
        <g transform="matrix(1,0,0,1.110895,425.308716,829.808099)">
            <path d="M0,0C15.1,2.368 30.234,4.451 45.379,6.512C65.715,9.282 86.023,12.194 106.316,15.262C108.183,15.544 108.183,15.544 110.087,15.832C115.028,16.579 119.969,17.326 124.911,18.074C136.369,19.807 147.832,21.508 159.298,23.186C161.309,23.481 163.321,23.776 165.331,24.073C196.603,30.299 196.603,30.299 226.754,24.137C233.175,18.809 238.429,12.15 243.691,5.7C244.351,6.03 245.011,6.36 245.691,6.7C244.333,10.186 242.952,13.662 241.566,17.137C241.187,18.111 240.808,19.085 240.418,20.089C236.458,29.955 231.495,39.652 221.703,44.731C207.804,50.219 190.435,45.339 176.254,43.262C173.715,42.897 171.177,42.533 168.638,42.17C162.645,41.31 156.654,40.441 150.663,39.569C144.935,38.734 139.206,37.908 133.476,37.083C118.713,34.956 103.952,32.806 89.193,30.649C83.843,29.868 78.494,29.088 73.144,28.31C65.643,27.218 58.143,26.124 50.643,25.029C46.608,24.439 42.572,23.85 38.536,23.263C20.159,20.589 1.807,17.801 -16.52,14.798C-25.265,13.371 -34.027,12.065 -42.797,10.801C-47.664,10.094 -52.526,9.362 -57.386,8.613C-86.274,4.164 -115.08,0.818 -144.309,-0.3L-144.309,2.7C-143.307,2.76 -142.306,2.821 -141.274,2.883C-139.931,2.968 -138.589,3.053 -137.246,3.137C-135.935,3.219 -134.624,3.3 -133.274,3.383C-129.572,3.679 -125.975,4.133 -122.309,4.7C-122.45,6.159 -122.597,7.617 -122.746,9.075C-122.827,9.887 -122.909,10.699 -122.992,11.536C-123.309,13.7 -123.309,13.7 -124.309,15.7C-125.788,15.555 -127.267,15.409 -128.746,15.262C-129.664,15.172 -130.582,15.082 -131.527,14.989C-133.94,14.738 -136.341,14.442 -138.746,14.137C-143.93,13.543 -149.099,13.612 -154.309,13.7C-150.63,15.337 -147.347,16.101 -143.352,16.551C-142.24,16.68 -141.128,16.809 -139.983,16.942C-138.832,17.068 -137.682,17.195 -136.496,17.325C-135.326,17.459 -134.157,17.593 -132.951,17.731C-130.071,18.06 -127.19,18.383 -124.309,18.7C-124.639,20.35 -124.969,22 -125.309,23.7C-131.338,23.187 -137.329,22.63 -143.309,21.7C-142.979,22.36 -142.649,23.02 -142.309,23.7C-139.618,24.5 -136.977,25.195 -134.246,25.825C-133.488,26.007 -132.729,26.188 -131.947,26.376C-130.07,26.824 -128.189,27.263 -126.309,27.7L-126.309,38.7C-136.315,39.548 -145.217,36.323 -153.246,30.325C-159.554,24.978 -165.49,19.094 -166.59,10.505C-166.85,4.106 -165.054,-0.481 -161.684,-5.925C-132.174,-35.435 -36.409,-5.718 0,0Z" style="fill:rgb(248,250,247);fill-rule:nonzero;"/>
        </g>
        <g transform="matrix(1,0,0,1.110895,777,552.861868)">
            <path d="M0,0C2.82,2.82 4.233,6.133 5,10C4.756,17.338 2.042,23.373 -0.812,30.062C-1.827,32.494 -2.839,34.926 -3.848,37.359C-4.109,37.987 -4.37,38.615 -4.639,39.262C-7.462,46.066 -10.111,52.936 -12.75,59.812C-17.19,71.357 -21.698,82.874 -26.25,94.375C-34.234,114.557 -42.133,134.772 -50,155C-50.42,156.079 -50.42,156.079 -50.848,157.18C-57.014,173.041 -63.123,188.923 -69.19,204.823C-73.972,217.35 -78.805,229.857 -83.683,242.347C-84.268,243.844 -84.853,245.342 -85.438,246.84C-85.873,247.956 -85.873,247.956 -86.318,249.095C-88.166,253.839 -89.994,258.59 -91.808,263.348C-93.048,266.598 -94.295,269.847 -95.541,273.095C-96.127,274.627 -96.71,276.16 -97.29,277.695C-108.518,307.41 -108.518,307.41 -120.695,313.305C-141.459,321.005 -167.17,314.412 -188.27,311.129C-189.389,310.956 -190.509,310.783 -191.663,310.604C-195.109,310.071 -198.554,309.536 -202,309C-203.556,308.758 -203.556,308.758 -205.143,308.512C-207.16,308.198 -209.176,307.885 -211.192,307.572C-233.34,304.13 -255.492,300.75 -277.688,297.625C-324.547,291.02 -371.287,283.557 -418,276C-418.027,274.583 -418.047,273.167 -418.062,271.75C-418.08,270.567 -418.08,270.567 -418.098,269.359C-418.004,267.093 -417.632,265.171 -417,263C-402.333,264.403 -387.752,266.32 -373.16,268.349C-369.403,268.871 -365.645,269.387 -361.887,269.902C-349.204,271.651 -336.548,273.509 -323.912,275.563C-313.748,277.214 -303.566,278.714 -293.375,280.188C-291.345,280.482 -289.315,280.777 -287.285,281.072C-263.258,284.557 -239.221,287.98 -215.185,291.404C-207.124,292.553 -199.064,293.709 -191.004,294.871C-188.125,295.285 -185.245,295.7 -182.366,296.114C-180.61,296.367 -178.854,296.621 -177.098,296.876C-149.471,302.085 -149.471,302.085 -123,296C-110.831,286.905 -106.508,271.224 -101.422,257.509C-98.093,248.535 -94.682,239.592 -91.281,230.645C-90.052,227.41 -88.824,224.175 -87.596,220.94C-75.251,188.443 -62.711,156.023 -49.726,123.777C-46.229,115.091 -42.756,106.396 -39.28,97.701C-37.745,93.863 -36.21,90.025 -34.674,86.187C-31.365,77.915 -28.058,69.642 -24.754,61.367C-16.573,40.882 -8.332,20.424 0,0Z" style="fill:rgb(248,249,247);fill-rule:nonzero;"/>
        </g>
        <g transform="matrix(1,0,0,1.110895,784,577.301556)">
            <path d="M0,0C0.66,0.33 1.32,0.66 2,1C2.488,6.728 0.767,10.996 -1.305,16.215C-1.655,17.121 -2.006,18.028 -2.367,18.962C-3.527,21.957 -4.701,24.947 -5.875,27.938C-6.694,30.047 -7.512,32.156 -8.329,34.266C-10.031,38.657 -11.737,43.046 -13.447,47.434C-17.02,56.611 -20.545,65.808 -24.065,75.006C-25.193,77.951 -26.321,80.897 -27.45,83.842C-34.11,101.234 -40.657,118.667 -47.173,136.113C-49.025,141.068 -50.881,146.02 -52.738,150.973C-53.049,151.8 -53.359,152.627 -53.678,153.479C-54.931,156.817 -56.183,160.155 -57.435,163.493C-60.591,171.904 -63.745,180.315 -66.889,188.731C-73.36,206.05 -79.852,223.359 -86.572,240.584C-89.221,247.378 -91.829,254.186 -94.387,261.016C-95.249,263.309 -96.113,265.602 -96.976,267.895C-97.522,269.351 -98.065,270.807 -98.604,272.266C-109.777,302.483 -109.777,302.483 -124.008,309.273C-139.901,315.07 -160.009,310.595 -176.1,307.823C-184.468,306.385 -192.85,305.118 -201.258,303.945C-205.065,303.413 -208.87,302.872 -212.675,302.332C-213.454,302.221 -214.233,302.111 -215.035,301.997C-222.981,300.866 -230.919,299.687 -238.855,298.492C-239.9,298.335 -239.9,298.335 -240.965,298.175C-245.29,297.523 -249.615,296.869 -253.939,296.215C-256.238,295.867 -258.537,295.52 -260.836,295.173C-287.416,291.162 -313.99,287.112 -340.56,283.038C-356.368,280.613 -372.181,278.22 -388.003,275.886C-396.068,274.697 -404.128,273.476 -412.188,272.25C-413.654,272.027 -415.121,271.805 -416.588,271.582C-420.059,271.055 -423.529,270.528 -427,270C-427.125,262.375 -427.125,262.375 -426,259C-416.919,259.613 -407.983,260.803 -398.992,262.195C-397.508,262.422 -396.023,262.648 -394.538,262.875C-391.336,263.363 -388.134,263.854 -384.933,264.347C-379.773,265.141 -374.612,265.93 -369.45,266.718C-352.74,269.27 -336.032,271.841 -319.324,274.412C-307.612,276.214 -295.9,278.014 -284.188,279.812C-283.136,279.974 -282.084,280.136 -281,280.302C-251.988,284.757 -222.972,289.118 -193.881,293.04C-188.895,293.719 -183.93,294.477 -178.965,295.297C-167.907,297.121 -157.162,298.356 -145.938,298.438C-144.884,298.448 -143.83,298.458 -142.744,298.469C-132.409,298.349 -122.805,296.106 -115,289C-106.17,278.144 -101.954,264.036 -97.143,251.082C-93.009,239.961 -88.752,228.888 -84.5,217.812C-78.39,201.893 -72.326,185.956 -66.312,170C-58.633,149.631 -50.851,129.303 -43,109C-42.63,108.042 -42.259,107.084 -41.878,106.097C-28.168,70.63 -14.456,35.171 0,0Z" style="fill:rgb(246,247,245);fill-rule:nonzero;"/>
        </g>
        <g transform="matrix(1,0,0,1.110895,309,838.361868)">
            <path d="M0,0C8.001,-0.282 15.802,0.665 23.723,1.654C26.022,1.94 28.321,2.216 30.621,2.49C32.081,2.669 33.54,2.848 35,3.027C35.688,3.11 36.377,3.192 37.086,3.277C41.885,3.885 41.885,3.885 43,5C42.958,7.089 42.836,9.177 42.684,11.262C42.636,11.924 42.588,12.587 42.538,13.269C41.919,21.533 41.119,29.781 40.329,38.03C38.704,55.008 37.199,71.986 36,89C32.977,87.657 30.999,86.199 28.758,83.777C28.166,83.157 27.574,82.536 26.965,81.896C25.74,80.592 24.521,79.282 23.309,77.967C20.683,75.23 18.584,73.261 15.098,71.703C10.219,72.171 7.129,74.892 3.312,77.812C2.554,78.373 1.795,78.933 1.014,79.51C-0.395,80.55 -1.798,81.598 -3.194,82.656C-4.76,83.821 -6.376,84.917 -8,86C-6.514,65.457 -4.881,44.937 -2.875,24.438C-2.789,23.552 -2.703,22.666 -2.614,21.753C-2.368,19.23 -2.118,16.707 -1.867,14.184C-1.758,13.07 -1.758,13.07 -1.647,11.935C-1.241,7.925 -0.711,3.967 0,0Z" style="fill:rgb(250,251,248);fill-rule:nonzero;"/>
        </g>
        <g transform="matrix(1,0,0,1.110895,531.105469,585.477049)">
            <path d="M0,0C3.449,2.759 5.944,5.206 6.895,9.641C7.295,16.159 6.074,21.19 3.957,27.328C0.066,38.93 -2.476,50.441 3.047,62.066C8.401,70.891 16.171,75.012 25.895,77.641C29.814,78.413 33.755,78.996 37.707,79.578C57.641,82.745 73.631,88.932 86.117,105.609C96.004,120.541 100.019,137.971 96.479,155.727C95.418,159.615 93.798,163.102 91.895,166.641C91.483,167.446 91.072,168.252 90.648,169.082C87.11,175.455 82.583,181.188 78.121,186.933C73.825,192.513 70.647,197.295 70.207,204.516C70.108,205.966 70.108,205.966 70.008,207.445C69.97,208.17 69.933,208.894 69.895,209.641C68.245,208.981 66.595,208.321 64.895,207.641C63.317,200.542 64.284,195.949 67.895,189.641C70.771,185.472 73.889,181.483 76.98,177.473C80.365,173.066 83.367,168.596 85.895,163.641C86.509,162.496 86.509,162.496 87.137,161.328C92.286,149.965 91.449,135.229 87.832,123.516C82.344,109.411 73.612,98.326 59.895,91.641C50.07,88.041 40.025,86.253 29.736,84.574C22.692,83.358 16.402,81.62 9.895,78.641C9.601,79.424 9.308,80.207 9.005,81.014C7.764,83.95 6.463,85.363 4.082,87.453C3.416,88.058 2.749,88.662 2.062,89.285C-0.528,90.905 -2.105,90.908 -5.105,90.641C-2.247,87.232 0.544,83.962 3.832,80.953C6.085,78.907 6.085,78.907 6.02,76.641C4.935,74.468 4.935,74.468 2.707,72.641C-3.276,67.059 -6.54,58.259 -7.344,50.273C-7.64,40.279 -4.719,31.02 -1.355,21.703C0.096,17.445 0.419,14.137 -0.105,9.641C-2.503,5.556 -4.653,4.026 -9.105,2.641C-20.755,1.537 -30.937,3.091 -41.992,6.686C-45.769,7.909 -49.575,9.035 -53.383,10.16C-54.134,10.383 -54.885,10.605 -55.66,10.835C-68.062,14.445 -80.789,15.957 -93.598,17.359C-121.563,20.213 -121.563,20.213 -144.668,35.141C-150.565,43.056 -150.86,49.914 -150.105,59.641C-149.682,62.386 -149.148,65.104 -148.605,67.828C-145.835,81.982 -144.878,96.502 -152.66,109.172C-161.706,121.75 -176.039,128.419 -189.396,135.435C-196.637,139.248 -203.635,143.256 -210.386,147.885C-214.609,150.691 -214.609,150.691 -217.52,150.395C-218.043,150.146 -218.566,149.897 -219.105,149.641C-212.743,140.915 -203.639,136.519 -194.309,131.523C-193.269,130.966 -192.229,130.409 -191.158,129.834C-189.093,128.734 -187.023,127.642 -184.948,126.56C-172.849,120.152 -159.59,112.35 -154.762,98.781C-152.472,87.826 -153.877,76.574 -156.022,65.72C-158.26,54.126 -158.417,43.565 -151.668,33.496C-139.676,18.419 -119.297,13.774 -101.105,11.641C-96.905,11.192 -92.7,10.797 -88.495,10.4C-73.728,8.971 -59.95,5.614 -45.74,1.418C-12.84,-8.29 -12.84,-8.29 0,0Z" style="fill:rgb(6,6,6);fill-rule:nonzero;"/>
        </g>
        <g transform="matrix(1,0,0,1.110895,434,513.980545)">
            <path d="M0,0C0.66,0.33 1.32,0.66 2,1C1.012,5.036 0.177,7.729 -2.125,11.25C-4.914,15.884 -4.762,20.765 -4,26C-2.485,29.306 -1.284,30.479 2.073,31.841C8.36,33.819 13.991,34.442 20.562,34.312C22.004,34.296 22.004,34.296 23.475,34.278C32.092,34.115 40.491,33.328 49,32C49.755,31.887 50.511,31.774 51.289,31.658C67.481,29.195 83.455,25.613 99.441,22.086C100.779,21.793 100.779,21.793 102.143,21.495C103.818,21.128 105.491,20.758 107.164,20.383C120.874,17.392 139.16,14.954 151.625,22.938C152.801,23.958 152.801,23.958 154,25C154.743,25.619 155.485,26.238 156.25,26.875C159.413,30.716 160.23,34.364 159.938,39.25C158.07,51.777 149.059,60.067 140.375,68.5C131.47,77.327 123.971,88.366 123.75,101.25C123.854,108.385 125.248,113.391 130.062,118.75C139.418,127.075 152.89,127.843 164.76,129.852C180.473,132.537 194.546,135.775 205.875,147.875C210.212,154.253 211.508,160.378 211,168C210.836,168.733 210.673,169.467 210.504,170.223C208.775,179.751 208.415,191.715 214,200C217.539,203.873 221.239,206.789 226,209L226,212C220.875,212.641 217.997,211.283 213.887,208.473C208.059,203.924 204.651,198.177 203,191C202.341,183.698 202.396,176.162 204,169C204.952,161.673 203.234,156.047 199,150C188.189,138.805 169.899,136.938 155.25,134.5C142.859,132.389 130.488,129.839 122.086,119.688C116.543,111.702 116.28,104.642 117,95C120.003,81.215 130.1,67.886 141.188,59.438C147.68,53.81 152.304,46.566 153.375,38C152.859,33.868 151.822,32.091 149,29C142.348,25.358 135.991,24.317 128.5,24.438C127.509,24.448 126.519,24.458 125.498,24.469C109.404,24.913 93.814,29.117 78.197,32.704C77.203,32.932 77.203,32.932 76.19,33.165C74.858,33.471 73.526,33.778 72.195,34.085C56.637,37.665 40.973,40.296 25,41C24.085,41.041 23.17,41.083 22.227,41.125C11.212,41.377 0.418,40.815 -8,33C-11.878,27.947 -11.769,22.123 -11,16C-9.082,9.55 -4.541,4.796 0,0Z" style="fill:rgb(6,6,6);fill-rule:nonzero;"/>
        </g>
        <g transform="matrix(1,0,0,1.110895,742,537.309339)">
            <path d="M0,0C0,6.284 -2.369,9.355 -6.672,13.816C-18.985,25.365 -35.857,31.417 -51.312,37.625C-74.617,45.988 -74.617,45.988 -91,63C-91.58,66.457 -91.87,69.589 -91,73C-87.73,76.962 -84.269,79.193 -79.688,81.438C-78.787,81.879 -78.787,81.879 -77.868,82.33C-72.58,84.859 -67.137,86.873 -61.632,88.871C-52.477,92.23 -43.497,96.586 -38.062,105C-36.928,108.203 -36.759,110.628 -37,114L-41,114C-41.268,113.42 -41.536,112.84 -41.812,112.242C-48.727,98.459 -63.54,94.107 -77.375,89.5C-85.992,86.5 -93.667,82.289 -98,74C-99.509,69.474 -99.575,65.653 -98,61.125C-86.189,42.67 -64.907,36.24 -45.542,28.294C-22.247,18.827 -22.247,18.827 -4,2C-1,0 -1,0 0,0Z" style="fill:rgb(6,6,6);fill-rule:nonzero;"/>
        </g>
        <g transform="matrix(1,0,0,1.110895,482.769531,714.427651)">
            <path d="M0,0C5.075,3.555 9.515,8.581 10.637,14.824C10.869,20.828 9.805,24.717 6.18,29.543C2.713,33.135 -1.408,35.221 -5.77,37.562C-8.007,38.902 -10.236,40.257 -12.457,41.625C-13.548,42.297 -14.638,42.968 -15.762,43.66C-19.205,45.838 -22.502,48.131 -25.77,50.562C-26.43,49.903 -27.09,49.242 -27.77,48.562C-24.048,43.591 -20.288,40.68 -14.957,37.562C-13.529,36.696 -12.101,35.828 -10.676,34.957C-9.999,34.545 -9.322,34.134 -8.625,33.709C-0.765,28.967 -0.765,28.967 4.23,21.562C5.038,16.211 3.908,12.714 0.906,8.367C-2.649,4.539 -6.916,2.839 -12.07,2.34C-20.583,2.707 -25.549,8.238 -31.082,14.125C-31.718,14.848 -32.353,15.571 -33.008,16.316C-40.56,22.459 -49.88,24.569 -59.207,26.562C-73.64,29.854 -85.276,33.649 -95.77,44.562L-96.77,44.562C-97.019,41.682 -97.078,40.051 -95.512,37.57C-84.966,26.936 -72.029,23.537 -57.942,20.104C-46.529,17.261 -39.392,13.364 -31.27,4.938C-22.088,-4.354 -11.786,-6.596 0,0Z" style="fill:rgb(7,7,7);fill-rule:nonzero;"/>
        </g>
        <g transform="matrix(1,0,0,1.110895,661.5625,715.955131)">
            <path d="M0,0C2.438,0.188 2.438,0.188 3.438,1.188C3.625,3.625 3.625,3.625 3.438,6.188C1.438,8.188 1.438,8.188 -1.125,8.375C-3.562,8.188 -3.562,8.188 -4.562,7.188C-4.75,4.75 -4.75,4.75 -4.562,2.188C-2.562,0.188 -2.562,0.188 0,0Z" style="fill:rgb(5,5,5);fill-rule:nonzero;"/>
        </g>
        <g transform="matrix(1,0,0,1.110895,418,762.821012)">
            <path d="M0,0L0,6C-2.875,6.625 -2.875,6.625 -6,7C-6.66,6.34 -7.32,5.68 -8,5C-7.75,2.438 -7.75,2.438 -7,0C-4.333,-1.333 -2.833,-0.671 0,0Z" style="fill:rgb(10,10,10);fill-rule:nonzero;"/>
        </g>
        <g transform="matrix(1,0,0,1.110895,426.6875,567.720088)">
            <path d="M0,0C0.763,0.206 1.526,0.412 2.312,0.625C2.438,3 2.438,3 2.312,5.625C1.653,6.285 0.993,6.945 0.312,7.625C-2.312,7.25 -2.312,7.25 -4.688,6.625C-5.018,4.975 -5.348,3.325 -5.688,1.625C-2.688,-0.375 -2.688,-0.375 0,0Z" style="fill:rgb(16,17,16);fill-rule:nonzero;"/>
        </g>
        <g transform="matrix(1,0,0,1.110895,451,480.653696)">
            <path d="M0,0C2.625,0.375 2.625,0.375 5,1C5.33,2.65 5.66,4.3 6,6C3,8 3,8 0.312,7.625C-0.451,7.419 -1.214,7.213 -2,7C-2.125,4.625 -2.125,4.625 -2,2C-1.34,1.34 -0.68,0.68 0,0Z" style="fill:rgb(17,18,17);fill-rule:nonzero;"/>
        </g>
        <g transform="matrix(1,0,0,1.110895,570,785.038911)">
            <path d="M0,0C1.65,0.33 3.3,0.66 5,1C5.043,3 5.041,5 5,7C4,8 4,8 1.438,8.062C0.633,8.042 -0.171,8.021 -1,8C-1.625,5.688 -1.625,5.688 -2,3C-1.34,2.01 -0.68,1.02 0,0Z" style="fill:rgb(10,10,10);fill-rule:nonzero;"/>
        </g>
        <g transform="matrix(1,0,0,1.110895,784,577.301556)">
            <path d="M0,0C0.66,0.33 1.32,0.66 2,1C2.407,6.42 1.04,10.07 -1,15C-1.33,14.34 -1.66,13.68 -2,13C-2.99,13.33 -3.98,13.66 -5,14C-3.457,9.279 -1.922,4.583 0,0Z" style="fill:rgb(236,237,236);fill-rule:nonzero;"/>
        </g>
        <g transform="matrix(1,0,0,1.110895,630,515.09144)">
            <path d="M0,0C2.625,0.375 2.625,0.375 5,1C5.043,2.666 5.041,4.334 5,6C4,7 4,7 1.438,7.062C0.231,7.032 0.231,7.032 -1,7C-1.625,4.625 -1.625,4.625 -2,2C-1.34,1.34 -0.68,0.68 0,0Z" style="fill:rgb(12,13,12);fill-rule:nonzero;"/>
        </g>
        <g transform="matrix(1,0,0,1.110895,301,850.581712)">
            <path d="M0,0C-0.33,1.65 -0.66,3.3 -1,5C-2.813,4.886 -4.626,4.759 -6.438,4.625C-7.952,4.521 -7.952,4.521 -9.496,4.414C-10.322,4.277 -11.149,4.141 -12,4C-12.33,3.34 -12.66,2.68 -13,2C-8.463,0.548 -4.819,-0.235 0,0Z" style="fill:rgb(226,227,225);fill-rule:nonzero;"/>
        </g>
        <g transform="matrix(1,0,0,1.110895,722,517.31323)">
            <path d="M0,0C2.625,0.375 2.625,0.375 5,1L5,5C3.02,5.33 1.04,5.66 -1,6C-1.625,4.125 -1.625,4.125 -2,2C-1.34,1.34 -0.68,0.68 0,0Z" style="fill:rgb(16,16,16);fill-rule:nonzero;"/>
        </g>
        <g transform="matrix(1,0,0,1.110895,727.5625,497.24769)">
            <path d="M0,0C1.207,0.031 1.207,0.031 2.438,0.062L2.438,5.062C0.787,5.393 -0.863,5.723 -2.562,6.062C-2.945,4.406 -3.276,2.738 -3.562,1.062C-2.562,0.062 -2.562,0.062 0,0Z" style="fill:rgb(6,7,7);fill-rule:nonzero;"/>
        </g>
        <g transform="matrix(1,0,0,1.110895,408,441.772374)">
            <path d="M0,0C-2.052,2.248 -3.007,3.002 -6,4C-6.33,3.01 -6.66,2.02 -7,1C-4.537,-0.231 -2.72,-0.072 0,0Z" style="fill:rgb(78,91,51);fill-rule:nonzero;"/>
        </g>
        <g transform="matrix(1,0,0,1.110895,440,435.107004)">
            <path d="M0,0L-10,0L-10,-1C-5.466,-2.03 -4.355,-2.178 0,0Z" style="fill:rgb(69,80,44);fill-rule:nonzero;"/>
        </g>
        <g transform="matrix(1,0,0,1.110895,422,433.996109)">
            <path d="M0,0L2,0C1.67,0.99 1.34,1.98 1,3C0.01,2.67 -0.98,2.34 -2,2L0,2L0,0Z" style="fill:rgb(75,85,47);fill-rule:nonzero;"/>
        </g>
        <g transform="matrix(1,0,0,1.110895,484,436.217899)">
            <rect x="0" y="0" width="5" height="1" style="fill:rgb(74,87,47);fill-rule:nonzero;"/>
        </g>
        <g transform="matrix(1,0,0,1.110895,297,655.064202)">
            <path d="M0,0C0.99,0.33 1.98,0.66 3,1L0,1L0,0Z" style="fill:rgb(70,81,45);fill-rule:nonzero;"/>
        </g>
        <g transform="matrix(1,0,0,1.110895,747,468.433852)">
            <path d="M0,0L4,1L0,0Z" style="fill:rgb(75,89,49);fill-rule:nonzero;"/>
        </g>
        <g transform="matrix(1,0,0,1.110895,601,952.784047)">
            <path d="M0,0L3,1L0,0Z" style="fill:rgb(63,73,39);fill-rule:nonzero;"/>
        </g>
        <g transform="matrix(1,0,0,1.110895,291,906.126459)">
            <path d="M0,0L2,0C1.67,0.66 1.34,1.32 1,2C0.67,1.34 0.34,0.68 0,0Z" style="fill:rgb(58,66,37);fill-rule:nonzero;"/>
        </g>
        <g transform="matrix(1,0,0,1.110895,266,900.571984)">
            <path d="M0,0L3,1L0,0Z" style="fill:rgb(58,68,38);fill-rule:nonzero;"/>
        </g>
        <g transform="matrix(1,0,0,1.110895,224,859.468872)">
            <path d="M0,0C0.66,0.66 1.32,1.32 2,2L0,2L0,0Z" style="fill:rgb(67,79,43);fill-rule:nonzero;"/>
        </g>
        <g transform="matrix(1,0,0,1.110895,306,639.511673)">
            <path d="M0,0C0.99,0.495 0.99,0.495 2,1C1.01,1.495 1.01,1.495 0,2L0,0Z" style="fill:rgb(69,80,45);fill-rule:nonzero;"/>
        </g>
        <g transform="matrix(1,0,0,1.110895,360,516.202335)">
            <path d="M0,0L2,0C1.67,0.66 1.34,1.32 1,2C0.67,1.34 0.34,0.68 0,0Z" style="fill:rgb(66,77,42);fill-rule:nonzero;"/>
        </g>
        <g transform="matrix(1,0,0,1.110895,706,461.768482)">
            <path d="M0,0C0.99,0.495 0.99,0.495 2,1C1.01,1.495 1.01,1.495 0,2L0,0Z" style="fill:rgb(80,94,49);fill-rule:nonzero;"/>
        </g>
        <g transform="matrix(1,0,0,1.110895,679,459.546693)">
            <path d="M0,0L3,1L0,0Z" style="fill:rgb(75,88,48);fill-rule:nonzero;"/>
        </g>
        <g transform="matrix(1,0,0,1.110895,474,433.996109)">
            <path d="M0,0C0.33,0.66 0.66,1.32 1,2C0.34,1.67 -0.32,1.34 -1,1C-0.67,0.67 -0.34,0.34 0,0Z" style="fill:rgb(72,85,48);fill-rule:nonzero;"/>
        </g>
        <g transform="matrix(1,0,0,1.110895,426,433.996109)">
            <path d="M0,0C0.33,0.66 0.66,1.32 1,2C0.34,1.67 -0.32,1.34 -1,1C-0.67,0.67 -0.34,0.34 0,0Z" style="fill:rgb(73,85,49);fill-rule:nonzero;"/>
        </g>
        <g transform="matrix(1,0,0,1.110895,553,945.007782)">
            <path d="M0,0L2,1L0,0Z" style="fill:rgb(63,69,40);fill-rule:nonzero;"/>
        </g>
        <g transform="matrix(1,0,0,1.110895,538,942.785992)">
            <path d="M0,0L2,1L0,0Z" style="fill:rgb(61,71,37);fill-rule:nonzero;"/>
        </g>
        <g transform="matrix(1,0,0,1.110895,289,935.009728)">
            <path d="M0,0L2,1L0,0Z" style="fill:rgb(57,68,36);fill-rule:nonzero;"/>
        </g>
        <g transform="matrix(1,0,0,1.110895,269,901.682879)">
            <path d="M0,0L2,1L0,0Z" style="fill:rgb(57,66,36);fill-rule:nonzero;"/>
        </g>
        <g transform="matrix(1,0,0,1.110895,227,816.143969)">
            <path d="M0,0L2,1L0,0Z" style="fill:rgb(68,80,42);fill-rule:nonzero;"/>
        </g>
        <g transform="matrix(1,0,0,1.110895,345,548.418288)">
            <path d="M0,0L2,1L0,0Z" style="fill:rgb(68,80,44);fill-rule:nonzero;"/>
        </g>
        <g transform="matrix(1,0,0,1.110895,776,477.321012)">
            <path d="M0,0L2,1L0,0Z" style="fill:rgb(77,91,52);fill-rule:nonzero;"/>
        </g>
        <g transform="matrix(1,0,0,1.110895,376,477.321012)">
            <path d="M0,0L2,1L0,0Z" style="fill:rgb(71,84,45);fill-rule:nonzero;"/>
        </g>
        <g transform="matrix(1,0,0,1.110895,768,472.877432)">
            <path d="M0,0L2,1L0,0Z" style="fill:rgb(80,93,49);fill-rule:nonzero;"/>
        </g>
        <g transform="matrix(1,0,0,1.110895,828,466.212062)">
            <path d="M0,0L2,1L0,0Z" style="fill:rgb(138,159,85);fill-rule:nonzero;"/>
        </g>
        <g transform="matrix(1,0,0,1.110895,697,461.768482)">
            <path d="M0,0L2,1L0,0Z" style="fill:rgb(79,92,52);fill-rule:nonzero;"/>
        </g>
        <g transform="matrix(1,0,0,1.110895,387,461.768482)">
            <path d="M0,0L2,1L0,0Z" style="fill:rgb(74,88,48);fill-rule:nonzero;"/>
        </g>
        <g transform="matrix(1,0,0,1.110895,684,459.546693)">
            <path d="M0,0L2,1L0,0Z" style="fill:rgb(78,89,48);fill-rule:nonzero;"/>
        </g>
        <g transform="matrix(1,0,0,1.110895,572,446.215953)">
            <path d="M0,0L2,1L0,0Z" style="fill:rgb(78,92,48);fill-rule:nonzero;"/>
        </g>
        <g transform="matrix(1,0,0,1.110895,460,433.996109)">
            <path d="M0,0L2,1L0,0Z" style="fill:rgb(73,82,44);fill-rule:nonzero;"/>
        </g>
    </g>
</svg>
