<?xml version="1.0" encoding="UTF-8" standalone="no"?>
<!DOCTYPE svg PUBLIC "-//W3C//DTD SVG 1.1//EN" "http://www.w3.org/Graphics/SVG/1.1/DTD/svg11.dtd">
<svg width="100%" height="100%" viewBox="0 0 513 642" version="1.1" xmlns="http://www.w3.org/2000/svg" xmlns:xlink="http://www.w3.org/1999/xlink" xml:space="preserve" xmlns:serif="http://www.serif.com/" style="fill-rule:evenodd;clip-rule:evenodd;stroke-linejoin:round;stroke-miterlimit:2;">
    <g id="Artboard1" transform="matrix(0.673228,0,0,0.797516,-100.984252,-248.824845)">
        <rect x="150" y="312" width="762" height="805" style="fill:none;"/>
        <g transform="matrix(1.48538,0,0,1.253894,793.169591,355.886293)">
            <path d="M0,0C1.015,0.866 1.015,0.866 2.051,1.75C9.815,8.932 14.203,18.439 14.961,28.914C15.093,39.355 12.075,48.496 8,58C9.141,58.439 9.141,58.439 10.305,58.887C15.66,61.099 19.573,63.635 22,69C23.117,73.608 22.864,76.568 21.379,81.051C21.003,82.189 20.626,83.326 20.239,84.499C18.254,90.11 16.141,95.659 13.938,101.188C13.461,102.391 12.984,103.595 12.493,104.836C5.242,123.08 -2.467,141.129 -10.628,158.983C-11.921,161.827 -13.201,164.677 -14.477,167.529C-22.29,184.973 -30.458,202.213 -39,219.312C-39.661,220.639 -39.661,220.639 -40.335,221.993C-44.512,230.366 -48.733,238.722 -53.25,246.918C-54.124,248.514 -54.124,248.514 -55.016,250.141C-57.398,253.573 -59.608,255.561 -63,258C-66.71,258.512 -68.959,258.466 -72.375,256.938C-74.713,254.15 -75.207,251.549 -75,248C-73.798,244.417 -72.05,241.17 -70.27,237.844C-69.764,236.865 -69.258,235.886 -68.737,234.878C-67.113,231.743 -65.463,228.621 -63.812,225.5C-62.752,223.463 -61.692,221.425 -60.635,219.387C-57.979,214.276 -55.303,209.177 -52.62,204.08C-42.684,185.323 -42.684,185.323 -33.25,166.312C-32.531,164.808 -32.531,164.808 -31.798,163.273C-21.551,141.632 -12.079,119.621 -2.625,97.625C-2.302,96.875 -1.979,96.125 -1.646,95.352C-0.733,93.228 0.177,91.103 1.086,88.977C1.602,87.771 2.118,86.565 2.65,85.323C4.98,79.589 6.25,75.238 6,69C5.34,68.67 4.68,68.34 4,68C-3.171,83.259 -10.184,98.579 -17,114C-23.387,128.445 -29.931,142.804 -36.643,157.102C-37.859,159.699 -39.065,162.301 -40.266,164.906C-43.842,172.64 -47.634,180.214 -51.659,187.724C-54.056,192.198 -56.376,196.7 -58.625,201.25C-67.535,219.216 -76.735,237.055 -86.603,254.514C-88.897,258.596 -91.158,262.696 -93.426,266.792C-111.919,300.199 -131.081,333.108 -152.188,364.938C-152.56,365.501 -152.932,366.064 -153.316,366.645C-157.322,372.699 -161.417,378.686 -165.676,384.566C-166.362,385.516 -167.048,386.465 -167.755,387.444C-171.056,391.202 -174.931,394.312 -180,395C-181.456,395.09 -182.916,395.13 -184.375,395.125C-185.469,395.129 -185.469,395.129 -186.586,395.133C-189.441,394.976 -192.189,394.51 -195,394C-201.274,401.386 -207.056,409.068 -212.774,416.886C-216.128,421.469 -219.517,426.013 -223,430.5C-227.088,435.771 -231.054,441.123 -235,446.5C-236.782,448.921 -238.565,451.341 -240.349,453.76C-241.391,455.174 -242.432,456.589 -243.472,458.006C-257.048,476.451 -257.048,476.451 -266,478C-270.006,478.139 -273.993,478.117 -278,478C-278.361,479.161 -278.722,480.323 -279.094,481.52C-281.26,488.014 -283.953,494.292 -286.616,500.594C-287.502,502.692 -288.382,504.792 -289.262,506.893C-292.414,514.39 -292.414,514.39 -294,518C-294.475,519.098 -294.95,520.195 -295.439,521.326C-297.148,524.254 -297.831,524.883 -301,525.836C-301.794,526.09 -302.587,526.345 -303.405,526.607C-304.261,526.86 -305.118,527.114 -306,527.375C-307.843,527.975 -309.684,528.579 -311.523,529.188C-312.451,529.49 -313.379,529.793 -314.335,530.105C-336.62,537.586 -358.442,549.243 -378.795,560.927C-382.042,562.507 -384.475,562.634 -388,562C-391.721,560.309 -393.816,558.424 -396,555C-397.428,547.198 -395.015,538.798 -393.438,531.188C-392.882,528.451 -392.331,525.714 -391.781,522.977C-391.564,521.905 -391.564,521.905 -391.343,520.812C-390.222,515.229 -389.207,509.631 -388.219,504.023C-387.771,501.521 -387.322,499.018 -386.873,496.515C-386.585,494.894 -386.303,493.271 -386.027,491.648C-383.228,475.225 -383.228,475.225 -378,469C-377.556,468.44 -377.111,467.88 -376.653,467.303C-375.265,465.603 -373.831,463.956 -372.375,462.312C-371.324,461.102 -370.273,459.891 -369.223,458.68C-367.616,456.842 -366.006,455.007 -364.39,453.177C-362.856,451.437 -361.334,449.688 -359.812,447.938C-359.343,447.414 -358.874,446.89 -358.39,446.351C-355.782,443.338 -354.142,441.047 -354,437C-354.974,435.278 -355.954,433.559 -356.992,431.875C-359.124,427.909 -359.477,424.21 -358.547,419.902C-352.724,403.261 -340.133,388.208 -330.094,373.978C-328.008,371.012 -325.939,368.036 -323.875,365.055C-323.201,364.082 -322.527,363.108 -321.833,362.106C-320.497,360.176 -319.162,358.245 -317.828,356.314C-314.647,351.729 -311.423,347.192 -308.07,342.73C-307.457,341.908 -306.844,341.086 -306.212,340.24C-305.061,338.706 -303.898,337.182 -302.72,335.669C-299.705,331.791 -299.705,331.791 -299.035,327.07C-299.817,324.832 -299.817,324.832 -302,324C-302.738,321.961 -302.738,321.961 -303.312,319.375C-303.515,318.537 -303.717,317.699 -303.926,316.836C-304.747,285.461 -251.925,230.293 -234,204C-233.103,202.683 -233.103,202.683 -232.188,201.339C-230.565,198.954 -228.939,196.571 -227.312,194.188C-226.804,193.442 -226.295,192.697 -225.771,191.929C-222.909,187.747 -220.013,183.591 -217.086,179.453C-216.436,178.532 -215.786,177.612 -215.116,176.663C-213.853,174.879 -212.587,173.097 -211.316,171.319C-210.751,170.522 -210.187,169.724 -209.605,168.902C-209.102,168.196 -208.598,167.489 -208.079,166.761C-206.826,165.06 -206.826,165.06 -207,163C-206.278,162.282 -205.556,161.564 -204.812,160.824C-201.709,157.708 -199.422,154.46 -197,150.812C-196.033,149.383 -195.064,147.955 -194.094,146.527C-193.59,145.786 -193.086,145.045 -192.566,144.281C-185.524,134.027 -178.186,123.978 -170.338,114.326C-168.364,111.874 -167.006,110.017 -166,107C-164.683,105.651 -163.346,104.32 -162,103C-160.473,101.083 -158.976,99.143 -157.5,97.188C-153.753,92.258 -149.942,87.388 -146.062,82.562C-140.322,75.416 -134.653,68.216 -129,61C-122.705,52.969 -116.406,44.943 -110,37C-109.528,36.415 -109.057,35.83 -108.571,35.227C-88.471,10.317 -88.471,10.317 -81,3C-80.291,2.27 -79.582,1.541 -78.852,0.789C-56.773,-20.67 -22.828,-19.578 0,0ZM-74.625,9.938C-75.409,10.948 -76.192,11.959 -77,13C-75.947,12.844 -74.894,12.688 -73.809,12.527C-64.955,11.304 -56.778,10.912 -47.879,11.809C-45.058,12.24 -45.058,12.24 -43,11L-43,13C-41.973,13.34 -40.945,13.681 -39.887,14.031C-28.578,17.928 -19.134,22.937 -11,32C-10.51,32.532 -10.02,33.065 -9.516,33.613C-6.042,37.491 -3.44,41.402 -1,46C2.379,43.747 2.495,43.386 3.25,39.625C4.805,30.32 4.2,22.3 -1.109,14.336C-4.291,10.405 -7.885,6.946 -12,4L-14,4C-14.436,3.549 -14.871,3.098 -15.32,2.633C-17.359,0.651 -19.23,-0.104 -21.875,-1.125C-23.14,-1.624 -23.14,-1.624 -24.43,-2.133C-42.654,-8.281 -61.724,-4.918 -74.625,9.938ZM-97.875,36.625C-101.726,41.312 -105.434,46.11 -109.111,50.934C-112.328,55.15 -115.617,59.303 -118.938,63.438C-124.676,70.585 -130.356,77.777 -136,85C-136.597,85.764 -137.195,86.528 -137.81,87.315C-139.729,89.772 -141.646,92.229 -143.562,94.688C-144.171,95.466 -144.779,96.245 -145.406,97.048C-146.259,98.144 -146.259,98.144 -147.129,99.262C-147.888,100.236 -147.888,100.236 -148.662,101.229C-151.388,104.715 -151.388,104.715 -152,109C-152.619,109.227 -153.238,109.454 -153.875,109.688C-156.614,111.379 -157.05,112.992 -158,116L-160,116C-161.593,117.946 -161.593,117.946 -163.125,120.375C-163.664,121.187 -164.203,121.999 -164.758,122.836C-166.166,124.873 -166.166,124.873 -166,127L-168,127C-167.67,127.66 -167.34,128.32 -167,129C-166.126,128.602 -166.126,128.602 -165.234,128.195C-164.415,127.842 -163.595,127.489 -162.75,127.125C-161.961,126.777 -161.172,126.429 -160.359,126.07C-149.832,122.716 -139.013,122.652 -128.066,122.521C-117.294,122.269 -107.566,120.371 -98,115.312C-97.321,114.961 -96.641,114.61 -95.941,114.249C-88.077,110.106 -80.874,105.141 -73.75,99.852C-58.905,88.86 -44.32,79.239 -25,80C-22.062,81 -22.062,81 -20,82L-20,85C-25.75,87 -25.75,87 -28,87C-44.958,87.372 -58.994,97.567 -71.994,107.51C-86.336,118.415 -101.695,127.707 -119.938,129.125C-120.848,129.206 -121.758,129.286 -122.696,129.37C-127.841,129.809 -132.975,130.098 -138.135,130.287C-154.407,130.924 -169.956,134.759 -181.488,146.996C-187.375,154.037 -192.686,161.522 -198,169C-198.476,169.668 -198.952,170.335 -199.442,171.023C-203.584,176.854 -207.623,182.686 -211,189C-210.377,188.879 -209.755,188.758 -209.113,188.633C-203.154,187.552 -197.287,186.828 -191.252,186.348C-164.77,184.201 -146.425,169.697 -126.328,153.666C-119.286,148.07 -112.182,143.096 -104.387,138.594C-103.599,138.068 -102.811,137.542 -102,137L-102,135C-101.093,134.917 -100.185,134.835 -99.25,134.75C-95.744,134.262 -92.588,133.232 -89.25,132.062C-72.7,126.423 -56.264,126.248 -40,133C-40.33,133.99 -40.66,134.98 -41,136C-45.427,136.201 -49.387,135.807 -53.75,135C-75.986,131.207 -94.922,139.359 -112.812,151.938C-118.607,156.102 -124.194,160.472 -129.664,165.055C-132.33,167.275 -135.066,169.363 -137.867,171.41C-139.481,172.613 -141.065,173.858 -142.633,175.121C-150.262,181.153 -157.954,185.417 -167,189C-167.977,189.401 -167.977,189.401 -168.974,189.81C-176.864,192.771 -185.098,193.058 -193.432,193.729C-202.4,194.554 -211.659,195.565 -218.918,201.309C-219.605,202.197 -220.292,203.085 -221,204C-221.418,204.531 -221.837,205.063 -222.268,205.61C-223.655,207.402 -224.988,209.224 -226.312,211.062C-226.795,211.727 -227.278,212.392 -227.776,213.077C-231.222,217.849 -234.53,222.699 -237.758,227.621C-239.552,230.346 -241.392,233.036 -243.242,235.723C-243.82,236.562 -244.398,237.4 -244.993,238.265C-246.137,239.924 -247.284,241.583 -248.433,243.239C-251.521,247.722 -254.376,252.23 -257,257C-256.343,256.859 -255.686,256.719 -255.009,256.573C-248.01,255.174 -241.317,254.649 -234.188,254.688C-232.616,254.692 -232.616,254.692 -231.014,254.696C-222.963,254.804 -215.765,255.803 -208,258C-206.459,258.335 -204.917,258.669 -203.375,259C-200,260 -200,260 -198.199,261.363C-195.443,263.414 -192.546,264.725 -189.438,266.188C-171.204,275.056 -156.689,289.227 -147,307C-146.432,308.033 -146.432,308.033 -145.852,309.086C-143.33,313.883 -141.582,318.824 -140,324C-137.685,321.861 -136.165,319.779 -134.66,317.016C-134.025,315.859 -134.025,315.859 -133.377,314.68C-132.943,313.878 -132.509,313.076 -132.062,312.25C-131.2,310.672 -130.336,309.094 -129.473,307.516C-129.05,306.742 -128.628,305.969 -128.193,305.172C-124.353,298.181 -120.275,291.323 -116.25,284.438C-111.12,275.651 -106.012,266.854 -101,258C-100.668,257.415 -100.335,256.83 -99.993,256.227C-93.755,245.24 -87.677,234.169 -81.66,223.061C-80.544,221.003 -79.426,218.947 -78.305,216.893C-58.25,180.105 -40.032,142.46 -23.322,104.039C-21.974,100.941 -20.622,97.845 -19.27,94.75C-17.182,89.968 -15.105,85.182 -13.037,80.392C-12.133,78.306 -11.219,76.225 -10.301,74.145C-7.207,67.008 -5.012,61.552 -7.25,53.812C-13.301,38.56 -28.636,29.244 -43,23C-64.173,14.907 -83.519,19.701 -97.875,36.625ZM-266.398,273.121C-272.986,280.849 -278.438,289.524 -284,298C-280.856,299.572 -278.598,298.137 -275.312,297.125C-253.711,290.489 -231.713,294.768 -212.01,305.006C-203.5,309.6 -196.794,315.134 -190,322C-189.145,322.833 -188.291,323.665 -187.41,324.523C-176.152,336.092 -170.166,350.657 -166,366C-162.035,362.299 -159.375,357.709 -156.438,353.188C-155.848,352.297 -155.258,351.407 -154.65,350.49C-149.368,342.384 -146.973,336.621 -149,327C-155.92,303.856 -173.515,286.417 -194.375,275.125C-213.24,265.308 -248.894,255.918 -266.398,273.121ZM-288.688,311.375C-291.302,313.838 -291.302,313.838 -291.375,317.312C-291.251,318.199 -291.127,319.086 -291,320C-290.196,319.464 -289.391,318.928 -288.562,318.375C-287.75,317.836 -287.75,317.836 -286.922,317.285C-285.511,316.342 -284.105,315.39 -282.703,314.434C-281.914,313.899 -281.125,313.364 -280.312,312.812C-279.566,312.303 -278.82,311.794 -278.051,311.27C-276,310 -276,310 -273,309C-274.43,313.192 -276.482,316.121 -279.25,319.562C-285.643,327.655 -291.45,336.144 -297.331,344.61C-300.482,349.123 -303.698,353.588 -306.914,358.055C-308.278,359.981 -309.613,361.929 -310.914,363.898C-313.881,368.311 -317.084,372.541 -320.285,376.785C-323.031,380.042 -323.031,380.042 -324,384C-323.1,383.818 -322.2,383.636 -321.273,383.449C-314.086,382.045 -306.933,380.827 -299.665,379.92C-281.891,377.691 -267.572,372.446 -252.312,362.875C-236.571,353.051 -219.458,347.552 -200.793,350.508C-195.111,351.831 -191.618,353.383 -188,358C-191.326,359.129 -192.963,358.847 -196.188,357.562C-211.088,352.836 -227.871,356.187 -241.509,363.095C-247.433,366.236 -253.142,369.677 -258.812,373.25C-273.094,382.136 -288.151,385.05 -304.575,387.394C-322.399,389.771 -322.399,389.771 -336.008,400.705C-337.77,403.075 -339.407,405.514 -341,408C-337.873,409.564 -335.69,408.16 -332.438,407.125C-331.261,406.756 -330.084,406.388 -328.871,406.008C-326.136,405.281 -326.136,405.281 -325,404C-304.023,403.689 -285.83,408.866 -270.254,423.617C-262.758,431.542 -257.159,440.991 -256,452C-252.819,450.633 -251.091,449.212 -249.004,446.465C-248.452,445.746 -247.9,445.028 -247.331,444.287C-246.455,443.124 -246.455,443.124 -245.562,441.938C-244.95,441.137 -244.337,440.336 -243.706,439.511C-241.797,437.013 -239.898,434.507 -238,432C-235.732,429.019 -233.46,426.04 -231.188,423.062C-230.648,422.355 -230.109,421.648 -229.554,420.919C-225.162,415.173 -220.62,409.565 -216,404C-214.541,402.209 -213.083,400.417 -211.625,398.625C-207.739,393.871 -203.787,389.176 -199.805,384.502C-197.781,382.123 -195.785,379.731 -193.836,377.289C-188.351,370.45 -188.351,370.45 -184,369C-184.423,375.491 -186.911,380.335 -190,386C-184.554,386.407 -184.554,386.407 -179.562,384.688C-176.02,380.862 -176.612,375.721 -176.656,370.809C-178.304,352.551 -188.546,335.89 -202.375,324.25C-207.68,320.102 -213.199,316.415 -219,313C-219.641,312.611 -220.281,312.221 -220.941,311.82C-239.647,301.397 -270.67,298.313 -288.688,311.375ZM-348,422C-349.399,424.799 -349.253,426.905 -349,430C-347.625,431.879 -347.625,431.879 -346,433C-343.006,430.944 -343.006,430.944 -341,428C-330.835,423.541 -316.978,423.179 -306.512,426.875C-301.171,429.267 -296.097,432.134 -291,435C-289.672,435.677 -288.341,436.349 -287,437L-287,439L-285,439C-284.723,439.576 -284.446,440.152 -284.16,440.746C-282.663,443.656 -280.897,446.352 -279.121,449.098C-276.758,453.108 -276.695,457.165 -276.438,461.688C-276.394,462.389 -276.351,463.091 -276.307,463.814C-276.201,465.543 -276.1,467.271 -276,469C-271.713,468.636 -271.713,468.636 -268.16,466.406C-265.105,460.07 -266.047,451.221 -267.996,444.633C-274.619,430.187 -286.61,422.889 -300.621,416.875C-315.816,411.545 -334.506,413.092 -348,422ZM-345,445C-346.947,447.547 -348.791,450.147 -350.629,452.773C-354.113,457.634 -358.039,462.161 -361.901,466.723C-363.634,468.79 -365.316,470.893 -367,473C-367.804,473.903 -367.804,473.903 -368.624,474.823C-374.274,481.907 -375.029,490.595 -376.516,499.271C-377.305,503.722 -378.247,508.139 -379.176,512.562C-379.533,514.302 -379.889,516.041 -380.244,517.781C-380.784,520.424 -381.326,523.066 -381.877,525.707C-382.422,528.324 -382.956,530.943 -383.488,533.562C-383.656,534.354 -383.823,535.146 -383.996,535.961C-384.739,539.671 -385.098,542.383 -384,546C-378.51,537.502 -373.068,528.975 -367.677,520.414C-365.011,516.18 -362.334,511.953 -359.637,507.738C-358.817,506.454 -358.817,506.454 -357.982,505.143C-356.935,503.503 -355.886,501.865 -354.833,500.23C-351.374,494.881 -351.374,494.881 -349,489C-349.63,487.649 -350.303,486.317 -351,485C-351.686,478.94 -350.343,475.871 -347,471C-343.853,468.902 -342.904,468.839 -339.312,468.562C-334.621,467.666 -332.793,466.157 -330,462.312C-328.645,460.222 -327.314,458.116 -326,456C-325.146,454.724 -324.287,453.452 -323.422,452.184C-319.377,446.237 -315.511,440.281 -312,434C-315.573,432.809 -318.546,432.795 -322.312,432.75C-324.256,432.711 -324.256,432.711 -326.238,432.672C-334.768,433.416 -339.592,438.894 -345,445ZM-307,436C-308.706,438.218 -310.203,440.39 -311.688,442.75C-312.581,444.13 -313.474,445.51 -314.367,446.891C-314.81,447.583 -315.253,448.276 -315.71,448.99C-317.545,451.849 -319.426,454.675 -321.312,457.5C-321.945,458.46 -322.578,459.421 -323.23,460.41C-324.778,462.675 -326.416,464.796 -328.125,466.938C-330.381,469.825 -330.381,469.825 -329.375,472.812C-328.921,473.534 -328.467,474.256 -328,475C-326.468,478.064 -326.771,480.617 -327,484C-328.467,487.798 -329.637,488.805 -333.25,490.75C-337,492 -337,492 -340.562,492.188C-348.661,494.102 -353.673,506.562 -357.875,513.188C-358.591,514.313 -359.307,515.438 -360.023,516.563C-362.02,519.706 -364.011,522.852 -366,526C-366.463,526.731 -366.927,527.462 -367.404,528.215C-374.772,539.791 -374.772,539.791 -381,552C-380.67,552.66 -380.34,553.32 -380,554C-379.483,553.659 -378.966,553.317 -378.434,552.965C-372.317,548.933 -366.169,544.952 -360,541C-359.248,540.515 -358.497,540.031 -357.723,539.532C-342.693,529.928 -326.588,523.435 -309.055,520.082C-305.943,519.271 -305.943,519.271 -304.348,517.031C-303.903,516.031 -303.458,515.031 -303,514C-302.67,513.259 -302.34,512.518 -302,511.755C-300.825,509.077 -299.69,506.385 -298.562,503.688C-296.152,497.936 -293.69,492.27 -290.855,486.714C-288.827,482.648 -287.364,478.349 -285.875,474.062C-285.522,473.063 -285.169,472.064 -284.805,471.035C-283.971,467.891 -283.855,465.237 -284,462C-287.515,465.142 -289.628,468.602 -291.75,472.75C-292.092,473.405 -292.434,474.059 -292.787,474.734C-295.611,480.165 -298.334,485.647 -301.058,491.129C-303.261,495.55 -305.505,499.945 -307.812,504.312C-308.355,505.34 -308.898,506.367 -309.457,507.426C-312.681,512.805 -316.457,514.019 -322.25,515.938C-334.12,520.055 -345.004,525.982 -356,532L-356,529C-346.429,520.026 -332.97,513.696 -320.684,509.496C-312.658,505.022 -309.185,496.071 -305.25,488.188C-304.027,485.775 -302.797,483.366 -301.566,480.957C-301.113,480.066 -301.113,480.066 -300.65,479.156C-297.936,473.836 -295.099,468.59 -292.188,463.375C-291.566,462.258 -291.566,462.258 -290.933,461.118C-288.142,456.142 -288.142,456.142 -287,455C-286.382,451.835 -286.526,449.783 -288.211,447C-292.534,441.641 -297.536,438.35 -304,436L-307,436ZM-284,460L-283,462L-284,460Z" style="fill:rgb(3,3,3);fill-rule:nonzero;"/>
        </g>
        <g transform="matrix(1.48538,0,0,1.253894,614.923977,1022.957944)">
            <path d="M0,0C3.067,3.739 4.347,7.743 4.125,12.562C3.226,17.631 0.948,20.772 -3,24C-23.122,37.477 -52.393,36.125 -75.562,37.047C-91.481,37.695 -107.656,38.612 -123.167,42.55C-125.254,43.062 -127.105,43.098 -129.25,43.062C-131.106,43.032 -131.106,43.032 -133,43C-133.33,42.34 -133.66,41.68 -134,41C-128.831,32.385 -117.281,30.21 -108.184,27.91C-95.423,25.007 -82.154,23.158 -69.09,22.535C-67.589,22.457 -66.089,22.378 -64.588,22.299C-62.274,22.18 -59.96,22.064 -57.646,21.95C-38.258,21.018 -38.258,21.018 -19.312,17.062C-18.195,16.744 -17.077,16.426 -15.926,16.098C-13.055,15.021 -11.117,14.22 -9,12C-8.666,9.374 -8.666,9.374 -9,7C-61.016,-17.111 -138.863,5.11 -189.757,23.688C-200.034,27.614 -209.944,32.412 -219.867,37.145C-233.33,43.479 -233.33,43.479 -238,42C-236.489,37.719 -233.339,35.805 -229.688,33.438C-229.029,33.008 -228.371,32.578 -227.693,32.135C-211.736,21.941 -194.771,14.417 -177,8C-175.839,7.577 -175.839,7.577 -174.655,7.146C-154.727,-0.033 -133.908,-5.595 -113,-9C-112.106,-9.15 -111.213,-9.299 -110.292,-9.453C-79.362,-14.404 -26.561,-20.226 0,0Z" style="fill:rgb(4,4,4);fill-rule:nonzero;"/>
        </g>
        <g transform="matrix(1.48538,0,0,1.253894,698.198099,538.641355)">
            <path d="M0,0C0.694,-0.021 1.388,-0.041 2.104,-0.062C6.577,-0.096 9.39,0.487 12.938,3.25C13.268,3.91 13.598,4.57 13.938,5.25C10.681,6.287 7.498,6.413 4.1,6.54C-11.031,7.121 -22.927,10.454 -33.688,21.812C-37.511,26.29 -40.645,31.077 -43.754,36.059C-52.296,49.706 -63.198,61.582 -79.504,65.453C-85.831,66.59 -92.179,66.402 -98.579,66.285C-119.485,65.936 -144.361,65.998 -160.965,80.965C-162.335,82.389 -163.7,83.819 -165.062,85.25L-168.062,85.25C-167.205,78.892 -163.745,75.419 -159.062,71.25C-151.275,65.947 -143.054,62.088 -134.062,59.25C-133.215,58.906 -132.368,58.563 -131.495,58.208C-127.112,56.985 -123.164,57.037 -118.641,57.125C-117.291,57.136 -117.291,57.136 -115.913,57.148C-112.086,57.18 -108.259,57.237 -104.432,57.291C-101.626,57.327 -98.821,57.351 -96.016,57.375C-94.743,57.4 -94.743,57.4 -93.445,57.425C-81.368,57.523 -69.981,54.558 -60.902,46.227C-54.843,39.717 -49.748,32.394 -44.938,24.938C-37.184,13.167 -25.379,3.667 -11.301,0.66C-7.527,0.182 -3.798,0.028 0,0Z" style="fill:rgb(5,5,5);fill-rule:nonzero;"/>
        </g>
        <g transform="matrix(1.48538,0,0,1.253894,754.271199,425.712519)">
            <path d="M0,0C3.218,2.335 4.336,3.479 5.188,7.312C-0.057,7.423 -5.056,7.016 -10.25,6.312C-10.982,6.217 -11.713,6.122 -12.467,6.023C-14.249,5.79 -16.031,5.552 -17.812,5.312C-18.142,5.973 -18.473,6.633 -18.812,7.312C-20.476,7.66 -22.144,7.991 -23.812,8.312C-31.037,11.463 -36.885,15.888 -42.867,20.941C-55.493,31.105 -68.583,36.667 -84.312,40.312C-97.629,43.403 -107.752,46.965 -118.512,55.52C-120.812,57.312 -120.812,57.312 -121.812,57.312C-122.219,53.961 -122.045,52.636 -120.047,49.848C-109.869,39.718 -97.997,34.468 -83.978,31.985C-67.22,28.978 -55.732,21.092 -42.629,10.738C-30.691,1.37 -15.268,-6.761 0,0Z" style="fill:rgb(5,5,5);fill-rule:nonzero;"/>
        </g>
        <g transform="matrix(1.48538,0,0,1.253894,274.77193,576.571651)">
            <path d="M0,0C2.199,1.195 4.377,2.429 6.535,3.695C7.136,4.047 7.736,4.399 8.355,4.761C9.621,5.504 10.886,6.249 12.149,6.995C14.031,8.106 15.916,9.21 17.803,10.312C25.299,14.712 32.658,19.286 39.944,24.026C43.398,26.257 46.898,28.403 50.426,30.516C52.571,32.538 52.789,34.103 53,37C51.562,39.312 51.562,39.312 50,41C44.888,40.502 41.302,39.402 36.852,36.859C36.285,36.541 35.718,36.222 35.135,35.894C33.292,34.856 31.459,33.803 29.625,32.75C27.04,31.285 24.45,29.827 21.859,28.371C20.88,27.819 20.88,27.819 19.881,27.256C15.516,24.809 11.107,22.476 6.641,20.223C5.499,19.645 4.357,19.067 3.181,18.472C1.02,17.387 -1.146,16.313 -3.318,15.251C-4.773,14.518 -4.773,14.518 -6.258,13.77C-7.105,13.353 -7.952,12.936 -8.825,12.507C-11.493,10.658 -12.638,8.93 -14,6C-13.401,2.258 -12.571,0.538 -9.812,-2.062C-5.884,-3.372 -3.515,-1.752 0,0Z" style="fill:rgb(4,4,4);fill-rule:nonzero;"/>
        </g>
        <g transform="matrix(1.48538,0,0,1.253894,757.532072,705.551311)">
            <path d="M0,0C1.687,0.289 1.687,0.289 3.409,0.584C5.774,0.991 8.139,1.402 10.503,1.817C14.111,2.448 17.721,3.062 21.332,3.674C23.638,4.073 25.944,4.474 28.25,4.875C29.323,5.056 30.396,5.238 31.502,5.425C44.519,7.741 44.519,7.741 48.992,12.074C49.992,14.137 49.992,14.137 49.805,16.199C48.992,18.137 48.992,18.137 46.992,21.137C39.581,23.093 33.079,21.062 25.805,19.199C23.5,18.623 21.194,18.051 18.887,17.484C17.875,17.227 16.862,16.969 15.82,16.703C13.122,16.163 10.734,16.028 7.992,16.137L7.992,14.137C6.345,13.961 6.345,13.961 4.664,13.781C-0.554,13.125 -5.638,12.009 -10.758,10.824C-11.69,10.624 -12.622,10.423 -13.582,10.217C-21.932,8.282 -21.932,8.282 -25.008,4.137C-21.349,-6.055 -8.727,-1.53 0,0Z" style="fill:rgb(4,4,4);fill-rule:nonzero;"/>
        </g>
        <g transform="matrix(1.48538,0,0,1.253894,663.94152,620.457944)">
            <path d="M0,0L3,0C2.491,4.454 0.963,6.686 -2,10C-10.175,16.184 -20.575,17.746 -30.395,19.644C-39.161,21.438 -46.905,24.382 -53.688,30.375C-55.556,34.111 -55.874,36.985 -55,41C-53.624,44.395 -52.075,47.665 -50.469,50.957C-47.517,57.073 -45.785,63.24 -47,70C-51.465,81.31 -51.465,81.31 -56,85C-59.29,86.097 -60.713,85.8 -64,85L-64,81C-62.855,80.412 -62.855,80.412 -61.688,79.812C-57.622,77.071 -56.942,73.68 -56,69C-55.008,61.382 -56.926,55.886 -60,49C-62.473,42.78 -64.905,36.479 -62.121,29.934C-56.817,20.709 -49.497,16.436 -39.363,13.566C-33.5,12.162 -27.498,11.326 -21.528,10.519C-15.216,9.613 -10.579,8.084 -5,5L-3,5C-2.691,4.361 -2.381,3.721 -2.062,3.062C-1,1 -1,1 0,0Z" style="fill:rgb(5,5,5);fill-rule:nonzero;"/>
        </g>
        <g transform="matrix(1.48538,0,0,1.253894,432.222222,431.119938)">
            <path d="M0,0C3.628,4.476 5.99,8.854 8,14.25C10.2,19.931 12.655,25.414 15.375,30.867C15.82,31.763 15.82,31.763 16.274,32.677C17.769,35.678 19.28,38.667 20.82,41.646C21.375,42.755 21.929,43.865 22.5,45.008C23.005,45.994 23.511,46.98 24.031,47.997C25.22,51.683 24.788,54.249 24,58C21.188,58.688 21.188,58.688 18,59C15.03,56.756 13.515,53.613 11.742,50.398C11.12,49.276 10.499,48.154 9.858,46.997C9.196,45.79 8.536,44.583 7.875,43.375C7.2,42.146 6.525,40.917 5.849,39.688C4.511,37.251 3.177,34.812 1.846,32.372C0.261,29.477 -1.341,26.594 -2.953,23.715C-3.761,22.248 -4.569,20.78 -5.375,19.312C-5.737,18.674 -6.1,18.036 -6.473,17.378C-8.935,12.824 -9.757,9.104 -10,4C-7.423,-0.124 -4.713,-1.058 0,0Z" style="fill:rgb(3,3,3);fill-rule:nonzero;"/>
        </g>
        <g transform="matrix(1.48538,0,0,1.253894,867.160088,548.359034)">
            <path d="M0,0C2.188,1.5 2.188,1.5 3.688,3.812C4.188,6.5 4.188,6.5 3.045,8.988C0.891,11.901 -0.769,12.862 -4.039,14.379C-5.109,14.882 -6.18,15.385 -7.282,15.903C-8.447,16.43 -9.612,16.957 -10.812,17.5C-12.044,18.069 -13.276,18.64 -14.507,19.21C-17.726,20.693 -20.961,22.136 -24.206,23.562C-25.54,24.152 -26.872,24.748 -28.202,25.351C-30.157,26.237 -32.12,27.103 -34.086,27.965C-35.235,28.477 -36.384,28.988 -37.568,29.515C-41.189,30.614 -43.215,30.625 -46.812,29.5C-48.812,26.5 -48.812,26.5 -49.438,24.125C-48.812,21.5 -48.812,21.5 -45.746,19.281C-39.221,15.386 -32.185,12.452 -25.25,9.375C-23.852,8.749 -22.454,8.123 -21.057,7.496C-17.313,5.82 -13.567,4.152 -9.812,2.5C-8.87,2.063 -8.87,2.063 -7.908,1.618C-3.119,-0.555 -3.119,-0.555 0,0Z" style="fill:rgb(3,3,3);fill-rule:nonzero;"/>
        </g>
        <g transform="matrix(1.48538,0,0,1.253894,479.568713,770.690129)">
            <path d="M0,0C3.125,2.188 3.125,2.188 4.125,5.188C0.704,6.328 -0.445,5.957 -3.875,5.125C-16.846,2.677 -28.078,8.547 -38.609,15.66C-39.865,16.522 -41.121,17.385 -42.375,18.25C-53.9,26.083 -65.567,29.825 -79,33.125C-79.653,33.287 -80.306,33.449 -80.979,33.616C-82.861,34.077 -84.747,34.521 -86.633,34.965C-87.738,35.225 -88.843,35.485 -89.981,35.754C-92.726,36.165 -94.295,36.111 -96.875,35.188C-93.399,29.228 -88.175,27.959 -81.875,26.188C-79.868,25.735 -77.856,25.315 -75.842,24.894C-61.964,21.952 -50.789,15.721 -39.194,7.709C-28.136,0.139 -13.158,-6.279 0,0Z" style="fill:rgb(5,5,5);fill-rule:nonzero;"/>
        </g>
        <g transform="matrix(1.48538,0,0,1.253894,493.581186,821.311204)">
            <path d="M0,0C1.629,1.379 1.629,1.379 3.691,3.816C3.031,4.476 2.371,5.136 1.691,5.816C-1.18,5.758 -1.18,5.758 -4.746,5.379C-10.95,4.842 -17.181,4.448 -23.309,5.816C-23.639,6.476 -23.969,7.136 -24.309,7.816C-25.635,8.176 -26.97,8.504 -28.309,8.816C-30.036,9.588 -31.744,10.404 -33.434,11.254C-34.302,11.686 -35.171,12.118 -36.066,12.562C-38.417,13.744 -38.417,13.744 -40.309,15.816C-44.241,18.265 -48.282,20.527 -52.309,22.816C-53.296,23.385 -54.283,23.953 -55.301,24.539C-65.433,30.25 -75.033,32.714 -86.648,30.051C-89.309,28.816 -89.309,28.816 -90.184,26.691C-90.225,26.073 -90.266,25.454 -90.309,24.816C-89.558,24.84 -88.808,24.863 -88.035,24.887C-71.346,25.181 -59.887,20.246 -46.309,10.816C-33.686,2.213 -15.478,-7.935 0,0Z" style="fill:rgb(5,5,5);fill-rule:nonzero;"/>
        </g>
        <g transform="matrix(1.48538,0,0,1.253894,701.076023,754.624611)">
            <path d="M0,0C3.008,1.171 5.905,2.537 8.812,3.938C9.588,4.298 10.363,4.658 11.162,5.029C16.871,7.741 16.871,7.741 18,10C19.657,10.69 21.326,11.353 23,12C25.711,13.387 27.568,14.411 29.375,16.875C30.181,19.616 29.855,21.294 29,24C27,26 27,26 24.281,26.34C20.267,25.924 17.957,24.634 14.5,22.562C13.903,22.206 13.307,21.85 12.692,21.483C10.786,20.336 8.893,19.168 7,18C6.029,17.415 6.029,17.415 5.038,16.818C3.12,15.664 1.215,14.492 -0.688,13.312C-1.275,12.957 -1.863,12.601 -2.469,12.235C-6.046,9.964 -8.257,7.89 -10,4C-9.312,1.75 -9.312,1.75 -8,0C-5.004,-1.498 -3.254,-0.768 0,0Z" style="fill:rgb(4,4,4);fill-rule:nonzero;"/>
        </g>
        <g transform="matrix(1.48538,0,0,1.253894,282.570175,674.140284)">
            <path d="M0,0C0.859,0.166 1.717,0.331 2.602,0.502C7.372,1.474 11.554,2.595 15.75,5.188C16.898,7.985 16.901,9.509 16.25,12.438C14.354,14.65 12.802,14.796 9.979,15.134C5.311,15.246 0.762,14.277 -3.812,13.438C-4.828,13.267 -5.843,13.097 -6.889,12.922C-12.095,11.997 -16.729,11.089 -21.25,8.188C-23.25,5.188 -23.25,5.188 -23,2.062C-22.629,0.639 -22.629,0.639 -22.25,-0.812C-15.886,-3.995 -6.636,-1.395 0,0Z" style="fill:rgb(4,4,4);fill-rule:nonzero;"/>
        </g>
        <g transform="matrix(1.48538,0,0,1.253894,210.900585,1063.082555)">
            <path d="M0,0C2.984,2.286 4.588,3.93 5.938,7.438C6.052,12.117 4.639,15.109 1.938,18.875C-1.582,21.421 -3.598,21.676 -7.848,21.422C-11.131,20.778 -12.794,19.473 -15,17C-16.699,14.065 -17.016,12.395 -16.875,9C-15.657,4.824 -13.651,2.297 -10.25,-0.375C-6.702,-1.361 -3.47,-1.067 0,0Z" style="fill:rgb(4,4,4);fill-rule:nonzero;"/>
        </g>
        <g transform="matrix(1.48538,0,0,1.253894,270.315789,739.577882)">
            <path d="M0,0C2.57,2.113 4.431,3.934 6,6.875C6,11.159 4.08,14.76 1.312,17.938C-2.133,19.521 -5.334,19.771 -9,19C-12.315,16.602 -13.684,14.929 -15,11.062C-15,7.155 -14.215,5.215 -12,2C-7.765,-0.917 -4.906,-1.67 0,0Z" style="fill:rgb(4,4,4);fill-rule:nonzero;"/>
        </g>
        <g transform="matrix(1.48538,0,0,1.253894,659.48538,799.764798)">
            <path d="M0,0C4.576,3.153 4.576,3.153 6,6C6.412,10.636 5.875,13.304 3,17C-0.216,19.329 -3.109,19.324 -7,19C-10.343,17.793 -10.947,17.079 -13,14C-14.065,10.313 -14.163,8.462 -12.875,4.812C-9.371,-0.444 -6.093,-1.904 0,0Z" style="fill:rgb(4,4,4);fill-rule:nonzero;"/>
        </g>
        <g transform="matrix(1.48538,0,0,1.253894,389.146199,528.923676)">
            <path d="M0,0C2.614,1.743 2.949,2.832 3.875,5.875C4.027,9.664 3.317,11.043 1,14C-1.358,16.358 -2.616,16.943 -5.938,17.438C-9.706,16.899 -11.298,15.624 -14,13C-15.41,10.18 -15.245,8.13 -15,5C-13.653,1.881 -12.615,0.393 -9.75,-1.438C-5.965,-2.212 -3.567,-1.387 0,0Z" style="fill:rgb(4,4,4);fill-rule:nonzero;"/>
        </g>
        <g transform="matrix(1.48538,0,0,1.253894,521.345029,434.88162)">
            <path d="M0,0C2.855,1.927 3.722,3.225 4.875,6.438C5.028,9.567 4.514,11.261 3,14C0.559,16.622 -0.852,16.979 -4.438,17.5C-8,17 -8,17 -10.938,15C-13.791,10.849 -13.71,8.97 -13,4C-10.095,-1.052 -5.276,-0.96 0,0Z" style="fill:rgb(4,4,4);fill-rule:nonzero;"/>
        </g>
        <g transform="matrix(1.48538,0,0,1.253894,802.081871,630.489097)">
            <path d="M0,0C2.454,1.762 3.566,3.16 4.938,5.812C5.039,9.359 3.608,11.9 2,15C-1.541,17.361 -2.828,17.573 -7,17C-10.375,14.938 -10.375,14.938 -13,12C-13.688,8.5 -13.688,8.5 -13,5C-9.282,-0.46 -6.175,-0.882 0,0Z" style="fill:rgb(4,4,4);fill-rule:nonzero;"/>
        </g>
        <g transform="matrix(1.48538,0,0,1.253894,516.331871,644.595405)">
            <path d="M0,0C1.412,0.101 1.412,0.101 2.852,0.203C5.649,0.809 6.613,1.55 8.375,3.75C5.099,5.697 2.652,5.939 -1.125,6C-11.347,6.722 -19.268,12.01 -26.98,18.43C-28.625,19.75 -28.625,19.75 -29.625,19.75C-30.139,16.741 -30.19,14.618 -28.488,12.004C-21.224,4.107 -10.745,-0.888 0,0Z" style="fill:rgb(6,6,6);fill-rule:nonzero;"/>
        </g>
        <g transform="matrix(1.48538,0,0,1.253894,537.684211,670.613707)">
            <path d="M0,0C2.527,1.714 2.981,2.94 3.938,5.875C4,9 4,9 2.375,11.812C-0.27,14.249 -1.419,15 -5,15C-9.597,12.806 -9.597,12.806 -11,10C-11.461,3.659 -11.461,3.659 -9.688,1.125C-6.222,-1.185 -3.868,-1.16 0,0Z" style="fill:rgb(4,4,4);fill-rule:nonzero;"/>
        </g>
        <g transform="matrix(1.48538,0,0,1.253894,597.099415,853.682243)">
            <path d="M0,0C2.232,1.44 2.772,2.473 3.812,4.875C4.074,7.835 3.457,9.416 2,12C-0.644,14.143 -2.143,15 -5.562,15C-8.915,13.624 -10.193,12.127 -12,9C-11.937,5.845 -11.489,3.862 -9.938,1.125C-6.776,-0.711 -3.557,-0.549 0,0Z" style="fill:rgb(5,5,5);fill-rule:nonzero;"/>
        </g>
        <g transform="matrix(1.48538,0,0,1.253894,565.906433,390.995327)">
            <path d="M0,0C2.422,1.534 2.887,2.694 3.875,5.375C4.045,8.938 3.366,10.338 1,13C-2.375,14.125 -2.375,14.125 -6,14C-9,12 -9,12 -11,9C-11,5.312 -11,5.312 -10,2C-6.305,-0.463 -4.367,-0.39 0,0Z" style="fill:rgb(5,5,5);fill-rule:nonzero;"/>
        </g>
        <g transform="matrix(1.48538,0,0,1.253894,527.472222,888.321067)">
            <path d="M0,0C2.875,1.375 2.875,1.375 4.875,4.375C5.25,7.375 5.25,7.375 4.875,10.375C3.312,12.312 3.312,12.312 0.875,13.375C-2.688,13.375 -2.688,13.375 -6.125,12.375C-8.188,10.125 -8.188,10.125 -9.125,7.375C-8.468,4.309 -7.466,2.753 -5.375,0.438C-3.125,-0.625 -3.125,-0.625 0,0Z" style="fill:rgb(6,6,6);fill-rule:nonzero;"/>
        </g>
        <g transform="matrix(1.48538,0,0,1.253894,677.402778,572.496495)">
            <path d="M0,0C1.938,1.25 1.938,1.25 3.938,4.25C4.293,7.092 4.376,8.603 2.75,11C0.422,12.605 -1.237,13.109 -4.062,13.25C-5.812,12.25 -5.812,12.25 -7.062,10.25C-7.938,6.75 -7.938,6.75 -8.062,3.25C-6.089,0.29 -3.553,-1.292 0,0Z" style="fill:rgb(4,4,4);fill-rule:nonzero;"/>
        </g>
        <g transform="matrix(1.48538,0,0,1.253894,451.532164,856.190031)">
            <path d="M0,0C2,2 2,2 2.312,4.938C2,8 2,8 0.875,9.875C-1.842,11.505 -3.897,11.33 -7,11C-9,9 -9,9 -9.375,5.562C-9,2 -9,2 -7.312,0C-4.391,-1.263 -2.982,-1.02 0,0Z" style="fill:rgb(5,5,5);fill-rule:nonzero;"/>
        </g>
        <g transform="matrix(1.48538,0,0,1.253894,539.169591,744.593458)">
            <path d="M0,0C2,3 2,3 1.625,6.188C1.419,7.116 1.212,8.044 1,9C-1.75,10.188 -1.75,10.188 -5,11C-7.375,10 -7.375,10 -9,8C-9.5,5 -9.5,5 -9,2C-6.149,-1.273 -4.002,-1.475 0,0Z" style="fill:rgb(5,5,5);fill-rule:nonzero;"/>
        </g>
        <g transform="matrix(1.48538,0,0,1.253894,653.079678,429.160728)">
            <path d="M0,0C2.312,1.562 2.312,1.562 3.125,4.688C3.187,5.636 3.249,6.585 3.312,7.562C1.625,9.125 1.625,9.125 -0.688,10.562C-3.438,10.25 -3.438,10.25 -5.688,9.562C-6.018,7.253 -6.348,4.942 -6.688,2.562C-4.265,0.229 -3.407,-0.555 0,0Z" style="fill:rgb(6,6,6);fill-rule:nonzero;"/>
        </g>
        <g transform="matrix(1.48538,0,0,1.253894,546.13231,549.142718)">
            <path d="M0,0C2.312,0.875 2.312,0.875 3.312,2.875C3.352,4.875 3.356,6.875 3.312,8.875C-1.021,11.042 -1.021,11.042 -3.938,10.312C-5.688,8.875 -5.688,8.875 -6.688,6.5C-6.688,3.875 -6.688,3.875 -5.062,1.5C-2.688,-0.125 -2.688,-0.125 0,0Z" style="fill:rgb(5,5,5);fill-rule:nonzero;"/>
        </g>
        <g transform="matrix(1.48538,0,0,1.253894,671.368421,398.518692)">
            <path d="M0,0C2.899,0.468 3.867,0.867 6,3C5.938,5.5 5.938,5.5 5,8C2.562,9.375 2.562,9.375 0,10C-0.66,9.67 -1.32,9.34 -2,9L-2,7C-2.66,6.67 -3.32,6.34 -4,6C-1.125,1.125 -1.125,1.125 0,0Z" style="fill:rgb(6,6,5);fill-rule:nonzero;"/>
        </g>
        <g transform="matrix(1.48538,0,0,1.253894,617.894737,663.090343)">
            <path d="M0,0C1.125,4.75 1.125,4.75 0,7C-1.812,7.875 -1.812,7.875 -4,8C-6.312,6.312 -6.312,6.312 -8,4C-7.875,1.812 -7.875,1.812 -7,0C-4.333,-1.333 -2.833,-0.671 0,0Z" style="fill:rgb(7,7,7);fill-rule:nonzero;"/>
        </g>
        <g transform="matrix(1.48538,0,0,1.253894,392.116959,760.894081)">
            <path d="M0,0C4.556,0.556 4.556,0.556 6,2C6.041,3.666 6.043,5.334 6,7C3.688,8.125 3.688,8.125 1,9C0.01,8.34 -0.98,7.68 -2,7C-2.312,4.5 -2.312,4.5 -2,2C-1.34,1.34 -0.68,0.68 0,0Z" style="fill:rgb(8,7,7);fill-rule:nonzero;"/>
        </g>
        <g transform="matrix(1.48538,0,0,1.253894,652.151316,601.806269)">
            <path d="M0,0C2.51,1.134 2.964,2.361 3.938,4.875C2.947,6.36 2.947,6.36 1.938,7.875C-1.125,8.125 -1.125,8.125 -4.062,7.875C-5.062,6.875 -5.062,6.875 -5.312,4.438C-5.23,3.592 -5.147,2.746 -5.062,1.875C-2.062,-0.125 -2.062,-0.125 0,0Z" style="fill:rgb(7,7,7);fill-rule:nonzero;"/>
        </g>
        <g transform="matrix(1.48538,0,0,1.253894,701.076023,404.788162)">
            <path d="M0,0C4.556,0.556 4.556,0.556 6,2C6.041,3.666 6.043,5.334 6,7C3.674,7.381 1.339,7.713 -1,8C-2,7 -2,7 -2.188,4.562C-2,2 -2,2 0,0Z" style="fill:rgb(6,6,6);fill-rule:nonzero;"/>
        </g>
        <g transform="matrix(1.48538,0,0,1.253894,564.421053,694.437695)">
            <path d="M0,0C2.188,0.312 2.188,0.312 4,1C4.625,3.375 4.625,3.375 5,6C4.34,6.66 3.68,7.32 3,8L-1,8C-1.66,6.35 -2.32,4.7 -3,3C-1.75,1.438 -1.75,1.438 0,0Z" style="fill:rgb(9,9,9);fill-rule:nonzero;"/>
        </g>
        <g transform="matrix(1.48538,0,0,1.253894,418.853801,872.490654)">
            <path d="M0,0C2.867,0.573 3.861,0.861 6,3C5.625,5.125 5.625,5.125 5,7C3.35,7.33 1.7,7.66 0,8C-0.66,7.01 -1.32,6.02 -2,5C-1.125,2.312 -1.125,2.312 0,0Z" style="fill:rgb(8,8,8);fill-rule:nonzero;"/>
        </g>
        <g transform="matrix(1.48538,0,0,1.253894,424.795322,755.878505)">
            <path d="M0,0C1.65,0.99 3.3,1.98 5,3C4.34,4.32 3.68,5.64 3,7L-1,7C-1.625,4.625 -1.625,4.625 -2,2C-1.34,1.34 -0.68,0.68 0,0Z" style="fill:rgb(9,10,9);fill-rule:nonzero;"/>
        </g>
        <g transform="matrix(1.48538,0,0,1.253894,427.766082,689.422118)">
            <rect x="0" y="0" width="7" height="1" style="fill:rgb(19,18,18);fill-rule:nonzero;"/>
        </g>
        <g transform="matrix(1.48538,0,0,1.253894,429.251462,1076.875389)">
            <path d="M0,0C0.66,0.66 1.32,1.32 2,2C1.01,1.67 0.02,1.34 -1,1C-0.67,0.67 -0.34,0.34 0,0Z" style="fill:rgb(32,32,31);fill-rule:nonzero;"/>
        </g>
        <g transform="matrix(1.48538,0,0,1.253894,672.853801,527.669782)">
            <path d="M0,0L4,1L0,0Z" style="fill:rgb(17,18,18);fill-rule:nonzero;"/>
        </g>
        <g transform="matrix(1.48538,0,0,1.253894,499.064327,452.436137)">
            <path d="M0,0C0.99,0.33 1.98,0.66 3,1L0,1L0,0Z" style="fill:rgb(27,28,28);fill-rule:nonzero;"/>
        </g>
        <g transform="matrix(1.48538,0,0,1.253894,772.374269,362.155763)">
            <rect x="0" y="0" width="2" height="2" style="fill:rgb(20,20,19);fill-rule:nonzero;"/>
        </g>
        <g transform="matrix(1.48538,0,0,1.253894,472.327485,1051.797508)">
            <path d="M0,0L3,1L0,0Z" style="fill:rgb(20,19,20);fill-rule:nonzero;"/>
        </g>
        <g transform="matrix(1.48538,0,0,1.253894,472.327485,777.194704)">
            <path d="M0,0L2,0C1.67,0.66 1.34,1.32 1,2C0.67,1.34 0.34,0.68 0,0Z" style="fill:rgb(19,20,19);fill-rule:nonzero;"/>
        </g>
        <g transform="matrix(1.48538,0,0,1.253894,568.877193,728.292835)">
            <path d="M0,0C0.99,0.495 0.99,0.495 2,1C1.01,1.495 1.01,1.495 0,2L0,0Z" style="fill:rgb(20,21,20);fill-rule:nonzero;"/>
        </g>
        <g transform="matrix(1.48538,0,0,1.253894,429.251462,722.023364)">
            <path d="M0,0L3,1L0,0Z" style="fill:rgb(18,18,18);fill-rule:nonzero;"/>
        </g>
        <g transform="matrix(1.48538,0,0,1.253894,556.994152,700.707165)">
            <path d="M0,0C0.66,0.66 1.32,1.32 2,2L0,2L0,0Z" style="fill:rgb(19,20,18);fill-rule:nonzero;"/>
        </g>
        <g transform="matrix(1.48538,0,0,1.253894,668.397661,464.975078)">
            <path d="M0,0C0.33,0.66 0.66,1.32 1,2C0.34,1.67 -0.32,1.34 -1,1C-0.67,0.67 -0.34,0.34 0,0Z" style="fill:rgb(16,17,16);fill-rule:nonzero;"/>
        </g>
        <g transform="matrix(1.48538,0,0,1.253894,421.824561,456.197819)">
            <path d="M0,0C0.33,0.66 0.66,1.32 1,2C0.34,1.67 -0.32,1.34 -1,1C-0.67,0.67 -0.34,0.34 0,0Z" style="fill:rgb(32,31,31);fill-rule:nonzero;"/>
        </g>
        <g transform="matrix(1.48538,0,0,1.253894,730.783626,433.627726)">
            <path d="M0,0L3,1L0,0Z" style="fill:rgb(18,18,17);fill-rule:nonzero;"/>
        </g>
        <g transform="matrix(1.48538,0,0,1.253894,698.105263,431.119938)">
            <path d="M0,0C0.99,0.495 0.99,0.495 2,1C1.01,1.495 1.01,1.495 0,2L0,0Z" style="fill:rgb(17,19,17);fill-rule:nonzero;"/>
        </g>
        <g transform="matrix(1.48538,0,0,1.253894,693.649123,431.119938)">
            <path d="M0,0C0.99,0.495 0.99,0.495 2,1C1.01,1.495 1.01,1.495 0,2L0,0Z" style="fill:rgb(17,19,18);fill-rule:nonzero;"/>
        </g>
        <g transform="matrix(1.48538,0,0,1.253894,748.608187,422.342679)">
            <path d="M0,0L2,0C1.67,0.66 1.34,1.32 1,2C0.67,1.34 0.34,0.68 0,0Z" style="fill:rgb(19,19,19);fill-rule:nonzero;"/>
        </g>
        <g transform="matrix(1.48538,0,0,1.253894,242.093567,1054.305296)">
            <path d="M0,0L2,1L0,0Z" style="fill:rgb(25,24,24);fill-rule:nonzero;"/>
        </g>
        <g transform="matrix(1.48538,0,0,1.253894,588.187135,1041.766355)">
            <path d="M0,0L2,1L0,0Z" style="fill:rgb(23,23,22);fill-rule:nonzero;"/>
        </g>
        <g transform="matrix(1.48538,0,0,1.253894,455.988304,1026.719626)">
            <path d="M0,0L2,1L0,0Z" style="fill:rgb(24,24,24);fill-rule:nonzero;"/>
        </g>
        <g transform="matrix(1.48538,0,0,1.253894,340.128655,1016.688474)">
            <path d="M0,0L2,1L0,0Z" style="fill:rgb(18,18,19);fill-rule:nonzero;"/>
        </g>
        <g transform="matrix(1.48538,0,0,1.253894,524.315789,906.345794)">
            <path d="M0,0L2,1L0,0Z" style="fill:rgb(27,28,26);fill-rule:nonzero;"/>
        </g>
        <g transform="matrix(1.48538,0,0,1.253894,331.216374,878.760125)">
            <path d="M0,0L2,1L0,0Z" style="fill:rgb(17,17,16);fill-rule:nonzero;"/>
        </g>
        <g transform="matrix(1.48538,0,0,1.253894,338.643275,861.205607)">
            <path d="M0,0L2,1L0,0Z" style="fill:rgb(18,15,17);fill-rule:nonzero;"/>
        </g>
        <g transform="matrix(1.48538,0,0,1.253894,363.894737,851.174455)">
            <path d="M0,0L2,1L0,0Z" style="fill:rgb(18,19,17);fill-rule:nonzero;"/>
        </g>
        <g transform="matrix(1.48538,0,0,1.253894,451.532164,807.288162)">
            <path d="M0,0L2,1L0,0Z" style="fill:rgb(17,16,17);fill-rule:nonzero;"/>
        </g>
        <g transform="matrix(1.48538,0,0,1.253894,723.356725,784.718069)">
            <path d="M0,0L2,1L0,0Z" style="fill:rgb(35,34,35);fill-rule:nonzero;"/>
        </g>
        <g transform="matrix(1.48538,0,0,1.253894,406.97076,782.21028)">
            <path d="M0,0L2,1L0,0Z" style="fill:rgb(16,17,17);fill-rule:nonzero;"/>
        </g>
        <g transform="matrix(1.48538,0,0,1.253894,409.94152,780.956386)">
            <path d="M0,0L2,1L0,0Z" style="fill:rgb(16,18,18);fill-rule:nonzero;"/>
        </g>
        <g transform="matrix(1.48538,0,0,1.253894,542.140351,729.546729)">
            <path d="M0,0L2,1L0,0Z" style="fill:rgb(19,19,17);fill-rule:nonzero;"/>
        </g>
        <g transform="matrix(1.48538,0,0,1.253894,402.51462,722.023364)">
            <path d="M0,0L2,1L0,0Z" style="fill:rgb(19,16,16);fill-rule:nonzero;"/>
        </g>
        <g transform="matrix(1.48538,0,0,1.253894,445.590643,689.422118)">
            <path d="M0,0L2,1L0,0Z" style="fill:rgb(16,17,17);fill-rule:nonzero;"/>
        </g>
        <g transform="matrix(1.48538,0,0,1.253894,675.824561,660.582555)">
            <path d="M0,0L2,1L0,0Z" style="fill:rgb(17,18,15);fill-rule:nonzero;"/>
        </g>
        <g transform="matrix(1.48538,0,0,1.253894,592.643275,634.250779)">
            <path d="M0,0L2,1L0,0Z" style="fill:rgb(18,18,17);fill-rule:nonzero;"/>
        </g>
        <g transform="matrix(1.48538,0,0,1.253894,803.567251,630.489097)">
            <path d="M0,0L2,1L0,0Z" style="fill:rgb(29,27,28);fill-rule:nonzero;"/>
        </g>
        <g transform="matrix(1.48538,0,0,1.253894,656.51462,622.965732)">
            <path d="M0,0L2,1L0,0Z" style="fill:rgb(19,20,20);fill-rule:nonzero;"/>
        </g>
        <g transform="matrix(1.48538,0,0,1.253894,307.450292,614.188474)">
            <path d="M0,0L2,1L0,0Z" style="fill:rgb(30,29,28);fill-rule:nonzero;"/>
        </g>
        <g transform="matrix(1.48538,0,0,1.253894,497.578947,610.426791)">
            <path d="M0,0L2,1L0,0Z" style="fill:rgb(18,17,17);fill-rule:nonzero;"/>
        </g>
        <g transform="matrix(1.48538,0,0,1.253894,652.05848,541.462617)">
            <path d="M0,0L2,1L0,0Z" style="fill:rgb(18,18,17);fill-rule:nonzero;"/>
        </g>
        <g transform="matrix(1.48538,0,0,1.253894,669.883041,540.208723)">
            <path d="M0,0L2,1L0,0Z" style="fill:rgb(17,17,16);fill-rule:nonzero;"/>
        </g>
        <g transform="matrix(1.48538,0,0,1.253894,606.011696,540.208723)">
            <path d="M0,0L2,1L0,0Z" style="fill:rgb(17,18,17);fill-rule:nonzero;"/>
        </g>
        <g transform="matrix(1.48538,0,0,1.253894,696.619883,525.161994)">
            <path d="M0,0L2,1L0,0Z" style="fill:rgb(19,18,18);fill-rule:nonzero;"/>
        </g>
        <g transform="matrix(1.48538,0,0,1.253894,712.959064,513.876947)">
            <path d="M0,0L2,1L0,0Z" style="fill:rgb(17,19,17);fill-rule:nonzero;"/>
        </g>
        <g transform="matrix(1.48538,0,0,1.253894,677.309942,513.876947)">
            <path d="M0,0L2,1L0,0Z" style="fill:rgb(19,21,18);fill-rule:nonzero;"/>
        </g>
        <g transform="matrix(1.48538,0,0,1.253894,597.099415,506.353583)">
            <path d="M0,0L2,1L0,0Z" style="fill:rgb(16,15,14);fill-rule:nonzero;"/>
        </g>
        <g transform="matrix(1.48538,0,0,1.253894,640.175439,500.084112)">
            <path d="M0,0L2,1L0,0Z" style="fill:rgb(20,19,19);fill-rule:nonzero;"/>
        </g>
        <g transform="matrix(1.48538,0,0,1.253894,568.877193,493.814642)">
            <path d="M0,0L2,1L0,0Z" style="fill:rgb(20,19,19);fill-rule:nonzero;"/>
        </g>
        <g transform="matrix(1.48538,0,0,1.253894,582.245614,480.021807)">
            <path d="M0,0L2,1L0,0Z" style="fill:rgb(15,15,16);fill-rule:nonzero;"/>
        </g>
        <g transform="matrix(1.48538,0,0,1.253894,793.169591,461.213396)">
            <path d="M0,0L2,1L0,0Z" style="fill:rgb(17,18,17);fill-rule:nonzero;"/>
        </g>
        <g transform="matrix(1.48538,0,0,1.253894,503.520468,457.451713)">
            <path d="M0,0L2,1L0,0Z" style="fill:rgb(27,28,27);fill-rule:nonzero;"/>
        </g>
        <g transform="matrix(1.48538,0,0,1.253894,736.725146,453.690031)">
            <path d="M0,0L2,1L0,0Z" style="fill:rgb(19,20,18);fill-rule:nonzero;"/>
        </g>
        <g transform="matrix(1.48538,0,0,1.253894,597.099415,432.373832)">
            <path d="M0,0L2,1L0,0Z" style="fill:rgb(20,20,20);fill-rule:nonzero;"/>
        </g>
        <g transform="matrix(1.48538,0,0,1.253894,705.532164,416.073209)">
            <path d="M0,0L2,1L0,0Z" style="fill:rgb(16,17,16);fill-rule:nonzero;"/>
        </g>
        <g transform="matrix(1.48538,0,0,1.253894,635.719298,390.995327)">
            <path d="M0,0L2,1L0,0Z" style="fill:rgb(23,24,22);fill-rule:nonzero;"/>
        </g>
        <g transform="matrix(1.48538,0,0,1.253894,732.269006,369.679128)">
            <path d="M0,0L2,1L0,0Z" style="fill:rgb(19,18,18);fill-rule:nonzero;"/>
        </g>
        <g transform="matrix(1.48538,0,0,1.253894,770.888889,342.093458)">
            <path d="M0,0L2,1L0,0Z" style="fill:rgb(27,28,27);fill-rule:nonzero;"/>
        </g>
        <g transform="matrix(1.48538,0,0,1.253894,702.561404,339.58567)">
            <path d="M0,0L2,1L0,0Z" style="fill:rgb(26,27,28);fill-rule:nonzero;"/>
        </g>
    </g>
</svg>
