<?xml version="1.0" encoding="UTF-8" standalone="no"?>
<!DOCTYPE svg PUBLIC "-//W3C//DTD SVG 1.1//EN" "http://www.w3.org/Graphics/SVG/1.1/DTD/svg11.dtd">
<svg width="100%" height="100%" viewBox="0 0 686 882" version="1.1" xmlns="http://www.w3.org/2000/svg" xmlns:xlink="http://www.w3.org/1999/xlink" xml:space="preserve" xmlns:serif="http://www.serif.com/" style="fill-rule:evenodd;clip-rule:evenodd;stroke-linejoin:round;stroke-miterlimit:2;">
    <g id="Artboard1" transform="matrix(0.896732,0,0,1,-85.189542,-71)">
        <rect x="95" y="71" width="765" height="882" style="fill:none;"/>
        <g transform="matrix(1.11516,0,0,1,-99.037901,0)">
            <path d="M380.222,518.498C381.868,499.296 387.393,481.503 393.396,463.829C394.479,460.639 395.87,457.4 398.738,455.561C403.065,452.785 404.302,448.74 404.556,444.088C406.217,413.725 416.837,386.319 432.21,360.508C441.6,344.743 451.853,329.564 463.465,315.328C467.078,310.9 470.993,306.87 476.334,304.481C479.03,303.276 480.961,301.18 482.128,298.503C487.488,286.204 496.058,276.312 505.299,266.821C545.266,225.769 587.802,187.743 635.232,155.387C673.13,129.533 715.107,114.514 760.293,108.03C768.354,106.873 776.541,106.187 784.681,106.071C801.736,105.83 809.365,113.266 808.068,130.158C806.398,151.918 802.477,173.393 796.324,194.387C795.633,196.743 794.695,199.387 793.019,201.025C788.477,205.461 788.447,210.777 788.17,216.571C787.567,229.22 782.448,240.801 778.121,252.491C772.007,269.011 763.989,284.489 751.997,297.64C750.52,299.259 749.116,301.032 749.263,303.355C750.106,316.6 744.474,328.115 739.158,339.548C728.866,361.684 716.767,382.746 699.744,400.58C699.284,401.062 698.922,401.663 698.399,402.055C689.901,408.422 684.87,416.393 684.089,427.446C683.622,434.053 679.257,439.799 675.825,445.487C654.979,480.032 628.526,509.422 595.164,532.35C592.058,534.484 590.112,536.784 590.118,540.831C590.126,545.746 587.41,549.696 584.226,553.199C566.697,572.479 545.442,586.046 520.787,594.359C519.072,594.937 517.357,595.516 515.562,596.122C521.036,602.987 520.678,606.025 513.504,611.102C503.708,618.034 492.504,621.863 481.127,625.203C467.652,629.158 453.306,635.924 447.069,641.441C448.011,643.364 450.041,643.311 451.668,643.807C460.169,646.402 468.247,649.878 475.588,654.943C484.442,661.052 489.174,669.342 489.035,680.259C488.944,687.424 489.124,694.595 488.905,701.756C488.782,705.766 490.04,708.111 494.038,709.64C502.589,712.911 510.863,716.9 519.367,720.304C529.933,724.532 535.973,732.518 538.107,743.28C544.034,773.155 548.989,803.214 551.759,833.549C552.968,846.783 546.773,857.083 535.161,863.773C523.278,870.619 510.328,875.126 497.737,880.386C474.376,890.145 450.714,899.137 426.945,907.869C408.98,914.47 391.727,914.174 374.075,906.386C340.702,891.66 306.982,877.723 273.509,863.221C257.786,856.409 250.504,847.9 251.097,831.384C251.376,823.596 252.761,815.835 253.857,808.091C256.842,787 260.493,766.024 264.641,745.127C267.158,732.447 274.116,723.781 286.224,719.15C294.467,715.996 302.574,712.481 310.835,709.375C314.999,707.81 316.874,705.31 316.722,700.76C316.471,693.268 316.77,685.76 316.626,678.263C316.465,669.773 319.995,663.065 326.348,657.809C338.567,647.698 353.288,643.586 368.472,640.723C378.309,638.869 388.25,637.891 398.256,637.838C402.69,637.815 403.439,636.073 401.767,632.263C397.664,622.913 392.394,614.237 386.743,605.778C383.869,601.475 381.047,597.15 379.063,592.35C377.2,587.84 376.264,583.149 379.965,579.23C383.472,575.517 387.88,576.638 392.108,578.141C393.201,578.529 394.312,578.869 396.03,579.433C394.739,574.701 392.57,570.869 390.545,567.001C382.656,551.933 377.914,536.201 380.222,518.498M541.89,286.244C541.632,266.524 544.798,248.789 549.46,245.087C549.46,245.917 549.59,246.575 549.442,247.163C545.15,264.145 546.199,281.118 549.042,298.194C551.198,311.147 553.098,324.148 551.503,337.416C550.829,343.017 549.284,348.72 551.041,355.222C554.601,349.979 557.735,345.29 560.941,340.651C583.136,308.542 607.058,277.799 633.169,248.758C670.823,206.877 712.701,170.033 761.053,140.851C762.247,140.13 763.348,138.809 765.401,139.743C764.208,142.639 761.378,143.571 759.215,145.11C736.134,161.527 713.346,178.29 692.375,197.425C657.032,229.673 626.208,265.923 597.492,304.039C556.473,358.484 521.697,416.833 490.252,477.201C458.508,538.142 431.882,601.386 406.755,665.276C404.105,672.016 400.843,678.607 399.509,685.787C407.009,688.823 411.289,687.258 413.859,680.358C429.62,638.048 446.324,596.119 464.736,554.887C485.53,508.32 507.727,462.447 532.909,418.061C561.882,366.992 593.141,317.442 629.601,271.298C656.424,237.351 685.529,205.593 718.521,177.51C720.057,176.203 721.416,174.415 724.061,174.724C706.695,192.101 689.77,209.805 673.299,228.865C676.279,228.928 677.8,226.779 680.23,227.946C678.775,230.358 676.37,231.214 674.264,232.402C669.593,235.038 665.194,237.958 661.812,242.255C654.085,252.073 646.189,261.758 638.521,271.621C633.919,277.542 629.618,283.696 624.427,290.775C631.606,286.674 636.956,282.19 644.123,279.594C643.659,282.876 641.459,283.385 639.978,284.453C626.853,293.915 614.061,303.474 605.075,317.561C594.924,333.474 584.323,349.093 574.999,365.648C599.828,346.752 628.492,336.81 658.002,328.605C676.329,323.509 694.088,316.74 710.956,307.863C730.897,297.368 748.734,284.528 758.338,263.087C761.671,255.645 764.795,248.106 767.842,240.541C768.662,238.507 770.253,236.48 769.252,234.032C768,233.668 767.208,234.364 766.407,234.921C752.59,244.513 737.506,251.365 721.371,256.042C700.114,262.204 678.451,267.056 657.897,275.515C657.136,275.828 656.324,276.123 655.484,275.341C655.676,272.772 658.104,272.685 659.7,271.86C676.939,262.943 695.37,257.081 713.656,250.827C733.838,243.924 752.762,234.666 768.797,220.266C771.013,218.277 773.902,216.642 774.335,212.579C760.369,214.731 746.84,213.939 732.686,212.857C734.282,210.753 735.862,210.877 737.276,210.555C747.018,208.336 756.721,206.016 766.159,202.632C776.856,198.797 783.604,192.108 786.029,180.472C789.426,164.165 792.649,147.852 794.582,131.313C795.77,121.146 793.701,118.946 783.597,119.292C760.82,120.072 738.76,124.947 716.879,130.996C705.32,134.191 696.219,140.508 688.782,149.817C679.377,161.589 673.003,174.826 668.48,189.072C668.062,190.387 668.391,192.167 665.438,192.758C666.662,176.065 671.254,160.801 679.045,146.177C672.415,149.091 665.929,151.885 661.075,157.41C647.408,172.967 641.025,191.702 637.232,211.601C636.736,214.203 637.196,217.142 634.217,220.61C632.737,201.539 635.713,184.536 642.84,166.767C633.203,172.877 625.669,179.195 617.546,184.639C605.445,192.748 599.085,204.337 595.391,217.943C591.443,232.487 591.987,247.313 592.097,262.136C592.111,264.078 593.127,266.363 590.426,268.501C585.856,247.867 583.127,227.836 589.578,207.047C588.518,207.709 588.071,207.916 587.711,208.224C560.089,231.807 533.651,256.638 508.778,283.122C501.211,291.179 495.977,300.417 493.218,311.196C486.98,335.566 487.464,359.94 492.493,384.396C493.746,390.493 495.642,396.483 495.595,402.837C482.44,377.788 474.883,351.306 475.832,321.539C474.199,323.506 473.485,324.218 472.95,325.045C472.138,326.302 471.36,327.596 470.721,328.947C459.628,352.385 457.139,377.153 459.789,402.59C461.514,419.151 465.634,435.342 468.028,451.802C468.495,455.017 470.188,458.38 468.137,463.16C458.62,427.791 443.881,394.699 450.581,357.797C441.293,370.925 433.893,384.692 428.095,399.28C418.599,423.172 415.196,447.747 420.303,473.205C423.203,487.66 428.876,501.184 434,514.911C436.011,520.297 438.735,525.556 438.967,531.586C428.759,510.351 414.358,491.471 406.163,469.234C404.765,497.448 417.553,521.89 425.753,547.567C414.985,530.367 403.356,513.746 398.266,493.702C392.32,514.318 389.465,534.714 398.178,555.269C403.822,568.583 410.579,581.503 413.567,595.837C413.99,597.868 414.865,599.911 412.963,602.482C405.706,595.922 398.685,589.401 387.98,586.917C395.944,600.479 405.394,611.948 411.257,626.605C412.744,623.404 413.795,621.338 414.681,619.204C425.278,593.68 436.085,568.246 447.597,543.119C474.141,485.183 503.968,428.986 538.428,375.37C547.19,361.736 549.738,347.418 548.27,332.127C546.826,317.082 544.098,302.16 541.89,286.244M410.124,799.555C408.532,801.527 405.406,802.898 407.36,806.901C422.906,795.428 437.568,783.447 453.852,773.742C451.97,777.735 448.633,780.209 445.444,782.79C433.4,792.536 421.439,802.381 409.969,812.804C407.666,814.897 405.508,817.164 407.03,821.325C421.719,810.185 435.837,799.008 451.714,789.577C452.128,792.713 450.078,793.087 448.934,794.049C435.924,804.975 422.829,815.8 409.848,826.76C406.013,829.997 406.035,830.468 407.216,834.895C423.692,821.689 441.504,810.694 459.835,798.228C459.15,802.092 457.16,802.925 455.672,804.116C440.456,816.289 424.493,827.511 409.774,840.322C407.035,842.706 405.267,845.057 407.057,849.403C420.182,839.119 432.909,828.756 447.354,820.76C444.148,824.858 440.394,828.281 436.614,831.675C427.568,839.797 418.461,847.853 409.49,856.058C407.394,857.976 405.129,860.185 406.972,863.962C424.321,850.571 441.449,837.352 458.986,823.816C459.625,826.84 457.996,827.483 456.959,828.391C451.694,832.999 446.334,837.498 441.084,842.122C430.714,851.258 420.352,860.405 410.092,869.665C408.291,871.29 405.861,872.986 407.189,877.105C422.339,866.473 436.151,854.804 451.888,845.935C440.439,858.26 426.709,867.903 413.207,880.053C432.199,876.173 443.004,860.852 458.798,854.281C454.947,859.99 448.257,862.713 444.395,868.476C458.015,864.688 471.019,859.301 485.288,856.01C484.355,858.963 482.485,859.121 481.061,859.775C472.888,863.528 464.718,867.291 456.472,870.878C443.186,876.657 429.944,882.558 416.489,887.919C405.852,892.157 398.306,886.802 397.829,875.321C397.801,874.655 397.817,873.988 397.805,873.321C397.412,851.15 398.428,829 399.133,806.855C399.384,798.973 398.538,790.777 402.168,783.66C401.697,781.56 398.744,782.165 398.977,780.302C438.241,762.65 478.174,747.641 519.703,737.435C519.609,735.436 518.475,734.636 517.375,733.953C508.254,728.29 498.001,725.147 488.225,720.939C486.621,720.248 485.81,721.179 485.04,722.442C478.146,733.753 467.258,739.861 455.371,744.126C420.694,756.569 385.784,756.393 351.066,744.381C338.561,740.055 326.659,734.274 319.646,721.96C318.413,719.796 316.657,720.334 314.866,721.064C306.382,724.52 297.852,727.869 289.438,731.486C286.816,732.613 284.113,734.041 282.718,737.26C302.242,743.808 321.073,750.95 339.68,758.673C352.6,764.036 365.513,769.422 378.341,775C381.727,776.472 385.235,778.309 385.489,782.953C383.742,783.813 382.402,783.245 380.984,782.682C355.283,772.484 329.565,762.327 303.865,752.128C299.237,750.292 294.693,748.174 289.694,749.771C288.542,747.866 291.593,747.218 290.329,745.33C289.325,744.841 288.164,744.19 286.94,743.691C281.117,741.316 278.664,742.567 277.128,748.638C276.883,749.606 276.579,750.564 276.404,751.545C271.922,776.609 267.691,801.714 264.447,826.973C262.929,838.793 265.993,844.413 276.72,849.926C278.201,850.687 279.708,851.404 281.239,852.058C313.703,865.953 346.273,879.607 378.597,893.823C393.296,900.287 407.487,900.078 422.174,894.212C443.519,885.686 465.107,877.765 486.427,869.179C500.015,863.707 513.786,858.624 526.877,851.957C534.889,847.876 539.162,841.001 538.295,832.48C535.499,804.996 531.212,777.694 526.212,750.521C524.73,742.469 520.663,741.091 512.769,745.901C517.027,748.37 518.541,752.376 519.197,756.732C522.793,780.577 526.351,804.428 529.849,828.288C530.593,833.362 529.519,838.25 525.323,841.37C518.17,846.689 509.853,849.554 501.1,851.112C500.985,851.133 500.775,850.62 500.403,850.028C505.549,845.561 511.808,842.754 517.552,839.186C522.039,836.4 523.613,832.66 523.213,827.417C522.261,814.956 520.296,802.628 518.533,790.285C517.537,783.31 517.161,776.152 514.726,768.693C508.643,776.926 504.29,785.754 496.321,792.115C495.173,789.319 496.774,788.204 497.659,786.943C502.346,780.261 507.043,773.583 511.896,767.022C513.967,764.222 514.538,761.492 512.854,757.868C505.587,764.087 502.229,773.496 494.016,778.366C498.719,769.091 504.384,760.522 512.004,751.936C506.264,751.096 504.966,755.021 502.983,757.27C496.276,764.871 489.61,772.492 481.835,779.043C481.05,779.705 480.253,780.985 478.354,779.405C487.606,770.895 493.692,759.853 503.407,750.975C498.303,750.905 495.668,753.155 493.251,756.159C488.608,761.928 483.821,767.609 476.37,771.916C478.269,763.924 485.22,760.683 489.076,754.606C485.188,755.507 482.104,756.399 479.592,758.892C475.222,763.229 470.714,767.433 466.158,771.578C464.198,773.361 462.26,775.492 458.343,775.02C461.848,769.456 467.943,767.067 470.888,761.656C468.09,760.617 466.007,762.069 463.906,762.787C447.663,768.335 431.809,774.902 415.959,781.463C409.374,784.19 406.766,788.346 407.952,794.373C416.053,788.112 424.121,782.236 432.73,777.257C433.049,777.725 433.369,778.194 433.688,778.662C425.997,785.465 418.306,792.268 410.124,799.555M671.251,424.538C669.885,423.598 668.687,424.465 667.532,424.983C647.265,434.059 625.692,437.148 603.828,438.102C577.867,439.235 554.011,446.22 532.63,461.148C524.641,466.727 516.826,472.518 510.672,481.454C518.292,478.141 523.645,472.553 531.194,471.116C526.229,476.479 519.668,479.725 514.14,484.316C508.367,489.111 502.856,493.828 500.836,502.011C510.731,495.766 520.33,490.16 530.959,486.46C549.016,480.176 567.67,478.736 586.589,478.925C597.756,479.036 608.902,478.685 619.799,475.763C620.591,475.551 621.816,474.947 622.226,476.512C620.965,478.405 618.811,478.475 616.987,479.097C600.687,484.658 583.594,484.721 566.715,486.23C542.703,488.375 521.065,496.65 501.973,511.354C498.144,514.304 494.057,517.223 491.388,522.629C498.316,519.754 503.518,515.15 510.44,513.316C510.087,516.386 507.994,516.698 506.53,517.556C493.766,525.037 483.534,534.256 478.07,548.911C470.69,568.704 461.327,587.749 453.484,607.383C450.832,614.02 447.065,620.348 445.549,628.329C464.337,615.913 486.338,613.411 506.718,603.594C494.798,599.596 483.586,602.053 472.281,600.885C473.269,598.346 475.124,597.849 476.657,597.061C486.926,591.782 497.921,588.39 508.837,584.805C530.613,577.654 550.452,567.007 567.891,552.062C570.39,549.92 573.406,548.103 574.982,543.766C553.606,548.629 532.417,549.394 511.743,554.247C517.435,549.55 524.022,547.025 530.714,544.76C550.597,538.033 570.571,531.547 588.377,519.975C609.857,506.016 627.637,488.086 643.552,468.239C654.292,454.846 664.346,440.943 671.251,424.538M728.872,313.6C704.743,324.925 679.108,331.477 653.261,337.288C622.448,344.216 594.838,357.508 570.95,378.261C566.766,381.896 562.347,385.459 559.554,391.872C568.653,386.359 575.872,379.72 585.281,376.949C571.788,389.813 553.063,397.136 544.802,416.488C552.14,411.949 558.783,407.839 565.425,403.73C565.768,404.173 566.11,404.617 566.453,405.06C555.326,415.865 539.734,422.273 532.62,437.93C538.176,434.567 542.651,430.624 548.671,429.189C539.314,438.19 526.507,443.983 522.62,457.948C524.524,458.411 525.435,457.252 526.433,456.499C533.257,451.348 540.839,447.541 548.496,443.842C566.503,435.141 586.116,433.037 605.461,429.674C634.424,424.638 661.543,414.956 684.28,395.596C701.212,381.178 712.392,362.426 722.317,342.861C722.746,342.016 723.266,341.078 722.46,339.495C696.489,359.186 666.661,369.288 635.16,375.237C636.404,373.105 638.573,372.81 640.493,372.095C647.823,369.363 655.278,366.939 662.496,363.944C688.127,353.31 711.856,339.781 730.179,318.292C731.788,316.405 733.796,314.663 734.314,311.362C732.275,312.185 730.9,312.741 728.872,313.6M338.035,664.523C336.983,665.338 335.866,666.083 334.888,666.98C327.683,673.582 327.528,680.702 334.354,687.761C336.454,689.933 338.725,691.9 341.362,693.35C345.882,695.835 350.517,698.112 355.03,700.607C356.623,701.488 358.755,702.146 358.565,705.233C348.11,703.917 339.143,699.622 330.416,693.327C328.62,699.121 329.648,704.307 329.277,709.375C328.846,715.28 331.525,719.662 335.877,723.191C341.233,727.535 347.294,730.714 353.777,732.958C376.559,740.839 399.926,742.507 423.721,739.219C436.507,737.452 448.878,734.283 460.353,728.18C462.035,727.286 464.394,726.762 464.147,724.144C463.876,721.279 460.713,724.054 459.816,722.067C459.979,719.981 461.399,718.516 462.536,716.9C463.69,715.258 464.85,713.602 464.487,710.855C457.673,717.585 453.117,725.515 444.631,729.294C447.231,722.466 454.579,718.921 456.894,711.281C447.963,713.404 445.211,722.652 437.056,726.964C441.085,719.253 445.9,713.764 450.733,708.287C450.34,707.965 449.948,707.643 449.555,707.321C444.032,713.143 438.508,718.965 432.984,724.788C432.385,724.25 431.785,723.712 431.186,723.174C432.978,717.578 438.677,714.627 441.804,709.642C431.938,708.335 430.108,720.158 421.034,721.31C422.962,716.687 427.807,715.735 429.767,712.094C382.64,712 378.538,711.579 374.807,706.407C376.802,705.053 379.024,705.636 381.074,705.858C396.071,707.481 411.02,706.853 425.898,704.761C440.503,702.708 454.698,699.213 467.051,690.573C478.716,682.415 478.524,672.119 466.638,664.243C459.03,659.201 450.556,656.297 441.746,654.278C435.493,652.846 434.87,653.363 434.003,660.226C435.356,660.658 436.748,661.14 438.162,661.55C443.79,663.18 449.275,665.215 454.05,668.653C460.445,673.259 460.689,678.781 454.885,683.999C451.232,687.283 446.799,689.213 442.236,690.864C432.284,694.464 421.928,696.183 411.441,696.781C392.46,697.863 373.826,696.117 356.298,688.008C351.418,685.75 346.123,682.943 346.285,676.742C346.451,670.375 351.948,667.749 357.041,665.462C368.618,660.265 380.971,658.375 393.486,657.856C398.607,657.644 400.673,655.664 400.875,650.895C388.906,648.689 352.942,654.097 338.035,664.523M468.889,715.973C468.366,718.126 467.843,720.279 467.173,723.034C475.313,718.328 477.637,708.001 473.879,694.889C469.702,701.411 470.086,708.465 468.889,715.973M444.048,672.34C440.796,671.08 437.592,669.667 434.275,668.615C432.153,667.941 429.928,667.91 429.697,671.64C435.956,673.099 441.538,676.598 448.715,677.39C446.752,674.152 446.752,674.152 444.048,672.34M384.851,670.549C393.388,668.728 393.388,668.728 394.26,665.522C385.676,665.858 377.462,666.948 369.599,670.144C374.205,669.367 378.72,667.953 383.343,668.339C384.035,669.899 381.801,669.448 382.158,670.621C382.88,670.621 383.539,670.621 384.851,670.549Z" style="fill-rule:nonzero;"/>
        </g>
        <g transform="matrix(1.11516,0,0,1,-99.037901,0)">
            <path d="M382.691,843.999C382.788,825.468 383.486,807.479 385.635,788.189C389.202,792.604 388.74,796.429 388.83,799.891C389.468,824.548 388.847,849.191 387.203,873.8C386.625,882.459 381.717,885.324 373.946,881.612C365.531,877.592 357.221,873.351 348.898,869.141C347.64,868.504 345.988,868.209 345.483,866.17C347.325,864.969 348.914,866.236 350.452,866.818C358.549,869.886 366.583,873.123 374.705,876.124C380.275,878.183 381.318,877.506 382.126,871.456C383.321,862.5 382.414,853.484 382.691,843.999Z" style="fill-rule:nonzero;"/>
        </g>
        <g transform="matrix(1.11516,0,0,1,-99.037901,0)">
            <path d="M280.374,813.313C279.921,818.409 279.484,823.05 279.071,827.694C278.705,831.799 280.366,834.722 284.062,836.636C289.534,839.471 294.95,842.417 300.355,845.38C301.736,846.137 303.506,846.552 304.029,848.441C302.209,849.834 300.661,848.559 299.238,848.082C294.029,846.336 288.881,844.404 283.746,842.447C273.977,838.722 271.498,834.809 273.021,824.521C274.897,811.846 277.026,799.206 279.185,786.575C280.531,778.704 282.129,770.876 283.627,763.032C283.966,761.261 284.157,759.427 285.979,758.037C285.388,776.434 282.789,794.637 280.374,813.313Z" style="fill-rule:nonzero;"/>
        </g>
        <g transform="matrix(1.11516,0,0,1,-99.037901,0)">
            <path d="M505.154,800.13C503.42,802.056 502.463,804.381 499.793,804.754C500.47,800.496 509.906,786.764 515.484,782.286C514.089,789.855 509.625,794.793 505.154,800.13Z" style="fill-rule:nonzero;"/>
        </g>
        <g transform="matrix(1.11516,0,0,1,-99.037901,0)">
            <path d="M284.62,825.5C285.786,820.231 285.901,815.083 289.026,810.673C288.753,817.779 290.355,825.015 287.145,832.009C283.622,830.627 284.431,828.149 284.62,825.5Z" style="fill-rule:nonzero;"/>
        </g>
        <g transform="matrix(1.11516,0,0,1,-99.037901,0)">
            <path d="M509.32,836.344C508.069,837.115 507.236,838.073 504.831,837.331C508.474,832.433 511.925,827.92 516.254,823.604C517.965,829.113 517.683,829.601 509.32,836.344Z" style="fill-rule:nonzero;"/>
        </g>
        <g transform="matrix(1.11516,0,0,1,-99.037901,0)">
            <path d="M509.87,820.851C507.494,823.059 505.839,825.69 502.56,826.438C502.959,821.39 508.172,815.57 514.268,813.266C514.618,816.831 511.711,818.366 509.87,820.851Z" style="fill-rule:nonzero;"/>
        </g>
        <g transform="matrix(1.11516,0,0,1,-99.037901,0)">
            <path d="M514.363,803.299C512.94,808.174 510.174,811.493 505.5,813.149C506.633,808.574 509.599,805.206 512.733,802.001C513.446,801.272 514.207,801.99 514.363,803.299Z" style="fill-rule:nonzero;"/>
        </g>
        <g transform="matrix(1.11516,0,0,1,-99.037901,0)">
            <path d="M297.943,830.553C297.532,832.709 297.546,834.661 295.516,835.547C292.611,832.753 293.11,828.094 296.907,823.653C298.961,825.586 297.756,828.006 297.943,830.553Z" style="fill-rule:nonzero;"/>
        </g>
        <g transform="matrix(1.11516,0,0,1,-99.037901,0)">
            <path d="M339.352,707.185C339.038,711.171 340.029,714.824 337.909,718.258C334.392,712.394 335.91,706.161 336.1,699.02C339.62,701.494 339.316,704.171 339.352,707.185Z" style="fill-rule:nonzero;"/>
        </g>
    </g>
</svg>
