<?xml version="1.0" encoding="iso-8859-1"?>
<!-- Generator: Adobe Illustrator 11.0, SVG Export Plug-In  -->
<!DOCTYPE svg PUBLIC "-//W3C//DTD SVG 1.0//EN"    "http://www.w3.org/TR/2001/REC-SVG-20010904/DTD/svg10.dtd" [
	<!ENTITY ns_flows "http://ns.adobe.com/Flows/1.0/">
	<!ENTITY ns_svg "http://www.w3.org/2000/svg">
	<!ENTITY ns_xlink "http://www.w3.org/1999/xlink">
]>
<svg  xmlns="&ns_svg;" xmlns:xlink="&ns_xlink;" xmlns:a="http://ns.adobe.com/AdobeSVGViewerExtensions/3.0/"
	 width="500" height="500" viewBox="14.2 16.33 500 500" xml:space="preserve">
	<defs>
	</defs>
	<g>
		<rect x="5.2" y="7.33" width="519" height="519"/> 
		<path fill="#FFFFFF" d="M366.2,16.33c42.11,0.1,87.78,71.99,79,123c-4.33,16-8.67,32-13,48c-2.72,20.48,21.79,46.42,41,38
			c1-5.33,2-10.67,3-16c-6-3.33-13.33-5.67-19.33-13c-11.33-17.67-5.33-55.33-4.67-80c1-9.33,2-18.67,3-28
			c0.33-53.67-14.19-66.47-29-81.33c0.33-1,0.67-2,1-3c1.6-2.7,0.34-1.38,3-3c1.33-0.33,2.67-0.67,4-1
			c57.28,48.28,14,118.65,33,192.33c3.71,1.82,6.67,3.14,10,3c-9.97-34.65,3.85-75.36-2-112c-2.37-14.83-11.67-37.63-4-51
			c0.33,0,0.67,0,1,0c1.33,0,2.67,0,4,0c1,1,2,2,3,3c2.67,18.67,5.33,37.33,8,56c-1,17.33-2,34.67-3,52c1.33,17.33,2.67,34.67,4,52
			c2-1.67,4-3.33,6-5c6.17-23.26,4.3-102.12,0-129c-2.1-13.12-10.32-33.7-7-42c1.67-0.33,3.33-0.67,5-1
			c23.6,23.77,18.02,144.19,11,183c1,10.33,2,20.67,3,31c-4.21,1.18-6.72,0.63-10-1c-1.67-8-3.33-16-5-24c-0.33,0-0.67,0-1,0
			c-0.67,1-1.33,2-2,3c-1.67,7.67-3.33,15.33-5,23c17.43,8.46,15.44,37.46,20,59c11.16,52.75,27.6,200.79-27,213
			c-14.67,0.67-29.33,1.33-44,2c-50.42,8-119.13,3.34-140-28c-5.67-14.33-11.33-28.67-17-43c-15.46-38.29-29.14-71.34-59-95
			c-14.19-11.25-37.71-26.25-61-14c-30.94,16.27-30.91,53.55-49,83c-6.39,10.4-17.67,19.38-27,27c0.33,3.33,0.67,6.67,1,10
			c44.63,5.01,41.27-91.16,84-107c67.08-24.86,87.5,59.5,92.25,105.5c2,16,12.75,53.25,19.75,57c25.75,22.25,57.04,32.01,64,39.5
			c-6.33,0-12.67,0-19,0c-5.29-6.77-39.25-12-55.75-36.5s-17.92-53.5-21.25-75.5c-0.33,0-0.67,0-1,0c-4.44,27.15-33.5,59-93,59
			c0.67-2.33,1.33-4.67,2-7c28.57-4.44,54.43-9.51,69-30c20.95-29.46,15.38-86.36-17-100c-85.58-36.06-53.45,123.69-130,105
			c-19.01-26.36,10.36-34.69,21-51c22.86-35.04,29.6-114.27,99-92c38.02,12.2,65.61,51.04,80,87c15.9,39.72,21.16,81.31,64,94
			c37.65,11.15,142.95,4.2,157-18c7.24-11.43,2.47-37.05,5-52c6.96-41.15-4.22-156.12-21-182c-27.75-4.58-64.88-22.3-58-60
			c2.8-15.32,17.03-37.81,12-54c-3,26.5-37.55,73.78-21,97c4.92,6.9,18.21,6.08,25,11c0,1.67,0,3.33,0,5c-0.67,0.67-1.33,1.33-2,2
			c-23.92,4.52-44.5-15.43-39-43c7.28-36.48,42.64-75.58,26-122C411.68,49.97,385.18,37.06,366.2,16.33z"/>
		<path fill="#FFFFFF" d="M161.2,531.08c12.31,3.64-80.51-24.4-102-61.5c-12.16-20.99,4.22-68.6,8-75.25c6-13,12-26,18-39
			c7.85-17.31,19.98-63.25,36-70c34.8-14.65,73.27,4.72,93,18c26.08,17.56,57.61,53.61,76,79c22.05,30.45,33.58,68.12,71,83
			c10.68,4.25,28.63,2.93,40,1c10.61-1.8,22.57,6.89,32,1c29.79-18.59,21.65-127.83,11-167c-0.67,0.33-1.33,0.67-2,1
			c-0.22,9.03-6.09,23.22-13,13c-3.2-9.83,5.43-22.96,11-28c2.33,0.33,4.67,0.67,7,1c17.17,9.18,9.51,36.37,13,60
			c6.61,44.79,6.65,96.5-14,124c2.33,0,4.67,0,7,0c11.26-3.67,20.07-10.32,24-21c8.54-23.22-2.73-164.85-11-177
			c-6.4-9.41-23.01-12.32-34-6c-8.01,18.81-45.66,72.35-63,80c-21.85,9.64-54.07-0.38-67-10c-6.67-7.67-13.33-15.33-20-23
			c-20.44-21.26-43.3-41.08-60-66c-9.53-14.22-13.71-29.46-23-45c-7.67-10.67-15.33-21.33-23-32c-10.04-25.94,17.15-50.84,39-53
			c1.67,1.33,3.33,2.67,5,4c-0.33,1.33-0.67,2.67-1,4c-9.28,10.9-56.16,25.48-24,52c-0.65-65.08,76.4-45.76,98-14
			c28.16,41.39-21.15,67.05-12,107c4.78,3.55,6.32,5.74,15,6c18.26-7.38,27.3-20.08,36-37c33.31-64.77-17.55-126.02-63-149
			c-29.26-14.8-61.56,4.62-92,0c-1.67-4.63-2.47-6.21,2-9c15.33-3,30.67-6,46-9c-56.6-9.45-105.8,21.52-144,47
			c-10.7,7.14-42.76,38.11-55,33c0-1.67,0-3.33,0-5c12.4-20.74,45.4-28.73,62-46c-24.59-1.5-48.77-8.18-59,12c0.33,1,0.67,2,1,3
			c1.67,0,3.33,0,5,0c2.67-1,5.33-2,8-3c0.87-3.7-0.35-5.4,4-8c1.33-0.33,2.67-0.67,4-1c2,2.67,4,5.33,6,8
			c-5.01,11.62-18.33,18.06-33,14c-3.71-4.99-5.9-6.74-6-16c17.98-42.27,52.74-10.86,92-21c14-6.33,28-12.67,42-19
			c0-0.33,0-0.67,0-1c-41.71,3.85-102.8,10.94-147.46,4c0-4,0-8,0-12c20.93,2.64,42.7-0.65,53.46-13c-0.33-3-0.67-6-1-9
			c-4.18-5.76-8.81-9.04-19-9c-4.74,1.51-7.66,1.96-10,6c-0.87,3.15-0.3,3.18,1,6c6.1,0.79,6.55,1.83,9,6c-1,1.67-2,3.33-3,5
			c-7.17,1.08-11.86-1.6-17-5c-1.99-6.62-1.82-13.27,0-20c29.97-23.22,67.57,3.67,42,36c44.43-0.36,96.22-15.01,139-8
			c74.21,12.15,131.26,48.43,153,112c15.75,46.07-32.3,145.48-74,115c-41.62-30.42,36.55-78.61,5-112c0.91,26.88-11.43,62.96-37,63
			c-19.99-9.98-34.99-51.21-21-74c12.25-5.07,25.14-6.56,36,1c4.65,14.2,5.88,41.47-8,48c-14.37,5.23-23.87-23.99-13-33
			c1.33,0.33,2.67,0.67,4,1c1.92,1.39,0.6,0.1,2,2c1,6,2,12,3,18c0.33,0,0.67,0,1,0c0-0.67,0-1.33,0-2c4.08-7.23,3.81-21.18,0-28
			c-5.81-1.18-10.72-0.34-16,1c-1,1.67-2,3.33-3,5c-4.97,16.61,8.83,44.05,19,50c0.67-0.67,1.33-1.33,2-2
			c10.64-5.74,30.73-48.35,15-65c-11.07-17.02-49.94-14.68-58,3c-12.36,27.11,8.53,60.24,19,76c14.82,22.31,70.96,89.57,94,99
			c43.77,17.91,59.84-17.42,76-40c4.88-6.82,18.04-16.14,16-26c-2.97-10.44-12.57-12.16-17-21c-0.33,0-0.67,0-1,0
			c0.67,8.33,1.33,16.67,2,25c-6.44,30.18-48.03,76.42-84,47c-24.03-19.65,25.02-46.52,32-58c4.85-7.98,4.06-19.22,11-25
			c1.33,0,2.67,0,4,0c1,1,2,2,3,3c-1.92,36.79-30.89,41.77-45,65c1.67,2.67,3.33,5.33,5,8c41.08,9.21,67.11-23.37,60-65
			c-0.67,0.33-1.33,0.67-2,1c-5.19,27.81-21.3,51.42-45,61c-1.67-1-3.33-2-5-3c1.9-12.5,16.49-15.6,23-24
			c9.51-12.27,20.28-38.06,24-54c4.71-20.15-7.91-39.71-12-54c-4-14.67-8-29.33-12-44c-8.33-8-16.67-16-25-24
			c-25.01-20.08-47.4-37.26-83-48c-12.67-2.33-25.33-4.67-38-7c0-2.33,0-4.67,0-7c0.67-1,1.33-2,2-3c60.49,0.7,90.6,33.63,128,56
			c-30.55-47.9-85.45-61.64-163-63c-18.8-0.33-56.85-5.9-70,4c11.67,1.33,23.33,2.67,35,4c14.33-0.33,28.67-0.67,43-1
			c0.67,1.33,1.33,2.67,2,4c-1,2-2,4-3,6c-23.68,3.68-77.69,4.26-99-5c-1-0.67-2-1.33-3-2c0.61-5.77,1.62-5.63,4-9
			c6.33-3.33,12.67-6.67,19-10c32.84-9.14,149.38-1.29,175,9c15.19,6.1,52.7,40.79,69,35c20.76-10.62-7.54-41.08-25-41
			c0,0.33,0,0.67,0,1c3.72,7.18,9.34,10.07,14,16c-0.67,2.33-1.33,4.67-2,7c-2-0.33-4-0.67-6-1c-7.86-3.03-21.71-15.31-16-28
			c2.31-4.41,5.01-4.47,9-7c30.44,2.01,49.1,24.85,40,57c-6.15,4.81-8.25,8.04-20,8c14.04,25.22,30.05,50,35,86
			c0.67-0.33,1.33-0.67,2-1c4.95-18.61,19.25-39.64,13-65c-2.39-9.67-9.24-11.93-10-24c-0.67,0.33-1.33,0.67-2,1
			c-6.34,23.93,7.77,27.73,5,47c-4.44,1.42-6.66,1.6-9-2c-17.67-27.37-8.89-54.06,14-70c1.67,0.33,3.33,0.67,5,1c1,0.67,2,1.33,3,2
			c-0.84,7.2-8.37,15.13-5,24c4.22,11.1,14.44,21.5,11,42c-6.07,36.18-26.17,58.62-12,98c6.18,17.18,22.4,24.57,31,39
			c16.16-11.82,42.53-8.76,53,7c9,13.55,21.05,148.65,14,179c-3.23,13.91-13.39,28.42-25,34c-14.78,7.1-38.55,0.23-52-1
			c-16.33-0.33-32.67-0.67-49-1c-51.88-13.71-91.3-105.18-130-142c-20.78-19.77-59.39-60.24-107-41c-12.98,5.24-15.51,29.48-21,42
			c-10.02,22.86-74.25,123.05-21.5,141.5c26.48,9.26,113.85-27,123.5-40.5c17.31-24.22,2.79-64.61-26-66
			c-16.31,6.14-44.77,37.03-32,60c0.67,0,1.33,0,2,0c17.92,4.99,36.55-11.65,36-30c-1.67-2.33-3.33-4.67-5-7c-1,0.33-2,0.67-3,1
			c-3.28,4.6-8.8,20.52-11,22c-1.33,0.33-2.67,0.67-4,1c-13.38-13.32,4.36-28,13-35c4.33,0.67,8.67,1.33,13,2
			c29.95,38.09-35.94,74.71-52,52c-17.47-24.7,22.99-84.66,52-77c29.5,7.79,48.34,54.14,26,84c-13.52,18.07-91.25,45.25-124.5,44.5
			c0.67,0.33,35.33,18.17,36,18.5c6.77,4.63,54,21,54,21C177.92,532.45,154.88,529.21,161.2,531.08z"/>
		<path fill="#FFFFFF" d="M168.2,98.33c42.71-0.78,77.09,2.06,109,13c24.06,8.25,64.33,53.98,58,91c-3.38,19.78-11.79,36.61-21,51
			c-4.51-0.22-5.39-0.71-8-2c-0.33-1-0.67-2-1-3c6.92-15.66,16.01-29.91,19-49c4.31-27.53-28.82-67.2-46-75
			c-33.62-15.26-94.43-24.43-108,13c-10.42,28.74,5.49,63.31,14,81c28.01,58.27,64.96,91.03,117,125c14.39,9.39,25.22,27.67,44,32
			c33.61,7.76,57.13-36.33,75-48c1,0.33,2,0.67,3,1c1,0.67,2,1.33,3,2c-0.33,2.33-0.67,4.67-1,7c-9.73,19.8-57.17,60.97-92,46
			c-18.37-7.89-27.24-28.99-48-34c8.65,13.93,27.77,44.88,44,50c34.19,10.8,64.06-35.2,96-37c16.97,8.37,19.19,78.92,3,90
			c-14.06,9.63-40.04-4.15-45-2c-5.35,4.09-7.62,7.46-17,8c-14.86-5.79-34.22-23.21-42-36c0.33-1.67,0.67-3.33,1-5
			c14.07-4.37,31.14,20.17,40,29c5.59-0.3,5.84-1.02,9-3c6.37-16.55,17.61-12.55,33-15c0-0.67,0-1.33,0-2c1-9.67,2-19.33,3-29
			c-14.33,8-28.67,16-43,24c0,1.33,0,2.67,0,4c7.78-4.43,22.22-17.46,33-14c1.33,0.67,2.67,1.33,4,2c-0.22,4.51-0.71,5.39-2,8
			c-13.2,2.37-27.14,18.96-38,16c-3.65-1.65-4.31-2.39-6-6c-1.93-3.08-2.94-9.9-1-14c2.99-5.93,51.57-34.77,60-36
			c9.95,10.27,4.19,53.48-8,59c-4.67-0.33-9.33-0.67-14-1c-0.67,0-1.33,0-2,0c0.33,0.67,0.67,1.33,1,2c10.15,4.32,20.77,4.91,30-1
			c3.51-16.14,6.71-54.44-3-67c-21.12,10.43-58.95,44.32-91,38c-23.87-4.71-39.35-35.88-52-53c-7.31-9.89-14.44-19.35-22-30
			c-14-13.33-28-26.67-42-40c-12.27-15.36-21.43-33.45-34-49c-4.56,19.19-48.05,49.85-61,21c-5.42-8.48-1.56-17.71,3-24
			c0.33,0,0.67,0,1,0c1.33,0,2.67,0,4,0c1,1.33,2,2.67,3,4c-0.85,5.06-3.02,9.08-1,14c7.09,13.52,31.75-1.95,36-8
			c10.55-15.01,1.38-35.36-3-49c-1.33,1-2.67,2-4,3c-6.91,12.94-20.8,20.05-12,42c1-0.33,2-0.67,3-1c6.83-9.43,2.82-13.9,4-25
			c5.28-1.51,7.42-0.32,11,2c5.98,18.95-3.29,34.4-21,36c-10.29-8.39-12.64-19.21-11-37c-7.91,3.37-16.56,6.38-23,11
			c-3.23,20.07-3.31,54.77-12,72c-15.37,30.47-41.34,52.27-50,90c-8.87,38.61,4.55,105.29-8.67,140c-4,0-8,0-12,0c0-0.33,0-0.67,0-1
			c9.25-20.88,6.7-65.76,6.67-93c-0.09-71.42-34.19-164.21-5-233c6.42-15.13,21.45-24.73,34-34c8.64-6.39,67.69-46.92,76-35
			c-0.02,3.06-0.22,3.86-2,7c-29.01,9.1-87.94,41.88-98,68c-18.53,48.1-4.53,117.5,0,167c0.67-0.33,1.33-0.67,2-1
			c6.46-35.42,38.98-54.77,49-87c6.4-20.58,0.28-55.45,13-70c6.33-2.67,12.67-5.33,19-8c28.34-13.43,36.03-19.13,36-60
			c-12,7.67-24,15.33-36,23c-48.38,21.19-88.73,40.85-70,118c8.19,0.85,13.97-0.95,17-8c7.95-15.51-3.67-38.56,0-58
			c4.77-25.27,39.23-50.84,71-45c1.33,1.33,2.67,2.67,4,4c-0.67,2-1.33,4-2,6c-23.27,3.38-48.61,8.57-59,27
			c-15.9,28.21,23.4,98.4-37,84c-13.27-18.71-8.75-65.63,0-87c13.96-34.07,45.95-36.85,77-54c23.43-12.94,36.58-30.15,52-51
			C91.14,119.65,51.11,171.46,0,210.62c0-5.67,0-11.33,0-17c31.36-23.36,73.1-64.8,111.2-81.29
			C127.95,105.09,150.43,106.1,168.2,98.33z"/>
	</g>
</svg>
